<?xml version="1.0" encoding="utf-8"?>
<!-- Generator: Adobe Illustrator 15.0.0, SVG Export Plug-In . SVG Version: 6.00 Build 0)  -->
<!DOCTYPE svg PUBLIC "-//W3C//DTD SVG 1.1//EN" "http://www.w3.org/Graphics/SVG/1.1/DTD/svg11.dtd">
<svg version="1.1" id="Layer_1" xmlns="http://www.w3.org/2000/svg" xmlns:xlink="http://www.w3.org/1999/xlink" x="0px" y="0px"
	 width="300.647px" height="373.063px" viewBox="0 0 300.647 373.063" enable-background="new 0 0 300.647 373.063"
	 xml:space="preserve">
<g>
	<path fill="#282828" d="M300.076,145.97c-4.444,1.435-24.073,7.113-36.439-0.31c-13.94-8.361,15.58-20.424,11.27-84.958
		c-0.029-0.525-0.21-0.551-0.385-0.047c-1.983,5.571-12.891,35.022-23.029,39.245c-11.135,4.64,2.158-52.929-23.297-93.971
		c-0.286-0.455-0.537-0.385-0.561,0.146c-0.35,7.253-2.771,53.294-8.358,59.737c-6.037,6.97,4.556-17.488-33.954-65.552
		c-0.333-0.415-0.561-0.321-0.514,0.204c0.549,5.991,3.296,38.195-0.087,42.004c-3.733,4.203-2.334-20.078-9.806-28.95
		c-7.473-8.872,1.866,2.8-7.939,23.347c-9.706,20.337-2.484-8.583-16.226-36.492c-0.233-0.479-0.627-0.479-0.857,0
		c-13.737,27.908-6.519,56.829-16.228,36.492c-9.803-20.547-0.467-32.219-7.936-23.347s-6.072,33.152-9.806,28.95
		c-3.389-3.809-0.639-36.013-0.087-42.004c0.05-0.525-0.184-0.619-0.516-0.204C76.811,48.324,87.41,72.782,81.372,65.812
		c-5.591-6.443-8.012-52.483-8.362-59.737c-0.023-0.531-0.28-0.601-0.56-0.146C46.992,46.971,60.28,104.54,49.153,99.9
		c-10.144-4.223-21.046-33.674-23.032-39.245c-0.178-0.504-0.347-0.478-0.382,0.047c-4.313,64.534,25.208,76.597,11.272,84.958
		c-12.363,7.423-32.003,1.744-36.445,0.31c-0.504-0.164-0.714,0.076-0.455,0.539c8.546,15.633,25.436,24.817,35.147,29.034
		c-0.321,3.372-0.49,6.752-0.487,10.135C15.543,205.432-0.343,234.434,6.63,227.846c6.58-6.218,15.487-10.497,18.292-11.757
		c0.484-0.216,0.647-0.023,0.371,0.429C4.358,250.309,6.201,310.864,7.126,298.822c0.825-10.797,17.904-26.024,21.676-29.262
		c0.405-0.35,0.676-0.198,0.595,0.327c-8.828,59.564,1.709,80.939,4.273,85.102c0.277,0.455,0.469,0.373,0.414-0.154
		c-1.849-18.393,20.652-87.315,19.736-62.555c-0.934,25.22,10.275,75.649,10.275,65.375c0-10.272,2.8-43.892,10.269-32.684
		c6.77,10.147,1.274,41.745,0.184,47.616c-0.096,0.521,0.123,0.639,0.461,0.23c5.401-6.414,22.373-35.41,23.565-37.454
		c3.17,2.534,6.504,4.932,10.033,7.162c10.144,6.402,21.119,10.628,33.085,12.115c0.968,0.12,1.893,0.561,2.835,0.855h11.175
		c4.841-1.033,9.758-1.794,14.507-3.145c12.074-3.433,22.62-9.225,31.977-16.793c1.896,3.24,18.182,31,23.449,37.259
		c0.338,0.408,0.56,0.291,0.467-0.23c-1.103-5.871-6.586-37.469,0.181-47.616c7.466-11.208,10.271,22.411,10.271,32.684
		c0,10.274,11.206-40.155,10.272-65.375c-0.916-24.761,21.582,44.162,19.739,62.555c-0.059,0.527,0.128,0.609,0.408,0.154
		c2.566-4.165,13.106-25.54,4.275-85.102c-0.075-0.525,0.187-0.677,0.595-0.327c3.769,3.237,20.842,18.465,21.676,29.262
		c0.928,12.042,2.771-48.514-18.164-82.305c-0.279-0.452-0.116-0.645,0.368-0.429c2.806,1.26,11.712,5.539,18.292,11.757
		c6.982,6.594-8.948-22.466-28.191-42.217c0.012-3.409-0.122-6.775-0.396-10.103c9.718-4.223,26.569-13.404,35.109-29.014
		C300.794,146.045,300.584,145.806,300.076,145.97 M247.001,250.568c0.088-0.531,0.216-1.091,0.467-1.552
		c3.033-5.445,6.096-10.879,9.233-16.467c2.637,1.558,3.43,4.27,3.657,6.886c0.729,8.561-1.47,16.292-7.956,22.239
		c-1.505,1.376-3.914,1.802-5.967,2.49c-0.228,0.076-1.266-1.032-1.208-1.505C245.724,258.618,246.371,254.593,247.001,250.568
		 M98.236,213.901c-6.431-14.605-5.956-56.645-5.833-63.542c0.006-0.528,0.073-0.531,0.149-0.009
		c4.27,30.851,13.227,40.444,15.907,42.678c0.408,0.344,0.479,0.247,0.219-0.207c-5.042-8.587-4.856-51.623,0.554-37.198
		c5.136,13.69,12.357,56.646,13.536,63.744c-7.595-4.194-16.881-6.889-24.449-5.127C98.317,214.141,98.297,214.032,98.236,213.901
		 M55.809,263.92c-3.22,1.067-5.439-0.519-7.521-2.236c-6.201-5.128-9.707-17.438-7.061-25.007c0.545-1.569,1.648-2.942,2.829-4.99
		c1.12,2.281,1.826,3.786,2.59,5.253c1.248,2.383,2.275,4.938,3.864,7.066c2.955,3.967,3.634,8.511,4.186,13.171
		C54.963,259.429,55.427,261.651,55.809,263.92 M158.653,340.488c-14.896,2.254-28.636-1.549-41.335-9.229
		c-19.876-12.016-33.018-29.655-41.625-50.896c-4.416-10.89-7.029-22.235-8.038-33.954c-0.114-1.312-0.703-2.718-1.45-3.826
		c-0.548-0.822-1.053-1.663-1.583-2.491c0.21-8.481,0.732-15.131,0.939-17.517c0.044-0.527,0.161-0.531,0.257-0.006
		c4.559,25.45,17.009,44.121,19.815,48.076c0.303,0.432,0.396,0.385,0.195-0.104c-12.299-30.187-11.115-84.312-10.873-92.163
		c0.02-0.534,0.108-0.537,0.201-0.018c4.955,26.99,18.64,34.45,22.475,36.04c-5.037,1.368-9.24,4.804-11.546,11.223
		c-1.899,5.276,5.454,7.802,8.452,4.013c1.901,5.685,6.737,10.275,12.923,11.209c7.093,1.064,13.936-3.663,15.189-10.19
		c0.761,0.562,1.42,1.097,1.948,1.575c4.591,4.146,11.416-2.637,6.801-6.802c-2.243-2.033-5.042-4.028-8.131-5.78
		c0.026-0.041,0.061-0.07,0.087-0.135c5.177-11.071,5.177-35.873,5.177-35.873c2.488-85.918,14.944,29.265,14.944,2.881
		c0-20.818,4.258-26.855,6.061-28.477c0.394-0.356,1.175-0.356,1.569,0c1.799,1.622,6.065,7.659,6.065,28.477
		c0,26.383,12.447-88.8,14.938-2.881c0,0,0,23.426,4.754,34.905c-3.908,1.995-7.449,4.409-10.19,6.883
		c-4.608,4.165,2.211,10.948,6.807,6.802c0.525-0.479,1.185-1.013,1.948-1.575c1.255,6.527,8.097,11.255,15.184,10.19
		c6.195-0.934,11.03-5.524,12.927-11.209c2.998,3.789,10.354,1.264,8.458-4.013c-5.425-15.078-21.273-13.711-33.873-7.699
		c1.697-10.171,8.429-49.339,13.294-62.301c5.407-14.425,5.588,28.611,0.554,37.198c-0.269,0.454-0.198,0.551,0.21,0.207
		c2.678-2.231,11.643-11.821,15.913-42.678c0.069-0.522,0.14-0.519,0.146,0.009c0.122,6.897,0.601,48.937-5.833,63.542
		c-0.216,0.484,0.006,0.741,0.496,0.543c3.687-1.49,17.581-8.844,22.585-36.084c0.094-0.519,0.188-0.513,0.204,0.018
		c0.239,7.863,1.424,61.977-10.872,92.16c-0.198,0.492-0.111,0.542,0.198,0.107c2.8-3.955,15.253-22.626,19.814-48.082
		c0.088-0.521,0.198-0.516,0.251,0.012c0.21,2.409,0.735,9.135,0.939,17.706c-0.391,0.622-0.788,1.246-1.19,1.864
		c-2,2.998-1.819,6.346-2.228,9.561c-1.768,13.792-5.88,26.82-12.197,39.169c-6.043,11.814-13.959,22.238-23.934,31
		C185.562,331.468,173.16,338.292,158.653,340.488"/>
	<path fill="#282828" d="M143.034,277.855c4.042,0.805,8.082,1.61,12.114,2.415c6.061,1.207,8.645-8.062,2.561-9.274l-7.001-1.397
		c2.4-6.72,4.802-13.437,7.211-20.156c2.095-5.856-7.205-8.353-9.279-2.555c-2.986,8.347-5.973,16.7-8.962,25.053
		C138.837,274.282,140.599,277.371,143.034,277.855"/>
	<path fill="#282828" d="M166.044,297.723c-10.838-8.793-25.761-10.019-37.581-2.307c-4.136,2.697-0.283,9.365,3.882,6.646
		c8.732-5.698,20.03-5.573,28.257,1.103C164.416,306.263,169.899,300.853,166.044,297.723"/>
</g>
</svg>
