<?xml version="1.0" encoding="utf-8"?>
<!-- Generator: Adobe Illustrator 15.0.0, SVG Export Plug-In . SVG Version: 6.00 Build 0)  -->
<!DOCTYPE svg PUBLIC "-//W3C//DTD SVG 1.1//EN" "http://www.w3.org/Graphics/SVG/1.1/DTD/svg11.dtd">
<svg version="1.1" id="Layer_1" xmlns="http://www.w3.org/2000/svg" xmlns:xlink="http://www.w3.org/1999/xlink" x="0px" y="0px"
	 width="319.97px" height="383.936px" viewBox="0 0 319.97 383.936" enable-background="new 0 0 319.97 383.936"
	 xml:space="preserve">
<g>
	<path fill="#282828" d="M318.829,153.903c-8.518-2.468-34.133-10.349-42.995-18.243c-8.015-7.115-17.021-15.229-21.052-18.868
		c-1.187-1.069-0.851-1.877,0.748-1.854c32.353,0.503,44.45-13.598,48.092-19.524c0.845-1.356,0.097-2.18-1.443-1.752
		c-10.001,2.747-44.098,10.79-53.697-4.372c-7.815-12.337-13.925-19.27-16.949-22.372c-1.113-1.145-0.91-2.576,0.396-3.486
		c18.464-12.832,26.31-59.507,18.332-40.138c-6.971,16.931-34.795,28.438-43.647,31.73c-1.497,0.557-1.557,0.383-0.306-0.608
		c8.331-6.597,17.926-25.199,21.297-32.086c0.713-1.431,0.264-1.77-0.976-0.761c-6.636,5.406-26.299,20.908-34.635,21.642
		c-7.894,0.698-23.027,4.111-29.286,5.576c-1.551,0.362-1.75-0.114-0.897-1.47c4.359-6.965,7.383-26.31,8.408-33.641
		c0.221-1.581,0.257-1.575-0.12-0.023c-1.521,6.142-7.522,20.913-31.019,31.047c-15.601,6.731-25.699,15.17-31.669,21.554
		c-0.755,0.257-1.498,0.533-2.247,0.812c9.265-22.282,4.594-55.976,2.923-65.897c-0.27-1.572-0.641-1.554-0.845,0.033
		c-1.348,10.685-7.36,48.2-26.364,61.576c-1.306,0.919-3.576,2.165-4.899,3.063C63.94,74.04,58.334,89.228,55.73,101.278
		c-1.857,2.258-3.624,4.62-5.319,7.049c-1.377-7.238-1.767-16.728,3.054-23.794c7.103-10.421,7.421-38.198,7.253-49.062
		c-0.491,6.647-3.755,20.949-19.739,44.306c-18.752,27.403-11.451,54.805-7.978,64.292c-0.149,0.473-0.323,0.922-0.479,1.401
		c-0.396,1.27-0.767,2.54-1.114,3.809c-19.872,12.211,1.233,21.533-11.834,35.733c-10.26,11.155-15.506,3.216-17.476-1.434
		c-0.623-1.474-1.294-1.48-1.587,0.095c-3.144,16.896,9.02,19.495,14.793,19.802c1.599,0.077,2.294,1.113,1.587,2.551
		c-22.98,46.696-4.12,78.271,2.078,86.715c0.946,1.282,1.383,1.03,1.054-0.533c-2.107-9.773-1.898-27.753-1.725-34.748
		c0.042-1.593,0.359-1.617,0.767-0.071c1.653,6.198,6.534,21.439,17.158,33.454c11.146,12.601,10.439,35.467,9.798,43.492
		c-0.126,1.594,0.934,2.335,1.989,1.132c5.114-5.792,7.402-22.028,8.139-28.67c0.18-1.587,1.192-1.928,2.012-0.562
		c7.361,12.259,6.995,45.444,6.708,55.44c-0.048,1.6,0.215,1.641,0.617,0.09l8.66-33.641c0.401-1.546,1.107-1.563,1.581-0.042
		l6.612,21.237c0.473,1.521,0.97,1.474,1.114-0.12l2.204-24.759c5.366,5.14,11.289,9.805,17.854,13.942
		c10.415,6.571,21.68,10.913,33.969,12.439c0.988,0.126,1.94,0.574,2.911,0.874h11.469c4.971-1.054,10.015-1.838,14.902-3.222
		c5.647-1.61,10.966-3.73,16.003-6.288l-0.743,15.925c-0.071,1.593,0.953,3.593,2.371,4.324c8.708,4.497,23.555,7.959,29.742,9.277
		c1.563,0.334,1.604,0.144,0.251-0.713c-9.589-6.072-17.518-25.136-20.212-32.257c-0.563-1.491-0.271-1.636,0.683-0.36
		c3.898,5.229,14.403,17.776,29.244,23.801c14.69,5.972,25.842,16.548,30.153,21.063c1.109,1.149,1.857,0.826,1.438-0.719
		c-1.096-4.073-4.563-12.505-15.535-25.101c-13.093-15.031-13.134-38.365-12.703-46.463c0.084-1.592,0.772-1.712,1.51-0.298
		c11.235,21.494,29.353,33.286,35.994,37.077c1.39,0.784,1.735,0.348,0.856-0.988c-9.655-14.68-13.17-41.803-14.099-50.654
		c-0.156-1.594,0.551-1.875,1.653-0.72c5.922,6.229,13.547,10.612,17.475,12.632c1.42,0.73,1.827,0.221,0.936-1.103
		c-4.24-6.271-14.812-23.992-11.578-40.103c0.51-0.425,1.013-0.861,1.504-1.33c3.714-3.484,6.534-7.629,8.511-12.282
		c0.484-1.132,0.915-2.271,1.323-3.408c8.715,18.985,12.984,36.358,14.41,42.972c0.341,1.563,1.071,1.641,1.479,0.09
		c4.689-17.89-4.965-55.842-7.852-66.413c-0.419-1.538,0.162-1.88,1.438-0.916c8.762,6.637,22.823,9.702,28.817,10.769
		c1.576,0.275,1.852-0.371,0.678-1.455c-5.768-5.33-21.01-21.363-21.01-42.092c0-20.252-13.428-32.299-19.01-36.425
		c-1.281-0.952-1.191-1.144,0.324-0.647c18.08,5.881,40.271,1.569,47.989-0.263C320.355,155.041,320.355,154.349,318.829,153.903
		 M41.578,255.382c-6.372-5.271-9.966-17.9-7.253-25.675c0.558-1.61,1.695-3.024,2.905-5.127c1.15,2.343,1.869,3.888,2.659,5.396
		c1.282,2.444,2.336,5.066,3.965,7.259c3.037,4.066,3.731,8.731,4.3,13.523c0.275,2.306,0.749,4.594,1.15,6.917
		C45.985,258.772,43.709,257.149,41.578,255.382 M154.883,336.293c-15.29,2.312-29.394-1.593-42.438-9.475
		c-20.398-12.337-33.892-30.447-42.731-52.26c-4.534-11.182-7.217-22.824-8.252-34.862c-0.12-1.348-0.725-2.791-1.492-3.929
		c-5.366-8.014-9.559-16.523-12.481-25.512c2.33-0.271,4.893-0.385,7.762-0.271c38.851,1.474,58.579-18.202,64.244-25.048
		c1.019-1.233,0.683-1.562-0.76-0.874c-9.049,4.33-29.843,8.112-37.449,9.396c-1.569,0.267-1.881-0.393-0.629-1.389
		c4.342-3.465,14.523-10.765,25.723-13.002c9.786-1.961,16.481-4.174,19.913-5.462c1.497-0.557,3.941-1.377,5.504-1.707
		c42.793-9.043,66.665,7.591,73.546,13.508c1.216,1.045,1.707,0.752,1.15-0.746c-0.516-1.389-1.001-2.59-1.414-3.557
		c-0.623-1.47-0.047-2.024,1.288-1.15c11.277,7.376,20.62,22.186,24.052,28.096c0.803,1.383,1.491,3.82,1.593,5.414l0.833,13.254
		c0.095,1.593,1.3,3.642,1.833,5.149c0.064,0.204,0.137,0.438,0.209,0.679c-0.581,0.934-1.174,1.855-1.785,2.771
		c-2.054,3.078-1.862,6.516-2.287,9.816c-1.81,14.164-6.031,27.538-12.512,40.217c-6.211,12.133-14.337,22.835-24.572,31.831
		C182.518,327.028,169.792,334.035,154.883,336.293"/>
	<path fill="#282828" d="M79.722,231.54c-1.947,5.413,5.6,8.007,8.678,4.114c1.953,5.839,6.917,10.559,13.272,11.511
		c7.282,1.096,14.308-3.755,15.595-10.463c0.785,0.581,1.455,1.126,2,1.617c4.713,4.258,11.72-2.701,6.983-6.982
		C114.254,220.489,87.237,210.644,79.722,231.54"/>
	<path fill="#282828" d="M200.324,235.654c3.072,3.898,10.624,1.299,8.679-4.114c-7.518-20.902-34.533-11.044-46.535-0.203
		c-4.733,4.275,2.276,11.24,6.988,6.982c0.54-0.491,1.217-1.043,2.001-1.617c1.288,6.701,8.313,11.553,15.589,10.463
		C193.407,246.207,198.371,241.493,200.324,235.654"/>
	<path fill="#282828" d="M136.88,285.165c4.145,0.827,8.295,1.653,12.439,2.479c6.216,1.239,8.864-8.276,2.624-9.521l-7.188-1.433
		c2.467-6.898,4.936-13.799,7.403-20.697c2.156-6.013-7.396-8.576-9.529-2.624c-3.06,8.571-6.133,17.146-9.199,25.723
		C132.568,281.5,134.377,284.668,136.88,285.165"/>
	<path fill="#282828" d="M168.564,294.083c-12.393,1.629-24.113,4.898-35.546,9.972c-4.653,2.061-0.623,8.87,3.989,6.82
		c10.055-4.455,20.656-7.455,31.558-8.893C173.542,301.329,173.606,293.418,168.564,294.083"/>
</g>
</svg>
