<?xml version="1.0" encoding="utf-8"?>
<!-- Generator: Adobe Illustrator 15.0.0, SVG Export Plug-In . SVG Version: 6.00 Build 0)  -->
<!DOCTYPE svg PUBLIC "-//W3C//DTD SVG 1.1//EN" "http://www.w3.org/Graphics/SVG/1.1/DTD/svg11.dtd">
<svg version="1.1" id="Layer_1" xmlns="http://www.w3.org/2000/svg" xmlns:xlink="http://www.w3.org/1999/xlink" x="0px" y="0px"
	 width="521px" height="521px" viewBox="0 0 521 521" enable-background="new 0 0 521 521" xml:space="preserve">
<radialGradient id="SVGID_1_" cx="260.5" cy="260.5" r="260.5" gradientUnits="userSpaceOnUse">
	<stop  offset="0" style="stop-color:#8CEB3F"/>
	<stop  offset="1" style="stop-color:#8CC63F"/>
</radialGradient>
<rect fill="url(#SVGID_1_)" width="521" height="521"/>
<g>
	<linearGradient id="SVGID_2_" gradientUnits="userSpaceOnUse" x1="146.6045" y1="329.8779" x2="521" y2="329.8779">
		<stop  offset="0" style="stop-color:#000000"/>
		<stop  offset="1" style="stop-color:#FFFFFF"/>
	</linearGradient>
	<polygon opacity="0.14" fill="url(#SVGID_2_)" points="521,231.928 359.306,138.756 146.604,296.424 232.101,521 521,521 	"/>
</g>
<g>
	<path fill="#8C6239" d="M335.869,388.004l-76.753,30.526l-80.459-32.053l-32.053-90.053c0,0-5.233-158.159,0-163.971
		c5.233-5.812,220.37-8.143,226.769,0s0,166.152,0,166.152L335.869,388.004z"/>
	<path fill="#EEC3A1" d="M364.651,289.488c0,34.969-32.523,94.605-32.523,94.605l-73.012,27.46l-74.102-29.109
		c0,0-31.433-58.695-31.433-92.956c0-171.507,47.248-143.693,105.534-143.693C317.403,145.795,364.651,117.98,364.651,289.488z"/>
	<path fill="#8C6239" d="M373.734,109.831c-13.328,54.958-197.82,125.155-208.501,22.118c0,0,32.915-60.338,69.476-68.791
		c60.256-13.931-7.966-4.91-8.705,25.941c-0.494,20.575-8.381-6.361,36.84-29.859c45.217-23.498-19.427,7.001-20.251,46.161
		c-0.337,16.057,4.327-22.438,57.851-50.56c53.517-28.122-18.092,0.886-31.1,62.307c-2.307,10.899,12.674-25.58,57.163-62.003
		c40.618-33.252-27.862,41.163-33.961,63.605c-6.16,22.67,38.591-67.281,68.419-74.187c0,0-39.501,46.386-40.57,70.402
		c-1.111,25.044-4.49-21.165,39.459-47.255c49.058-29.12-6.214,5.325-14.186,37.02c-7.806,31.034,0,0,26.029-24.227
		C400.567,53.626,373.734,109.831,373.734,109.831z"/>
	<path fill="#CC5E5C" d="M260.425,345.703c-28.244,0-53.715-7.499-73.915-16.067c13.073,24.714,41.054,41.797,73.478,41.797
		c32.025,0,59.711-16.674,72.984-40.897C313.11,338.555,287.65,345.703,260.425,345.703z"/>
	<path fill="#FFFFFF" d="M260.248,349.921c-21.805,0-48.229-6.105-63.057-11.631c7.85,12.245,37.518,27.474,62.552,27.474
		c24.722,0,55.63-15.229,63.915-27.474C308.252,343.958,281.269,349.921,260.248,349.921z"/>
	<circle cx="203.523" cy="251.135" r="15.387"/>
	<path fill="#FFFFFF" d="M209.381,248.206c0,2.429-1.962,4.398-4.395,4.398c-2.429,0-4.395-1.969-4.395-4.398
		s1.966-4.395,4.395-4.395C207.419,243.811,209.381,245.776,209.381,248.206z"/>
	<circle cx="308.186" cy="251.135" r="15.388"/>
	<path fill="#FFFFFF" d="M314.044,248.206c0,2.429-1.963,4.398-4.396,4.398c-2.429,0-4.395-1.969-4.395-4.398
		s1.966-4.395,4.395-4.395C312.081,243.811,314.044,245.776,314.044,248.206z"/>
	<g>
		<linearGradient id="SVGID_3_" gradientUnits="userSpaceOnUse" x1="248.2139" y1="286.2939" x2="270.0186" y2="286.2939">
			<stop  offset="0" style="stop-color:#FFFFFF"/>
			<stop  offset="1" style="stop-color:#000000"/>
		</linearGradient>
		<path opacity="0.14" fill="url(#SVGID_3_)" d="M270.019,286.292c0,14.275-4.879,25.9-10.902,25.9s-10.902-11.188-10.902-25.9
			c0-14.303,7.451-25.896,10.902-25.896C262.026,260.396,270.019,271.989,270.019,286.292z"/>
	</g>
	<path fill="#8C6239" d="M254.772,314.774c-0.685,0.634-1.782,1.543-3.622,2.17c-1.537,0.524-2.937-0.688-2.937-1.537
		c0-0.852,1.315-1.54,2.937-1.54S255.457,314.147,254.772,314.774z"/>
	<path fill="#8C6239" d="M262.278,314.774c0.681,0.634,1.778,1.543,3.621,2.17c1.537,0.524,2.938-0.688,2.938-1.537
		c0-0.852-1.315-1.54-2.938-1.54C264.274,313.868,261.594,314.147,262.278,314.774z"/>
</g>
</svg>
