<?xml version="1.0" encoding="utf-8"?>
<!-- Generator: Adobe Illustrator 15.0.0, SVG Export Plug-In . SVG Version: 6.00 Build 0)  -->
<!DOCTYPE svg PUBLIC "-//W3C//DTD SVG 1.1//EN" "http://www.w3.org/Graphics/SVG/1.1/DTD/svg11.dtd">
<svg version="1.1" id="Layer_1" xmlns="http://www.w3.org/2000/svg" xmlns:xlink="http://www.w3.org/1999/xlink" x="0px" y="0px"
	 width="129px" height="122px" viewBox="0 0 129 122" enable-background="new 0 0 129 122" xml:space="preserve">
<g>
	<path fill="#033757" d="M104.23,56.036c-0.744-6.754-3.229-12.925-7.248-18.423c-6.476-8.852-15.136-14.264-25.95-16.147
		c-2.157-0.375-4.362-0.473-6.545-0.697h-0.432c-2.039,0.222-4.087,0.37-6.111,0.681c-20.795,3.191-35.829,22.88-33.452,43.827
		c1.134,9.998,5.323,18.525,12.757,25.324c8.84,8.086,19.342,11.553,31.246,10.422c9.137-0.871,17.11-4.555,23.681-10.986
		C101.719,80.692,105.688,69.269,104.23,56.036 M95.758,76.622c-1.017-1.771-2.302-4.244-2.873-6.354
		c-0.833-3.062-2.833-0.104-3,1.896s-1.5,3.5-4.167,0.5s-3.167-2.333-4-2.333s-2.333,2-2,11.333
		c0.236,6.665,2.865,7.723,4.584,8.205c-3.19,2.191-6.855,3.919-10.969,4.964c-15.722,3.99-31.768-3.256-39.266-17.651
		c-6.987-13.414-3.583-28.592,3.518-36.946c0.19,1.502,0.379,2.853,0.534,4.207c0.423,3.7,0.104,7.351-0.65,10.986
		c-0.161,0.775-0.106,1.658,0.103,2.42c0.115,0.416,0.742,0.908,1.175,0.949c0.343,0.033,0.938-0.508,1.075-0.914
		c0.25-0.727,0.261-1.541,0.337-2.322c0.056-0.551,0.058-1.108,0.095-1.973c0.564,0.457,0.977,0.734,1.316,1.078
		c0.873,0.877,1.752,1.75,2.548,2.693c0.352,0.418,0.713,1.004,0.702,1.508c-0.021,1.078,0.453,1.811,1.03,2.657
		c0.641,0.941,0.929,2.125,1.345,3.216c0.171,0.457,0.209,0.973,0.414,1.411c0.439,0.941,1.105,1.586,2.248,1.655
		c1.203,0.077,1.653,0.544,1.826,1.774c-0.309,0.035-0.613,0.076-0.921,0.105c-1.468,0.139-2.194,0.812-2.137,2.293
		c0.115,2.938,1.176,5.506,3.356,7.547c0.601,0.562,1.24,1.086,1.824,1.664c1.334,1.318,1.799,2.865,1.158,4.684
		c-0.309,0.867-0.729,1.719-0.864,2.615c-0.14,0.912-0.141,1.902,0.07,2.793c0.22,0.928,0.125,2.957,1.083,2.789
		c1.693-0.297,2.67,0.037,2.802-1.861c0.023-0.361-0.003-0.406-0.1-0.74c-0.504-1.781,1.782-6.838,3.156-7.76
		c1.174-0.789,2.35-1.592,3.413-2.518c1.533-1.332,2.219-3.053,1.575-5.057c-0.606-1.886,0.103-3.271,1.422-4.484
		c1.343-1.238,2.226-2.664,2.134-4.568c-0.091-1.904-1.338-3.279-2.963-3.084c-0.792,0.094-1.554,0.475-2.33,0.736
		c-1.133,0.383-2.241,0.92-3.405,1.129c-1.633,0.289-2.638-0.777-3.365-2.072c-0.587-1.041-0.778-1.121-1.797-0.473
		c-0.856,0.549-1.715,1.102-2.603,1.598c-0.923,0.515-1.426,0.324-2.138-0.447c-0.421-0.455-1.004-0.775-1.545-1.104
		c-0.391-0.238-0.915-0.303-1.229-0.602c-0.418-0.404-1-1.004-0.939-1.444c0.067-0.514,0.664-1.157,1.185-1.368
		c0.896-0.363,1.915-0.422,2.875-0.632c0.512-0.11,1.031-0.227,1.514-0.418c0.662-0.264,0.636-0.698,0.128-1.106
		c-0.25-0.2-0.559-0.342-0.859-0.463c-1.465-0.59-2.938-1.153-4.404-1.746c-0.362-0.146-0.72-0.325-1.047-0.538
		c-0.92-0.605-1.032-1.271-0.196-2.009c3.297-2.907,7.148-3.76,10.561,0.104c1.058,1.197,1.773,2.688,2.771,3.944
		c0.786,0.99,1.689,1.921,2.688,2.685c0.411,0.313,1.336,0.368,1.796,0.115c0.684-0.375,0.709-1.23,0.363-1.943
		c-0.298-0.619-0.646-1.229-1.068-1.771c-1.938-2.498-1.805-7.364,1.992-9.396c1.27-0.68,2.552-1.395,3.156-3.221
		c-0.727,0.197-1.254,0.324-1.771,0.482c-2.883,0.893-0.875-1.258,0.45-1.633c0.805-0.229-0.722-0.846-0.722-0.846
		c0.036-0.063,1.015-0.342,2.102-0.806c0.748-0.317,1.513-0.676,2.133-1.182c0.403-0.33,0.558-0.962,0.823-1.457
		c-0.068-0.078-0.133-0.154-0.2-0.231c-0.763,0.102-1.524,0.216-2.288,0.301c-1.293,0.145-1.597-0.109-1.716-1.414
		c-0.084-0.892-0.994-1.377-1.84-0.92c-0.574,0.311-1.069,0.762-1.622,1.119c-1.276,0.825-2.229,0.496-2.729-0.929
		c-0.297-0.849-0.713-1.008-1.491-0.532c-0.395,0.237-0.72,0.586-1.118,0.809c-0.654,0.366-1.32,0.732-2.021,0.979
		c-0.684,0.242-1.508,0.419-1.973-0.331c-0.5-0.808-0.064-1.593,0.566-2.099c0.783-0.629,1.688-1.117,2.567-1.61
		c1.257-0.707,2.586-1.296,3.8-2.066c0.892-0.568,1.28-1.494,0.992-2.586c-0.244-0.921-0.86-1.234-1.714-0.812
		c-0.705,0.351-1.321,0.897-2.046,1.182c-0.532,0.202-1.191,0.204-1.759,0.104c-0.21-0.037-0.435-0.619-0.439-0.957
		c-0.004-0.194,0.391-0.533,0.643-0.574c1.752-0.272,3.513-0.504,5.273-0.704c0.234-0.025,0.584,0.118,0.73,0.305
		c1.164,1.469,2.787,2.182,4.495,2.69c1.438,0.428,1.645,0.224,1.842-1.282c1.844-0.435,3.719-1.289,5.572-0.119
		c1.03,0.647,1.969,1.473,2.839,2.329c0.217,0.212,0.085,0.87-0.02,1.294c-0.136,0.569-0.451,1.096-0.597,1.666
		c-0.281,1.104,0.433,1.967,1.572,1.949c0.36-0.009,0.721-0.082,1.082-0.101c1.055-0.05,1.429,0.354,1.331,1.418
		c-0.137,1.508,0.115,1.688,1.637,1.433c0.438-0.074,0.941,0.125,1.389,0.28c0.264,0.095,0.471,0.349,0.708,0.526
		c1.416,1.072,2.498,0.67,2.912-1.084c0.045-0.19,0.038-0.395,0.077-0.588c0.164-0.787,0.607-0.99,1.139-0.43
		c1.125,1.191,2.181,2.449,3.323,3.748c-1.228,1.125-1.269,2.492-0.996,3.832c0.302,1.49-0.091,2.785-0.679,4.099
		c-0.565,1.257-1.184,2.507-1.559,3.823c-0.562,1.975,0.078,2.877,2.082,3.314c1.914,0.418,2.228,0.803,2.299,2.674
		c0.098,2.553,1.408,4.313,3.647,5.438c0.497,0.247,1.024,0.436,1.533,0.647C98.803,68.644,97.68,72.737,95.758,76.622"/>
	<path fill-rule="evenodd" clip-rule="evenodd" fill="#FFFDF8" d="M54.585,95.695c0.047,0.369,0.604,0.229,0.998,0.25
		C56.116,95.027,54.312,94.818,54.585,95.695"/>
	<path fill-rule="evenodd" clip-rule="evenodd" fill="#FFFDF8" d="M92.774,89.955c-0.766,0.021-1.221-0.553-1.996,0
		C91.247,90.01,92.431,90.598,92.774,89.955"/>
	<path fill-rule="evenodd" clip-rule="evenodd" fill="#FFFDF8" d="M58.329,84.463c0.152,0.014,0.297,0.037,0.248,0.25h0.5"/>
	<path fill-rule="evenodd" clip-rule="evenodd" fill="#FFFDF8" d="M37.112,84.213c-0.639,0.193-1.146-0.977-1.496-0.248"/>
	<path fill-rule="evenodd" clip-rule="evenodd" fill="#FFFDF8" d="M98.267,79.971c-0.883-0.119-1.479,1.33-1,1.746"/>
	<path fill-rule="evenodd" clip-rule="evenodd" fill="#FFFDF8" d="M62.323,76.975c-0.008,0.738,1.154,0.846,1.496,0.5
		C64.056,76.572,62.839,77.127,62.323,76.975"/>
	<path fill-rule="evenodd" clip-rule="evenodd" fill="#FFFDF8" d="M55.333,74.979c-0.324-0.436-1.584-0.912-1.498,0.25
		C54.392,75.336,55.19,75.801,55.333,74.979"/>
	<path fill-rule="evenodd" clip-rule="evenodd" fill="#FFFDF8" d="M27.878,71.484c-0.197,0.961,1.193,0.961,0.996,0
		C28.38,71.068,28.56,71.505,27.878,71.484"/>
	<path fill-rule="evenodd" clip-rule="evenodd" fill="#FFFDF8" d="M29.374,70.734c0.07-0.568-0.059-0.936-0.5-0.998
		c-0.062,0.519-1.096,0.068-1.248,0.5"/>
	<path fill-rule="evenodd" clip-rule="evenodd" fill="#FFFDF8" d="M98.267,58.754c0.477,0.107,0.627,0.537,1.246,0.498"/>
	<path fill-rule="evenodd" clip-rule="evenodd" fill="#FFFDF8" d="M104.007,56.508c0.057,0.471-0.279,0.551-0.25,0.998h0.998"/>
	<path fill-rule="evenodd" clip-rule="evenodd" fill="#FFFDF8" d="M26.628,54.51v-0.748c-0.637,0.428-0.873-0.285-1.248,0.25"/>
	<path fill-rule="evenodd" clip-rule="evenodd" fill="#FFFDF8" d="M60.077,51.266c-0.131,0.619-0.609,0.889-0.998,1.248"/>
	<path fill-rule="evenodd" clip-rule="evenodd" fill="#FFFDF8" d="M56.833,43.777c0.781,0.119,1.02-0.312,1.246-0.748"/>
	<path fill-rule="evenodd" clip-rule="evenodd" fill="#FFFDF8" d="M46.849,35.291c-0.287-0.785,0.391-0.607,0.496-0.998
		c-0.68,0.182-0.502-0.496-0.996-0.5"/>
	<path fill-rule="evenodd" clip-rule="evenodd" fill="#FFFDF8" d="M49.345,34.043c0.287,0.209,0.668,0.33,1.246,0.25"/>
	<path fill-rule="evenodd" clip-rule="evenodd" fill="#FFFDF8" d="M42.353,29.301c-0.662-0.002-0.637-0.695-0.998-0.998"/>
	<path fill-rule="evenodd" clip-rule="evenodd" fill="#FFFDF8" d="M98.515,52.014c0.297-0.121,0.566-0.266,0.75-0.498"/>
	<path fill-rule="evenodd" clip-rule="evenodd" fill="#FFFDF8" d="M92.024,34.541c0.811-0.307,0.191,0.809,1,0.5
		c0.268-0.932-0.619-0.711-0.5-1.498"/>
</g>
<rect fill="none" width="129" height="122"/>
</svg>
