<?xml version="1.0" encoding="utf-8"?>
<!-- Generator: Adobe Illustrator 15.0.0, SVG Export Plug-In . SVG Version: 6.00 Build 0)  -->
<!DOCTYPE svg PUBLIC "-//W3C//DTD SVG 1.1//EN" "http://www.w3.org/Graphics/SVG/1.1/DTD/svg11.dtd">
<svg version="1.1" id="Layer_1" xmlns="http://www.w3.org/2000/svg" xmlns:xlink="http://www.w3.org/1999/xlink" x="0px" y="0px"
	 width="59px" height="59px" viewBox="0 0 59 59" enable-background="new 0 0 59 59" xml:space="preserve">
<g>
	<path fill="#534279" d="M53.143,40.789c0,1.015-0.287,1.955-0.744,2.783L37.783,27.221l14.455-12.646
		c0.564,0.893,0.904,1.941,0.904,3.074V40.789z"/>
	<path fill="#534279" d="M29.999,30.19l20.115-17.599c-0.826-0.452-1.754-0.729-2.756-0.729H12.644
		c-1.005,0-1.936,0.277-2.756,0.729L29.999,30.19z"/>
	<path fill="#534279" d="M35.607,29.126l-4.657,4.076c-0.271,0.237-0.61,0.355-0.952,0.355c-0.34,0-0.679-0.118-0.952-0.355
		l-4.656-4.076L9.593,45.686c0.886,0.557,1.926,0.89,3.051,0.89h34.713c1.123,0,2.164-0.333,3.049-0.89"/>
	<path fill="#534279" d="M7.759,14.574c-0.562,0.893-0.901,1.941-0.901,3.074v23.141c0,1.015,0.284,1.955,0.743,2.783l14.61-16.353
		L7.759,14.574z"/>
	<path fill-rule="evenodd" clip-rule="evenodd" fill="#FFFDF8" d="M20.257,46.15c-0.787,0.123-0.883-0.449-1.746-0.248"/>
	<path fill-rule="evenodd" clip-rule="evenodd" fill="#FFFDF8" d="M13.519,45.402c-0.707,0.26-1.041,0.26-1.746,0"/>
	<path fill-rule="evenodd" clip-rule="evenodd" fill="#FFFDF8" d="M39.479,39.912c0.752-0.33,2.139-0.025,2.744-0.5"/>
	<path fill-rule="evenodd" clip-rule="evenodd" fill="#FFFDF8" d="M43.971,38.414c-0.662,0.418-1.422-0.48-1.496,0.748"/>
	<path fill-rule="evenodd" clip-rule="evenodd" fill="#FFFDF8" d="M23.253,36.666c0.385-0.754-1.291-0.656-1.248-0.25"/>
	<path fill-rule="evenodd" clip-rule="evenodd" fill="#FFFDF8" d="M34.486,35.168c0.51,0.158,0.068,1.262,0.996,1
		C35.633,35.496,34.746,34.607,34.486,35.168"/>
	<path fill-rule="evenodd" clip-rule="evenodd" fill="#FFFDF8" d="M23.001,34.17v-0.998c-0.836-0.172-0.91,0.42-0.998,0.998"/>
	<path fill-rule="evenodd" clip-rule="evenodd" fill="#FFFDF8" d="M34.486,31.176c0.338,0.078,0.477,0.356,0.996,0.248
		c0.051-0.713,0.031-1.361-0.746-1.246"/>
	<path fill-rule="evenodd" clip-rule="evenodd" fill="#FFFDF8" d="M30.742,27.182c-0.365-0.217-0.791-0.375-0.748-0.998"/>
	<path fill-rule="evenodd" clip-rule="evenodd" fill="#FFFDF8" d="M34.986,23.688v0.748c0.471,0.057,0.551-0.281,0.996-0.25"/>
	<path fill-rule="evenodd" clip-rule="evenodd" fill="#FFFDF8" d="M31.99,23.936c0.594-0.154,1.16-0.334,1.246-0.998"/>
	<path fill-rule="evenodd" clip-rule="evenodd" fill="#FFFDF8" d="M38.23,13.951c0.146,1.576,3.666,2.195,2.494-0.248"/>
	<path fill-rule="evenodd" clip-rule="evenodd" fill="#FFFDF8" d="M33.988,11.455c0.002,0.662-0.141,1.471,0.498,1.498
		C34.336,12.439,34.887,11.219,33.988,11.455"/>
	<path fill-rule="evenodd" clip-rule="evenodd" fill="#FFFDF8" d="M39.979,37.664c-0.818,1.08-1.777,0.836-2.496,2.248"/>
	<path fill-rule="evenodd" clip-rule="evenodd" fill="#FFFDF8" d="M28.996,22.439c-0.51,1.1,0.041,2.004-0.25,2.994"/>
	<path fill-rule="evenodd" clip-rule="evenodd" fill="#FFFDF8" d="M21.503,20.941c-0.287-0.043-0.271-0.396-0.246-0.748
		c-0.619-0.037-1.213-0.047-1.248,0.498"/>
	<path fill-rule="evenodd" clip-rule="evenodd" fill="#FFFDF8" d="M41.408,41.91c-0.342,0.348-0.537,1.232-0.252,1.498"/>
	<path fill-rule="evenodd" clip-rule="evenodd" fill="#FFFDF8" d="M23.687,12.705c0.795,0.215,0.77-0.393,1.246-0.498
		c-0.174-0.494-0.666-0.666-1.246-0.75"/>
	<path fill-rule="evenodd" clip-rule="evenodd" fill="#FFFDF8" d="M32.672,12.457c-0.006-0.383-1.852-0.549-1.498,0.248"/>
</g>
<rect fill="none" width="59" height="59"/>
</svg>
