<?xml version="1.0" encoding="utf-8"?>
<!-- Generator: Adobe Illustrator 15.0.0, SVG Export Plug-In . SVG Version: 6.00 Build 0)  -->
<!DOCTYPE svg PUBLIC "-//W3C//DTD SVG 1.1//EN" "http://www.w3.org/Graphics/SVG/1.1/DTD/svg11.dtd">
<svg version="1.1" xmlns="http://www.w3.org/2000/svg" xmlns:xlink="http://www.w3.org/1999/xlink" x="0px" y="0px"
     width="778.99px" height="452.338px" viewBox="0 0 778.99 452.338" enable-background="new 0 0 778.99 452.338"
     xml:space="preserve">

<g id="Layer_3">
	<g opacity="0.5">
		<path fill="#FF6106" d="M397.119,40.514c-3.074,0-5.67,1.961-6.668,4.689l-10.689-1.191c0.012-0.234,0.035-0.467,0.035-0.703
			c0-3.783-1.471-7.213-3.852-9.783l6.391-6.596c0.865,0.572,1.895,0.908,3.008,0.908c3.029,0,5.484-2.457,5.484-5.486
			c0-3.025-2.455-5.48-5.484-5.48c-3.027,0-5.48,2.455-5.48,5.48c0,0.814,0.186,1.574,0.5,2.264l-6.688,6.9l0.072,0.074
			c-2.357-1.684-5.234-2.684-8.352-2.684c-0.752,0-1.488,0.076-2.211,0.186l0.053-0.021l-3.914-9.459
			c2.291-1.182,3.875-3.549,3.875-6.305c0-3.938-3.188-7.129-7.121-7.129c-3.936,0-7.125,3.191-7.125,7.129
			c0,3.932,3.189,7.123,7.125,7.123c0.174,0,0.34-0.041,0.51-0.053l-0.191,0.078l3.893,9.398c-5.43,2.066-9.293,7.299-9.293,13.455
			c0,1.064,0.125,2.102,0.344,3.102l-5.621,1.797c-1.627-3.754-5.361-6.381-9.713-6.381c-5.846,0-10.586,4.74-10.586,10.584
			c0,5.848,4.74,10.588,10.586,10.588c5.848,0,10.586-4.74,10.586-10.588c0-0.438-0.033-0.861-0.086-1.281l5.797-1.85
			c2.199,4.812,6.965,8.197,12.555,8.404l0.303,7.977l0.16-0.006c-3.576,0.914-6.227,4.125-6.227,7.984
			c0,4.568,3.699,8.27,8.268,8.27c4.566,0,8.266-3.701,8.266-8.27c0-4.289-3.273-7.771-7.449-8.186l-0.303-7.973
			c5.551-0.963,9.998-5.098,11.426-10.475l10.752,1.197c0.289,3.668,3.324,6.564,7.066,6.564c3.934,0,7.125-3.193,7.125-7.129
			C404.244,43.705,401.053,40.514,397.119,40.514"/>
		<g>
			<path fill="#00AEB3" d="M286.985,338.199c0,12.48-10.113,22.595-22.588,22.595c-12.481,0-22.594-10.114-22.594-22.595
				c0-12.477,10.112-22.59,22.594-22.59C276.872,315.609,286.985,325.723,286.985,338.199z"/>
			<path fill="#00AEB3" d="M303.165,261.216c0,9.704-7.873,17.569-17.574,17.569s-17.571-7.865-17.571-17.569
				c0-9.706,7.87-17.576,17.571-17.576S303.165,251.51,303.165,261.216z"/>
			<path fill="#00AEB3" d="M227.224,276.869c5.854-0.23,10.784,4.325,11.015,10.174c0.23,5.848-4.326,10.777-10.178,11.005
				c-5.852,0.231-10.78-4.322-11.008-10.173C216.826,282.025,221.379,277.1,227.224,276.869z"/>
			<path fill="#00AEB3" d="M304.051,403.217c-0.724,5.031-5.379,8.53-10.41,7.812c-5.037-0.717-8.535-5.383-7.814-10.414
				c0.717-5.033,5.376-8.531,10.407-7.813C301.274,393.52,304.775,398.183,304.051,403.217z"/>
			<path fill="#00AEB3" d="M205.817,349.639c0,6.623-5.369,11.991-11.994,11.991c-6.621,0-11.994-5.368-11.994-11.991
				c0-6.627,5.373-11.997,11.994-11.997C200.448,337.642,205.817,343.012,205.817,349.639z"/>
			<path fill="#00AEB3" d="M265.359,337.668c-1.79-0.476-2.847-2.308-2.374-4.097l19.219-72.239
				c0.479-1.787,2.308-2.848,4.099-2.373l0,0c1.788,0.473,2.85,2.308,2.371,4.094l-19.225,72.242
				C268.976,337.078,267.144,338.142,265.359,337.668L265.359,337.668z"/>
			<path fill="#00AEB3" d="M261.596,333.738c-1.01,0.725-2.412,0.49-3.139-0.52l-29.241-40.812
				c-0.724-1.009-0.493-2.408,0.517-3.135l0,0c1.015-0.721,2.418-0.49,3.141,0.52l29.239,40.814
				C262.836,331.611,262.609,333.019,261.596,333.738L261.596,333.738z"/>
			<path fill="#00AEB3" d="M270.881,352.071c1.119-0.528,2.459-0.047,2.989,1.077l21.419,45.406c0.53,1.125,0.053,2.464-1.074,2.994
				l0,0c-1.119,0.529-2.459,0.047-2.99-1.072l-21.421-45.41C269.274,353.943,269.754,352.605,270.881,352.071L270.881,352.071z"/>
			<path fill="#00AEB3" d="M255.704,341.426c0.158,1.33-0.789,2.537-2.119,2.699l-53.768,6.535c-1.329,0.158-2.54-0.785-2.7-2.118
				l0,0c-0.161-1.327,0.788-2.538,2.114-2.696l53.767-6.536C254.333,339.149,255.543,340.095,255.704,341.426L255.704,341.426z"/>
		</g>
		<path fill="#033757" d="M272.532,102.646c-2.596,0-4.949,0.98-6.748,2.588l-5.547-6.127c3.646-4.688,5.825-10.568,5.825-16.959
			c0-10.088-5.417-18.924-13.497-23.732l6.678-11.867c0.785,0.271,1.627,0.436,2.496,0.436c4.166,0,7.555-3.385,7.555-7.553
			s-3.381-7.553-7.545-7.553c-4.166,0-7.555,3.391-7.555,7.559c0,2.285,1.018,4.32,2.629,5.717l-6.754,11.947
			c-3.532-1.645-7.471-2.572-11.629-2.572c-6.361,0-12.205,2.162-16.869,5.762l-6.221-7.873c1.482-1.84,2.389-4.178,2.389-6.736
			c0-5.963-4.836-10.785-10.787-10.785c-5.959,0-10.787,4.826-10.787,10.785c0,5.967,4.828,10.791,10.787,10.791
			c2.381,0,4.588-0.789,6.371-2.092l6.117,7.75c-5.307,5.025-8.614,12.139-8.614,20.021c0,0.154,0.017,0.285,0.017,0.432h-6.828
			c-1.029-3.736-4.444-6.475-8.51-6.475c-4.896,0-8.845,3.967-8.845,8.84c0,4.893,3.949,8.855,8.845,8.855
			c4.809,0,8.715-3.852,8.828-8.631h6.662c1.117,10.395,8.037,19.043,17.426,22.711l-2.322,4.73
			c-1.448-0.586-3.033-0.895-4.705-0.895c-7.032,0-12.731,5.684-12.731,12.721c0,7.029,5.699,12.732,12.731,12.732
			c7.045,0,12.732-5.703,12.732-12.732c0-4.432-2.281-8.348-5.721-10.613l2.504-5.104c2.391,0.684,4.918,1.051,7.531,1.051
			c7.914,0,15.057-3.338,20.079-8.682l5.551,6.111c-1.062,1.607-1.688,3.521-1.688,5.592c0,5.609,4.55,10.143,10.15,10.143
			c5.59,0,10.143-4.533,10.143-10.143C282.674,107.197,278.122,102.646,272.532,102.646z"/>
		<g>
			<path fill="#033757" d="M743.794,313.785v-27.848h-0.006c-15.379,0-27.836,12.463-27.836,27.838
				c0,7.703,3.125,14.674,8.183,19.715l19.702-19.705H743.794z"/>
			<path fill="#033757" d="M726.479,336.812c5.038,5.02,11.984,8.126,19.656,8.126c15.371,0,27.834-12.458,27.838-27.83h-27.787
				L726.479,336.812z"/>
			<path fill="#00AEB3" d="M747.511,285.938v27.846h27.836v-0.006C775.347,298.406,762.882,285.943,747.511,285.938"/>
		</g>
		<g>
			<path fill="#033757" d="M70.962,324.172c2.107-5.781,6.418-10.752,12.431-13.549l10.138,21.773L70.962,324.172z"/>
			<path fill="#033757" d="M88.777,315.687l10.137,21.774l-22.564-8.229c-2.108,5.777-2.01,12.355,0.789,18.366
				c5.599,12.024,19.888,17.237,31.914,11.64c12.023-5.598,17.236-19.891,11.638-31.914
				C115.093,315.301,100.802,310.089,88.777,315.687"/>
		</g>
		<g>
			<path fill="#00AEB3" d="M339.078,159.871l15.642,27.092c-4.205,2.096-8.928,3.303-13.945,3.303
				c-17.325,0-31.374-14.049-31.374-31.375c0-16.666,13.001-30.256,29.414-31.273v31.273
				C338.815,159.228,338.903,159.564,339.078,159.871"/>
			<path fill="#033757" d="M342.445,127.615v29.633h29.605C371.074,140.82,358.871,128.591,342.445,127.615 M346.925,132.111
				c10.453,2.279,18.35,10.201,20.631,20.656h-20.631V132.111z"/>
			<path fill="#033757" d="M358.125,185.021c7.939-5.281,13.301-14.082,13.926-24.17h-27.879L358.125,185.021z"/>
		</g>
	</g>
	
	<line fill="none" stroke="#00AEB3" stroke-width="4" stroke-miterlimit="10" x1="78.99" y1="223.043" x2="778.99" y2="223.043"/>
	<g>
		<line fill="none" stroke="#033757" stroke-width="2" stroke-miterlimit="10" x1="78.99" y1="232.043" x2="78.99" y2="255.043"/>
		<circle fill="#00AEB3" cx="79.157" cy="255.236" r="3.833"/>
		<circle fill="#FF6106" cx="78.858" cy="223.736" r="10.128"/>
		<circle fill="#033757" cx="78.857" cy="223.736" r="7.895"/>
		
			<text transform="matrix(1.0322 0 0 1 70.2983 222.5625)" display="none" fill="#FFFFFF" font-family="'AGaramondPro-Bold'" font-size="14.8693">1</text>
	</g>
	<g>
		<line fill="none" stroke="#033757" stroke-width="2" stroke-miterlimit="10" x1="419.99" y1="192.043" x2="419.99" y2="215.043"/>
		<circle fill="#00AEB3" cx="420.157" cy="192.236" r="3.833"/>
		<circle fill="#FF6106" cx="419.872" cy="223.042" r="10.128"/>
		<circle fill="#033757" cx="419.872" cy="223.042" r="7.895"/>
		
			<text transform="matrix(1.0322 0 0 1 410.6562 222.5249)" display="none" fill="#FFFFFF" font-family="'Helvetica'" font-size="14.8693">2</text>
	</g>
	<g>
		<g>
			
				<line fill="none" stroke="#033757" stroke-width="2" stroke-miterlimit="10" x1="510.99" y1="230.043" x2="510.99" y2="253.043"/>
			<circle fill="#00AEB3" cx="511.157" cy="253.236" r="3.833"/>
		</g>
		<circle fill="#FF6106" cx="511.573" cy="223.042" r="10.128"/>
		<circle fill="#033757" cx="511.572" cy="223.042" r="7.895"/>
		
			<text transform="matrix(1.0322 0 0 1 502.1934 222.5254)" display="none" fill="#FFFFFF" font-family="'Helvetica'" font-size="14.8693">3</text>
	</g>
	<g>
		<g>
			
				<line fill="none" stroke="#033757" stroke-width="2" stroke-miterlimit="10" x1="640.99" y1="192.043" x2="640.99" y2="215.043"/>
			<circle fill="#00AEB3" cx="641.157" cy="192.236" r="3.833"/>
		</g>
		<circle fill="#FF6106" cx="641.02" cy="223.043" r="10.128"/>
		<circle fill="#033757" cx="641.02" cy="223.043" r="7.895"/>
		
			<text transform="matrix(1.0322 0 0 1 630.9844 222.5264)" display="none" fill="#FFFFFF" font-family="'Helvetica'" font-size="14.8693">4</text>
	</g>
	<g>
		<g>
			
				<line fill="none" stroke="#033757" stroke-width="2" stroke-miterlimit="10" x1="687.99" y1="231.043" x2="687.99" y2="254.043"/>
			<circle fill="#00AEB3" cx="688.157" cy="254.236" r="3.833"/>
		</g>
		<circle fill="#FF6106" cx="687.99" cy="223.043" r="10.128"/>
		<circle fill="#033757" cx="687.989" cy="223.043" r="7.895"/>
		
			<text transform="matrix(1.0322 0 0 1 678.7744 222.5259)" display="none" fill="#FFFFFF" font-family="'Helvetica'" font-size="14.8693">5</text>
	</g>
	<g>
		<g>
			<polygon fill="#033757" points="696.808,315.694 641.268,248 641.268,301.376 			"/>
			<polygon fill="#033757" points="585.832,315.694 641.374,248 641.374,301.376 			"/>
		</g>
		<circle fill="#033757" cx="641.292" cy="372.65" r="79.413"/>
		<circle fill="#FFFFFF" cx="641.292" cy="372.65" r="70.299"/>
		<g>
			<path opacity="0.06" fill="#FFFFFF" d="M640.914,452.338c0.102,0,0.076-0.008,0.076-0.008v-9.113c0,0,0.025,0.008-0.076,0.008
				c-38.826,0-70.188-31.474-70.188-70.301c0-38.825,31.305-70.299,70.131-70.299c0.102,0,0.133,0.008,0.133,0.008v-54.229
				l-55.375,67.564l0.236-0.053c-14.889,14.435-24.295,34.634-24.295,57.009C561.557,416.783,597.053,452.338,640.914,452.338z"/>
		</g>
	</g>
	<g>
		<g>
			<polygon fill="#033757" points="475.808,315.694 420.268,248 420.268,301.376 			"/>
			<polygon fill="#033757" points="364.832,315.694 420.374,248 420.374,301.376 			"/>
		</g>
		<circle fill="#033757" cx="420.292" cy="372.65" r="79.413"/>
		<circle fill="#FFFFFF" cx="420.292" cy="372.65" r="70.299"/>
		<g>
			<path opacity="0.06" fill="#FFFFFF" d="M419.914,452.338c0.102,0,0.076-0.008,0.076-0.008v-9.113c0,0,0.025,0.008-0.076,0.008
				c-38.826,0-70.188-31.474-70.188-70.301c0-38.825,31.305-70.299,70.131-70.299c0.102,0,0.133,0.008,0.133,0.008v-54.229
				l-55.375,67.564l0.236-0.053c-14.889,14.435-24.295,34.634-24.295,57.009C340.557,416.783,376.053,452.338,419.914,452.338z"/>
		</g>
	</g>
	<g>
		<polygon fill="#FF6106" points="687.99,204.048 743.649,136.484 688.273,150.789 632.672,136.484 687.99,204.048 687.99,204.178 
			687.99,204.113 687.99,204.178 		"/>
		<circle fill="#FF6106" cx="688.413" cy="79.527" r="79.413"/>
		<circle fill="#FFFFFF" cx="688.413" cy="79.527" r="70.3"/>
		<g>
			<path opacity="0.06" fill="#FFFFFF" d="M688.292,0c-0.102,0-0.2,0.007-0.302,0.008v9.113c0.102,0,0.2-0.008,0.302-0.008
				c38.826,0,70.3,31.474,70.3,70.3c0,38.826-31.474,70.299-70.3,70.299c-0.102,0-0.2-0.007-0.302-0.008v54.229l55.6-67.564
				l-0.123,0.053c14.889-14.434,24.238-34.633,24.238-57.009C767.705,35.555,732.152,0,688.292,0z"/>
		</g>
	</g>
	<g>
		<polygon fill="#FF6106" points="511.99,204.048 567.649,136.484 512.273,150.789 456.672,136.484 511.99,204.048 511.99,204.178 
			511.99,204.113 511.99,204.178 		"/>
		<circle fill="#FF6106" cx="512.413" cy="79.527" r="79.413"/>
		<circle fill="#FFFFFF" cx="512.413" cy="79.527" r="70.3"/>
		<g>
			<path opacity="0.06" fill="#FFFFFF" d="M512.292,0c-0.102,0-0.2,0.007-0.302,0.008v9.113c0.102,0,0.2-0.008,0.302-0.008
				c38.826,0,70.3,31.474,70.3,70.3c0,38.826-31.474,70.299-70.3,70.299c-0.102,0-0.2-0.007-0.302-0.008v54.229l55.6-67.564
				l-0.123,0.053c14.889-14.434,24.238-34.633,24.238-57.009C591.705,35.555,556.152,0,512.292,0z"/>
		</g>
	</g>
	<g>
		<polygon fill="#FF6106" points="78.99,204.048 134.649,136.484 79.273,150.789 23.672,136.484 78.99,204.048 78.99,204.178 
			78.99,204.113 78.99,204.178 		"/>
		<circle fill="#FF6106" cx="79.413" cy="79.527" r="79.413"/>
		<circle fill="#FFFFFF" cx="79.413" cy="79.527" r="70.3"/>
		<g>
			<path opacity="0.06" fill="#FFFFFF" d="M79.292,0c-0.102,0-0.2,0.007-0.302,0.008v9.113c0.102,0,0.2-0.008,0.302-0.008
				c38.826,0,70.3,31.474,70.3,70.3c0,38.826-31.474,70.299-70.3,70.299c-0.102,0-0.2-0.007-0.302-0.008v54.229l55.6-67.564
				l-0.123,0.053c14.889-14.434,24.238-34.633,24.238-57.009C158.705,35.555,123.152,0,79.292,0z"/>
		</g>
	</g>
	<text transform="matrix(1 0 0 1 58.7295 275.043)" fill="#FF6106" font-family="'Helvetica'" font-size="18">1991</text>
	<text transform="matrix(1 0 0 1 41.9902 44.043)" fill="#FF6106" font-family="'Helvetica'" font-size="18">19 AUG</text>
	<text transform="matrix(1 0 0 1 47.8955 74.5264)"><tspan x="0" y="0" fill="#033757" font-family="'Helvetica'" font-size="18">Born at </tspan><tspan x="-10.011" y="21.6" fill="#033757" font-family="'Helvetica'" font-size="18">Cuddalore</tspan></text>
	<text transform="matrix(1 0 0 1 369.5405 369.043)"><tspan x="0" y="0" fill="#033757" font-family="'Helvetica'" font-size="18">Passed SSC</tspan><tspan x="1.499" y="21.6" fill="#033757" font-family="'Helvetica'" font-size="18">Examination</tspan><tspan x="14.506" y="43.199" fill="#033757" font-family="'Helvetica'" font-size="18">with 84%</tspan></text>
	<text transform="matrix(1 0 0 1 401.7295 337.71)" fill="#FF6106" font-family="'Helvetica'" font-size="18">May</text>
	<text transform="matrix(1 0 0 1 460.0508 74.5264)"><tspan x="0" y="0" fill="#033757" font-family="'Helvetica'" font-size="18">Passed HSC</tspan><tspan x="1.995" y="21.6" fill="#033757" font-family="'Helvetica'" font-size="18">Examination</tspan><tspan x="15.003" y="43.2" fill="#033757" font-family="'Helvetica'" font-size="18">with 80%</tspan></text>
	<text transform="matrix(1 0 0 1 495.4102 44.043)" fill="#FF6106" font-family="'Helvetica'" font-size="18">May</text>
	<text transform="matrix(1 0 0 1 597.8496 369.043)"><tspan x="0" y="0" fill="#033757" font-family="'Helvetica'" font-size="18">B. Sc. C.S.</tspan><tspan x="15.988" y="21.6" fill="#033757" font-family="'Helvetica'" font-size="18">degree</tspan><tspan x="7.493" y="43.2" fill="#033757" font-family="'Helvetica'" font-size="18">with 77%</tspan></text>
	<text transform="matrix(1 0 0 1 624.8584 338.043)" fill="#FF6106" font-family="'Helvetica'" font-size="18">May</text>
	<text transform="matrix(1 0 0 1 641.1396 74.5264)" fill="#033757" font-family="'Helvetica'" font-size="18">Joined TCS</text>
	<text transform="matrix(1 0 0 1 672.4043 44.043)" fill="#FF6106" font-family="'Helvetica'" font-size="18">July</text>
	<text transform="matrix(1 0 0 1 400.1455 185.002)" fill="#FF6106" font-family="'Helvetica'" font-size="18">2007</text>
	<text transform="matrix(1 0 0 1 490.7305 275.043)" fill="#FF6106" font-family="'Helvetica'" font-size="18">2009</text>
	<text transform="matrix(1 0 0 1 621.3965 186.0435)" fill="#FF6106" font-family="'Helvetica'" font-size="18">2012</text>
	<text transform="matrix(1 0 0 1 669.0371 275.043)" fill="#FF6106" font-family="'Helvetica'" font-size="18">2012</text>
</g>
</svg>
