<?xml version="1.0" encoding="utf-8"?>
<!-- Generator: Adobe Illustrator 15.0.0, SVG Export Plug-In . SVG Version: 6.00 Build 0)  -->
<!DOCTYPE svg PUBLIC "-//W3C//DTD SVG 1.1//EN" "http://www.w3.org/Graphics/SVG/1.1/DTD/svg11.dtd">
<svg version="1.1" xmlns="http://www.w3.org/2000/svg" xmlns:xlink="http://www.w3.org/1999/xlink" x="0px" y="0px"
     width="60%" height="300px" viewBox="0 0 191.969 234.173" enable-background="new 0 0 191.969 234.173"
     xml:space="preserve">

<g id="Layer_2">
	<g>
		<path fill="#754C24" d="M141.27,138.816c0,37.753-35.34,68.357-54.002,68.357c-20.566,0-54.002-30.604-54.002-68.357
			c0-37.752,24.178-50.643,54.002-50.643C117.093,88.173,141.27,101.064,141.27,138.816z"/>
		<g>
			<path fill="#EEC3A1" d="M87.268,91.173c-28.32,0-51.279,12.24-51.279,48.09c0,29.808,21.947,54.904,40.572,62.523
				c3.774,1.544,7.416,2.387,10.707,2.387c2.897,0,6.223-0.79,9.751-2.247c18.051-7.452,41.528-32.677,41.528-62.663
				C138.547,103.414,115.589,91.173,87.268,91.173z"/>
		</g>
		<g>
			<circle cx="61.303" cy="138.192" r="4.411"/>
			<circle fill="#FFFFFF" cx="61.723" cy="137.352" r="1.26"/>
		</g>
		<g>
			<circle cx="111.303" cy="138.192" r="4.411"/>
			<circle fill="#FFFFFF" cx="111.723" cy="137.352" r="1.26"/>
		</g>
		<g>
			<g>
				<path fill="#754C24" d="M55.284,135.43c2.994-5.447,7.973-3.78,11.394,0.304c1.244,1.484,3.354-0.649,2.121-2.121
					c-4.696-5.606-12.21-6.783-16.106,0.304C51.761,135.613,54.352,137.125,55.284,135.43L55.284,135.43z"/>
			</g>
		</g>
		<g>
			<g>
				<path fill="#754C24" d="M120.033,133.916c-3.896-7.087-11.409-5.91-16.105-0.304c-1.233,1.472,0.877,3.605,2.121,2.121
					c3.421-4.084,8.399-5.751,11.395-0.304C118.375,137.125,120.966,135.613,120.033,133.916L120.033,133.916z"/>
			</g>
		</g>
		<g>
			<g>
				<path fill="#8C6239" d="M83.377,152.106c-1.62,3.666-3.24,7.333-4.86,11c-0.333,0.754,0.046,1.692,0.972,1.692
					c2.167,0,4.333,0,6.5,0c1.451,0,1.451-2.25,0-2.25c-2.167,0-4.333,0-6.5,0c0.324,0.564,0.647,1.129,0.972,1.692
					c1.62-3.666,3.24-7.333,4.86-11C85.9,151.927,83.963,150.781,83.377,152.106L83.377,152.106z"/>
			</g>
		</g>
		<g>
			<path fill="#CC5E5C" d="M103.678,167.518c-4.333,11.22-16.996,16.862-28.428,12.607c-1.059-0.395-2.071-0.862-3.032-1.392
				c1.844,1.2,3.901,2.248,6.139,3.081c11.257,4.189,22.688,1.397,25.528-6.237C104.838,173.019,104.699,170.24,103.678,167.518z"/>
			<g>
				<path fill="#FFFFFF" d="M103.143,171.123c-0.698,0.968-1.606,2.54-2.439,3.469c-6.089,6.782-12.605,7.881-17.879,7.643
					c5.396,1.779,12.889,0.51,16.748-3.551C101.435,176.724,102.681,173.673,103.143,171.123z"/>
			</g>
		</g>
		<path fill="#754C24" d="M191.283,92.335c-5.109-1.48-20.476-6.209-25.794-10.945c-4.809-4.268-10.212-9.137-12.632-11.319
			c-0.709-0.642-0.511-1.126,0.449-1.112c19.411,0.301,26.668-8.159,28.853-11.714c0.508-0.814,0.06-1.308-0.863-1.052
			c-6.002,1.648-26.458,6.473-32.218-2.623c-4.689-7.401-8.354-11.561-10.168-13.422c-0.668-0.686-0.547-1.545,0.237-2.091
			c11.077-7.698,15.784-35.701,10.997-24.082c-4.183,10.159-20.876,17.063-26.186,19.038c-0.898,0.333-0.936,0.229-0.186-0.365
			c5.001-3.958,10.756-15.118,12.777-19.251c0.429-0.858,0.159-1.062-0.583-0.457c-3.981,3.243-15.777,12.544-20.78,12.985
			c-4.735,0.418-13.815,2.466-17.571,3.344c-0.929,0.218-1.049-0.068-0.539-0.882c2.615-4.178,4.43-15.785,5.046-20.183
			c0.133-0.949,0.154-0.945-0.072-0.015c-0.914,3.685-4.513,12.547-18.611,18.627c-9.358,4.039-19.896,13.251-20.346,13.418
			c5.559-13.368,2.756-33.583,1.753-39.535c-0.162-0.943-0.384-0.933-0.507,0.02c-0.809,6.411-4.416,28.917-15.817,36.943
			c-0.783,0.551-2.145,1.299-2.938,1.838c-7.223,4.919-10.586,14.031-12.148,21.261c-1.114,1.355-2.085,7.453-3.102,8.911
			c-0.826-4.342-1.149-14.717,1.743-18.958c4.262-6.252,3.347-17.25,3.246-23.768c-0.295,3.988-1.147,6.902-10.737,20.916
			c-11.25,16.44-6.871,32.881-4.787,38.572c-0.09,0.285-0.193,0.554-0.287,0.842c-0.236,0.761-0.46,1.523-0.668,2.285
			c-11.922,7.326,0.74,12.919-7.101,21.438c-6.155,6.692-9.302,1.929-10.485-0.86c-0.373-0.884-0.775-0.888-0.951,0.057
			c-1.887,10.137,5.41,11.695,8.875,11.88c0.959,0.047,1.376,0.669,0.951,1.53c-13.786,28.016-2.471,46.959,1.248,52.025
			c0.567,0.771,0.83,0.621,0.632-0.319c-1.265-5.864-1.14-16.651-1.035-20.846c0.026-0.958,0.216-0.972,0.46-0.046
			c0.992,3.72,3.92,12.864,10.295,20.072c6.688,7.561,6.264,21.279,5.878,26.096c-0.075,0.955,0.562,1.399,1.192,0.68
			c3.069-3.476,4.442-13.218,4.885-17.201c0.107-0.952,0.715-1.158,1.207-0.338c4.416,7.354,4.196,27.263,4.024,33.262
			c-0.029,0.959,0.129,0.982,0.37,0.053l5.195-20.184c0.241-0.927,0.665-0.938,0.948-0.022l3.967,12.74
			c0.284,0.914,0.583,0.882,0.669-0.073l0.42-20.832c3.219,3.084,13.476,10.5,20.625,14.25s16.051,5.073,18.625,4.875
			c8.125-0.625,17.704-6.738,20.725-8.271l-1.26,15.326c-0.041,0.955,0.572,2.155,1.424,2.596
			c5.225,2.698,14.133,4.773,17.845,5.566c0.938,0.202,0.962,0.087,0.15-0.429c-5.754-3.646-10.51-15.081-12.127-19.353
			c-0.337-0.896-0.161-0.982,0.409-0.215c2.342,3.135,8.641,10.662,17.547,14.279c8.812,3.58,15.504,9.927,18.091,12.636
			c0.664,0.69,1.114,0.494,0.862-0.431c-0.657-2.445-2.737-7.503-9.32-15.059c-7.854-9.02-7.879-23.018-7.622-27.878
			c0.05-0.956,0.464-1.026,0.905-0.179c6.743,12.896,17.61,19.973,21.597,22.245c0.833,0.472,1.042,0.208,0.514-0.591
			c-5.793-8.808-7.901-25.081-8.461-30.394c-0.091-0.954,0.333-1.124,0.993-0.432c3.555,3.738,8.129,6.367,10.485,7.578
			c0.854,0.438,1.095,0.135,0.56-0.659c-2.542-3.764-8.885-14.396-6.943-24.06c0.305-0.255,0.606-0.52,0.9-0.8
			c2.229-2.092,3.919-4.578,5.107-7.369c0.289-0.68,0.548-1.361,0.792-2.045c5.229,11.392,7.792,21.813,8.647,25.783
			c0.202,0.936,0.642,0.982,0.888,0.053c2.812-10.734-2.979-33.504-4.711-39.844c-0.253-0.926,0.096-1.131,0.861-0.553
			c5.257,3.983,13.693,5.823,17.29,6.461c0.944,0.166,1.11-0.223,0.407-0.873c-3.46-3.195-12.605-12.816-12.605-25.253
			c0-12.149-8.056-19.378-11.404-21.853c-0.771-0.572-0.716-0.687,0.193-0.389c10.848,3.528,24.16,0.941,28.793-0.158
			C192.199,93.019,192.199,92.603,191.283,92.335 M24.945,153.218c-3.824-3.161-5.979-10.74-4.353-15.402
			c0.335-0.969,1.018-1.816,1.743-3.077c0.69,1.407,1.121,2.332,1.595,3.239c0.77,1.467,1.401,3.038,2.38,4.354
			c1.821,2.439,2.238,5.238,2.579,8.113c0.165,1.383,0.45,2.756,0.69,4.149C27.59,155.254,26.224,154.279,24.945,153.218
			 M92.983,205.003c-9.172,1.39-19.168-2.771-26.995-7.5c-12.237-7.401-18.859-19.693-24.162-32.779
			c-2.721-6.707-4.331-13.693-4.953-20.916c-0.07-0.809-0.434-1.673-0.895-2.355c-3.219-4.809-0.18-8.308-1.934-13.701
			c1.398-0.162,0.223-1.795,1.943-1.727c23.311,0.885,32.305-10.962,35.703-15.069c0.612-0.74,0.409-0.938-0.456-0.524
			c-5.429,2.598-17.905,4.867-22.468,5.638c-0.941,0.159-1.128-0.235-0.378-0.833c2.606-2.079,8.714-6.459,15.433-7.801
			c5.872-1.178,9.889-2.506,11.947-3.277c0.898-0.334,2.365-0.826,3.303-1.024c25.673-5.425,39.997,4.555,44.125,8.104
			c0.729,0.627,1.022,0.451,0.689-0.448c-0.309-0.833-0.601-1.554-0.849-2.134c-0.374-0.882-0.028-1.215,0.772-0.689
			c6.768,4.425,13.564,12.847,14.432,16.855c3.027,13.994,0.58,25.875,0.305,27.852c-0.86,6.17-3.687,10.921-7.575,18.525
			c-3.728,7.28-9.071,13.209-14.742,19.099C112.982,193.669,101.929,203.652,92.983,205.003"/>
		<path fill="#EEC3A1" d="M21.334,148.591c0.938,2.328,2.3,4.402,3.945,5.742c1.395,1.137,2.884,2.184,5.055,1.477
			c-0.262-1.496-0.572-2.969-0.752-4.453c-0.373-3.084-0.826-6.087-2.813-8.704c-1.065-1.411-1.755-3.098-2.594-4.671
			c-0.518-0.973-0.987-1.965-1.74-3.475c-0.792,1.354-1.536,2.264-1.9,3.302C19.459,140.837,19.895,145.014,21.334,148.591"/>
		<path fill="#EEC3A1" d="M151.936,148.591c-0.938,2.328-2.3,4.402-3.945,5.742c-1.395,1.137-2.884,2.184-5.055,1.477
			c0.262-1.496,0.572-2.969,0.752-4.453c0.373-3.084,0.826-6.087,2.813-8.704c1.065-1.411,1.755-3.098,2.594-4.671
			c0.518-0.973,0.987-1.965,1.74-3.475c0.792,1.354,1.536,2.264,1.9,3.302C153.811,140.837,153.374,145.014,151.936,148.591"/>
		<path fill="#EEC3A1" d="M68.486,217.837"/>
		<path fill="#C18A59" d="M78.988,202.682v11.95c4.708-3.152,10.136-5.366,16-6.358v-5.582c-2.771,0.961-5.387,1.481-7.721,1.481
			C84.688,204.173,81.893,203.649,78.988,202.682z"/>
		<g display="none">
			<path display="inline" fill="#EEC3A1" d="M76.561,201.787c-0.71,4.056-1.145,10.116-3.058,19.053
				c-4.64,21.667,3.68,19.656,13.978,20c8.827,0.295,17.129,0.232,12.697-21.333c-1.684-8.19-2.388-13.78-3.159-17.58
				c-3.528,1.457-6.854,2.247-9.751,2.247C83.977,204.173,80.335,203.331,76.561,201.787z"/>
			<path display="inline" fill="#C18A59" d="M98.169,208.543c-0.44-2.653-0.788-4.835-1.15-6.617
				c-3.528,1.457-6.854,2.247-9.751,2.247c-3.291,0-6.933-0.843-10.707-2.387c-0.71,4.056-1.145,10.116-3.058,19.053
				c-0.142,0.659-0.27,1.295-0.387,1.911C78.043,216.194,87.06,211.042,98.169,208.543z"/>
		</g>
	</g>
	<path fill="#EEC3A1" d="M94.988,234.173v-25.899c-5.864,0.992-11.292,3.206-16,6.358v19.541H94.988z"/>
</g>
</svg>
