<?xml version="1.0" encoding="utf-8"?>
<!-- Generator: Adobe Illustrator 15.0.0, SVG Export Plug-In . SVG Version: 6.00 Build 0)  -->
<!DOCTYPE svg PUBLIC "-//W3C//DTD SVG 1.1//EN" "http://www.w3.org/Graphics/SVG/1.1/DTD/svg11.dtd">
<svg version="1.1" xmlns="http://www.w3.org/2000/svg" xmlns:xlink="http://www.w3.org/1999/xlink" x="0px" y="0px" width="800px"
	 height="600px" viewBox="0 0 800 600" enable-background="new 0 0 800 600" xml:space="preserve">

<g id="Layer_3">
	<g display="inline">
		<g>
			<polygon fill="#033757" points="370.793,120.301 395.874,107.986 395.874,81.448 370.455,68.012 346.271,81.561 346.271,107.986 
							"/>
			<polygon fill="#033757" points="424.24,120.301 449.323,107.986 449.323,81.448 423.904,68.012 399.718,81.561 399.718,107.986 
							"/>
			<polygon fill="#033757" points="396.77,77.604 421.852,65.288 421.852,38.751 396.431,25.313 372.248,38.862 372.248,65.288 			
				"/>
		</g>
		<g>
			<polygon fill="#00AEB3" points="370.793,206.919 395.874,194.604 395.874,168.067 370.455,154.63 346.271,168.18 
				346.271,194.604 			"/>
			<polygon fill="#00AEB3" points="424.24,206.919 449.323,194.604 449.323,168.067 423.904,154.63 399.718,168.18 399.718,194.604 
							"/>
			<polygon fill="#00AEB3" points="396.77,164.223 421.852,151.906 421.852,125.37 396.431,111.933 372.248,125.481 
				372.248,151.906 			"/>
		</g>
		<g>
			<polygon fill="#FF6106" points="452.933,165.104 478.013,152.789 478.013,126.251 452.594,112.814 428.41,126.363 
				428.41,152.789 			"/>
			<polygon fill="#FF6106" points="506.379,165.104 531.461,152.789 531.461,126.251 506.042,112.814 481.856,126.363 
				481.856,152.789 			"/>
			<polygon fill="#FF6106" points="478.908,122.407 503.99,110.09 503.99,83.554 478.569,70.116 454.387,83.665 454.387,110.09 			
				"/>
		</g>
	</g>
	<g display="inline">
		<path opacity="0.1098" d="M355.436,348.403v-4.638h51.83v4.638H355.436 M439.416,348.403v-4.638h51.84v4.638H439.416
			 M272.977,346.078v-4.57h51.115v4.57H272.977 M439.416,338.954v-4.65h51.84v4.65H439.416 M272.977,336.75v-4.57h51.115v4.57
			H272.977 M355.798,336.75v-4.57h51.117v4.57H355.798 M439.416,329.492v-4.637h51.84v4.637H439.416 M272.977,327.436v-4.584h51.115
			v4.584H272.977 M355.798,327.436v-4.584h51.117v4.584H355.798 M454.388,319.45l8.724-17.929l8.736,17.929H454.388
			 M298.018,317.528c-4.731,0-8.562-3.829-8.562-8.548c0-4.718,3.832-8.562,8.562-8.562c4.716,0,8.547,3.845,8.547,8.562
			C306.565,313.699,302.734,317.528,298.018,317.528 M371.402,317.528v-17.204h17.207v17.204H371.402"/>
		<path opacity="0.1098" d="M530.61,366.347c-1.242,0-2.336,0.66-2.94,1.652c-0.317,0.521-0.499,1.132-0.499,1.788
			c0,1.896,1.544,3.427,3.439,3.427s3.442-1.531,3.442-3.427c0-0.656-0.184-1.267-0.499-1.788
			C532.947,367.007,531.855,366.347,530.61,366.347"/>
		<path opacity="0.1098" d="M300.719,286.548v-8.763h39.65v8.763H300.719 M447.385,272.154c-23.158,0-41.922-18.764-41.922-41.936
			c0-23.16,18.764-41.922,41.922-41.922c23.159,0,41.935,18.763,41.935,41.922C489.319,253.39,470.544,272.154,447.385,272.154
			 M533.583,180.285H381.726l-18.656,15.512h22.769v13.776h-39.354l-10.537,8.762h11.088V232.1h-27.648l-12.809,10.645h76.142v5.631
			h-82.916l-5.283,4.381h88.198v5.632h-94.973l-5.269,4.381h91.479v5.632h-98.253l-31.882,26.493h289.76V180.285"/>
		<polyline opacity="0.1098" points="385.838,195.797 363.063,195.797 346.487,209.573 385.838,209.573 385.838,195.797 		"/>
		<polyline opacity="0.1098" points="347.036,218.335 335.942,218.335 319.384,232.1 347.036,232.1 347.036,218.335 		"/>
		<polyline opacity="0.1098" points="382.72,242.745 306.576,242.745 299.8,248.376 382.72,248.376 382.72,242.745 		"/>
		<polyline opacity="0.1098" points="382.72,252.757 294.526,252.757 287.75,258.389 382.72,258.389 382.72,252.757 		"/>
		<polyline opacity="0.1098" points="373.958,262.771 282.479,262.771 275.704,268.403 373.958,268.403 373.958,262.771 		"/>
		<polyline opacity="0.1098" points="324.092,322.852 272.977,322.852 272.977,327.436 324.092,327.436 324.092,322.852 		"/>
		<polyline opacity="0.1098" points="324.092,332.18 272.977,332.18 272.977,336.75 324.092,336.75 324.092,332.18 		"/>
		<polyline opacity="0.1098" points="324.092,341.508 272.977,341.508 272.977,346.078 324.092,346.078 324.092,341.508 		"/>
		<polyline opacity="0.1098" points="406.915,322.852 355.798,322.852 355.798,327.436 406.915,327.436 406.915,322.852 		"/>
		<polyline opacity="0.1098" points="406.915,332.18 355.798,332.18 355.798,336.75 406.915,336.75 406.915,332.18 		"/>
		<polyline opacity="0.1098" points="407.266,343.766 355.436,343.766 355.436,348.403 407.266,348.403 407.266,343.766 		"/>
		<polyline opacity="0.1098" points="491.256,324.855 439.416,324.855 439.416,329.492 491.256,329.492 491.256,324.855 		"/>
		<polyline opacity="0.1098" points="491.256,334.304 439.416,334.304 439.416,338.954 491.256,338.954 491.256,334.304 		"/>
		<polyline opacity="0.1098" points="491.256,343.766 439.416,343.766 439.416,348.403 491.256,348.403 491.256,343.766 		"/>
		<path opacity="0.1098" d="M447.385,188.296c-23.158,0-41.922,18.763-41.922,41.922c0,23.171,18.764,41.936,41.922,41.936
			c23.159,0,41.935-18.764,41.935-41.936C489.319,207.059,470.544,188.296,447.385,188.296"/>
		<polyline opacity="0.1098" points="340.369,277.785 300.719,277.785 300.719,286.548 340.369,286.548 340.369,277.785 		"/>
		<path opacity="0.1098" d="M298.018,300.418c-4.731,0-8.562,3.845-8.562,8.562c0,4.719,3.832,8.548,8.562,8.548
			c4.716,0,8.547-3.829,8.547-8.548C306.565,304.263,302.734,300.418,298.018,300.418"/>
		<polyline opacity="0.1098" points="388.609,300.325 371.402,300.325 371.402,317.528 388.609,317.528 388.609,300.325 		"/>
		<polyline opacity="0.1098" points="463.111,301.521 454.388,319.45 471.848,319.45 463.111,301.521 		"/>
		<polyline opacity="0.1098" points="363.063,195.797 272.561,195.797 272.561,209.573 346.487,209.573 363.063,195.797 		"/>
		<polyline opacity="0.1098" points="335.942,218.335 272.561,218.335 272.561,232.1 319.384,232.1 335.942,218.335 		"/>
		<polyline opacity="0.1098" points="306.576,242.745 272.561,242.745 272.561,248.376 299.8,248.376 306.576,242.745 		"/>
		<polyline opacity="0.1098" points="294.526,252.757 272.561,252.757 272.561,258.389 287.75,258.389 294.526,252.757 		"/>
		<polyline opacity="0.1098" points="282.479,262.771 272.561,262.771 272.561,268.403 275.704,268.403 282.479,262.771 		"/>
		<path fill="#033757" d="M555.139,370.093H243.011c-3.255,0-5.897-2.642-5.897-5.897V170.633c0-3.254,2.642-5.896,5.897-5.896
			h312.127c3.255,0,5.897,2.643,5.897,5.896v193.562C561.036,367.451,558.394,370.093,555.139,370.093z"/>
		<path fill="#033757" d="M555.139,170.633v193.562H243.011V170.633H555.139 M555.139,158.84H243.011
			c-6.513,0-11.792,5.28-11.792,11.793v193.562c0,6.514,5.28,11.793,11.792,11.793h312.128c6.51,0,11.789-5.279,11.789-11.793
			V170.633C566.928,164.12,561.648,158.84,555.139,158.84z"/>
		<polygon fill="#CCCCCC" points="553.258,356.005 551.353,356.005 247.8,356.005 245.896,356.005 245.896,354.102 245.896,176.476 
			245.896,174.57 247.8,174.57 551.353,174.57 553.258,174.57 553.258,176.476 553.258,354.102 		"/>
		<path fill="#F2F2F2" d="M551.35,176.473V354.1H247.802V176.473H551.35 M555.158,172.666h-3.809H247.802h-3.808v3.807V354.1v3.81
			h3.808H551.35h3.809v-3.81V176.473V172.666z"/>
		<rect x="366.222" y="375.034" fill="#032B3F" width="66.864" height="41.871"/>
		<path fill="#033757" d="M332.476,412.282c0,0-0.235-2.644,4.802-2.644c13.096,0,124.909,0.103,124.909,0.103
			s4.795-0.251,4.795,2.651c0,1.803,0,5.259,0,5.259s-0.114,2.689-5.615,2.689c-18.819,0-124.089,0.044-124.089,0.044
			s-4.802,0.12-4.802-2.654C332.476,415.222,332.476,412.282,332.476,412.282z"/>
		<path fill="#FFFFFF" d="M551.815,365.975c0,1.897-1.537,3.436-3.433,3.436c-1.902,0-3.441-1.538-3.441-3.436
			s1.539-3.439,3.441-3.439C550.278,362.535,551.815,364.077,551.815,365.975z"/>
		<rect x="247.802" y="176.473" fill="#FFFFFF" width="303.547" height="114.618"/>
		<rect x="290.331" y="191.993" fill="#FF6106" width="113.283" height="13.77"/>
		<rect x="290.331" y="214.524" fill="#FF6106" width="74.48" height="13.771"/>
		<rect x="290.331" y="238.934" fill="#FF6106" width="110.153" height="5.633"/>
		<rect x="290.331" y="248.947" fill="#FF6106" width="110.153" height="5.633"/>
		<rect x="290.331" y="258.961" fill="#FF6106" width="101.391" height="5.633"/>
		<rect x="290.748" y="319.045" fill="#FFFFFF" width="51.12" height="4.579"/>
		<rect x="290.748" y="328.369" fill="#FFFFFF" width="51.12" height="4.58"/>
		<rect x="290.748" y="337.694" fill="#FFFFFF" width="51.12" height="4.579"/>
		<rect x="373.567" y="319.045" fill="#FFFFFF" width="51.12" height="4.579"/>
		<rect x="373.567" y="328.369" fill="#FFFFFF" width="51.12" height="4.58"/>
		<rect x="373.206" y="339.951" fill="#FFFFFF" width="51.835" height="4.643"/>
		<rect x="457.188" y="321.041" fill="#FFFFFF" width="51.832" height="4.643"/>
		<rect x="457.188" y="330.497" fill="#FFFFFF" width="51.832" height="4.644"/>
		<rect x="457.188" y="339.951" fill="#FFFFFF" width="51.832" height="4.643"/>
		<circle fill="#FF6106" cx="465.161" cy="226.416" r="41.934"/>
		<rect x="318.494" y="273.983" fill="#00AEB3" width="39.64" height="8.762"/>
		<circle fill="#FFFFFF" cx="315.783" cy="305.174" r="8.554"/>
		<rect x="389.167" y="296.515" fill="#FFFFFF" width="17.212" height="17.212"/>
		<polygon fill="#FFFFFF" points="472.162,315.647 489.614,315.647 480.887,297.718 		"/>
		<polygon opacity="0.23" fill="#FFFFFF" points="247.802,176.473 247.802,302.547 399.498,176.473 		"/>
	</g>
	<g display="inline">
		<path fill="#033757" d="M62.289,420.066V304.718c0,0-0.556-7.35,7.225-7.35s188.411,0,188.411,0s6.67,0,6.67,6.781
			c0,6.787,0,115.917,0,115.917s0.791,7.637-7.504,7.637c-9.17,0-179.795,0-187.576,0S62.289,420.066,62.289,420.066z"/>
		<rect x="73.715" y="306.88" fill="#FFFFFF" width="173.294" height="111.486"/>
		<path fill="#E6E6E6" d="M247.651,306.24v112.766H73.077V306.24H247.651 M246.374,307.517H74.355v110.211h172.018V307.517z"/>
		<path fill="#FFFFFF" d="M258.202,374.104c0,1.413-1.144,2.557-2.555,2.557c-1.415,0-2.558-1.144-2.558-2.557V350.23
			c0-1.414,1.144-2.556,2.558-2.556c1.412,0,2.555,1.142,2.555,2.556V374.104z"/>
		<rect x="98.889" y="336.901" fill="#FF6106" width="51.519" height="6.098"/>
		<rect x="98.889" y="347.74" fill="#FF6106" width="43.222" height="6.103"/>
		<rect x="98.889" y="360.426" fill="#FF6106" width="51.519" height="3.288"/>
		<rect x="98.889" y="366.272" fill="#FF6106" width="43.222" height="3.289"/>
		<path fill="#FF6106" d="M230.349,364.871c0,17.837-14.463,32.298-32.299,32.298c-17.838,0-32.3-14.461-32.3-32.298
			c0-17.843,14.461-32.301,32.3-32.301C215.886,332.57,230.349,347.028,230.349,364.871z"/>
		<rect x="98.889" y="383.821" fill="#00AEB3" width="43.661" height="7.379"/>
		<rect x="73.077" y="306.24" fill="#00AEB3" width="174.575" height="15.146"/>
		<polygon fill="#00AEB3" points="163.994,406.231 159.104,411.124 154.214,406.231 153.268,407.177 159.104,413.017 
			164.94,407.177 		"/>
		<polygon opacity="0.23" fill="#FFFFFF" points="73.077,306.24 73.077,358.584 158.729,306.24 		"/>
	</g>
	<g display="inline">
		<path fill="#033757" d="M256.277,392.269h63.102c0,0,4.021-0.361,4.021,4.676c0,5.03,0,121.908,0,121.908s0,4.313-3.71,4.313
			c-3.713,0-63.413,0-63.413,0s-4.177,0.514-4.177-4.854c0-5.932,0-116.337,0-121.367
			C252.101,391.907,256.277,392.269,256.277,392.269z"/>
		<rect x="256.861" y="401.699" fill="#FFFFFF" width="61.683" height="108.2"/>
		<path fill="#4D4D4D" d="M290.726,397.341c0,1.453-1.178,2.637-2.634,2.637c-1.458,0-2.639-1.184-2.639-2.637
			c0-1.456,1.18-2.638,2.639-2.638C289.547,394.703,290.726,395.885,290.726,397.341z"/>
		<path fill="#F2F2F2" d="M287.257,397.341c0-0.459,0.371-0.834,0.834-0.834c0.458,0,0.831,0.375,0.831,0.834
			c0,0.458-0.373,0.831-0.831,0.831C287.628,398.172,287.257,397.799,287.257,397.341z"/>
		<circle fill="#FFFFFF" cx="288.07" cy="516.257" r="4.184"/>
		<rect x="263.438" y="476.609" fill="#FF6106" width="43.998" height="5.891"/>
		<rect x="263.438" y="487.082" fill="#FF6106" width="36.913" height="5.895"/>
		<path fill="#FF6106" d="M313.118,444.287c0,13.716-11.122,24.841-24.84,24.841c-13.719,0-24.84-11.125-24.84-24.841
			c0-13.72,11.121-24.84,24.84-24.84C301.997,419.447,313.118,430.567,313.118,444.287z"/>
		<rect x="263.06" y="498.695" fill="#00AEB3" width="46.868" height="6.672"/>
		<rect x="256.861" y="401.699" fill="#00AEB3" width="61.683" height="11.924"/>
		<polyline fill="#FFFFFF" points="259.659,404.668 269.444,404.668 269.444,403.701 259.659,403.701 		"/>
		<polyline fill="#FFFFFF" points="259.659,410.619 269.444,410.619 269.444,409.651 259.659,409.651 		"/>
		<polyline fill="#FFFFFF" points="259.659,407.552 269.444,407.552 269.444,406.584 259.659,406.584 		"/>
		<polygon opacity="0.23" fill="#FFFFFF" points="256.861,401.699 318.544,401.699 256.861,464.904 		"/>
	</g>
	<g display="inline">
		<g>
			<path fill="#F9F9F9" d="M424.209,493.494c-0.673,0-1.215-0.544-1.215-1.215v-8.219c0-0.672,0.542-1.214,1.215-1.214h13.441
				c0.668,0,1.215,0.542,1.215,1.214v8.219c0,0.671-0.547,1.215-1.215,1.215H424.209z"/>
			<path fill="#033757" d="M437.65,484.061v8.219h-13.441v-8.219H437.65 M437.65,481.631h-13.441c-1.342,0-2.43,1.089-2.43,2.43
				v8.219c0,1.341,1.088,2.433,2.43,2.433h13.441c1.341,0,2.43-1.092,2.43-2.433v-8.219
				C440.08,482.72,438.991,481.631,437.65,481.631L437.65,481.631z"/>
		</g>
		<g>
			<g>
				<path fill="#F9F9F9" d="M471.459,496.646c-1.537,0-2.744-1.061-2.744-2.412v-0.15l4.337-21.748
					c0.095-1.242,1.136-2.227,2.403-2.227h26.521c1.265,0,2.31,0.984,2.402,2.227l4.344,21.748v0.15c0,1.352-1.21,2.412-2.754,2.412
					H471.459z"/>
				<path fill="#033757" d="M501.976,471.629c0.495,0,0.892,0.401,0.892,0.894l4.333,21.712c0,0.492-0.551,0.894-1.232,0.894
					h-34.509c-0.678,0-1.225-0.401-1.225-0.894l4.328-21.712c0-0.492,0.397-0.894,0.893-0.894H501.976 M501.976,468.589h-26.521
					c-2.03,0-3.707,1.552-3.907,3.529l-4.296,21.522l-0.058,0.295v0.299c0,2.206,1.873,3.932,4.265,3.932h34.509
					c2.395,0,4.272-1.726,4.272-3.932v-0.299l-0.061-0.295l-4.294-21.522C505.685,470.141,504.005,468.589,501.976,468.589
					L501.976,468.589z"/>
			</g>
			<g>
				<path fill="#00AEB3" d="M502.958,482.657l-1.831-9.2c0-0.417-0.335-0.755-0.756-0.755h-23.312c-0.417,0-0.756,0.338-0.756,0.755
					l-1.834,9.2H502.958z"/>
			</g>
		</g>
		<path fill="#033757" d="M540.836,555.067c0,6.883-5.568,12.451-12.446,12.451H417.922c-6.874,0-12.448-5.568-12.448-12.451
			v-54.449c0-6.879,5.574-12.444,12.448-12.444H528.39c6.878,0,12.446,5.565,12.446,12.444V555.067z"/>
		<rect x="405.474" y="511.896" fill="#00AEB3" width="135.362" height="32.705"/>
		<path fill="#FFFFFF" stroke="#033757" stroke-width="2.5301" stroke-miterlimit="10" d="M533.833,527.844
			c0,24.915-20.205,45.119-45.12,45.119c-24.91,0-45.119-20.204-45.119-45.119c0-24.916,20.209-45.116,45.119-45.116
			C513.628,482.728,533.833,502.928,533.833,527.844z"/>
		<g>
			<path fill="#033757" d="M528.39,527.844c0,21.917-17.775,39.675-39.677,39.675c-21.905,0-39.674-17.758-39.674-39.675
				c0-21.914,17.769-39.67,39.674-39.67C510.614,488.174,528.39,505.93,528.39,527.844z"/>
		</g>
		<g>
			<path fill="#033757" d="M545.593,496.051c-3.12,0-5.652,2.532-5.652,5.654c0,3.125,2.532,5.656,5.652,5.656
				c3.125,0,5.659-2.531,5.659-5.656C551.252,498.583,548.718,496.051,545.593,496.051z M545.593,504.985
				c-1.808,0-3.277-1.467-3.277-3.28c0-1.809,1.47-3.277,3.277-3.277c1.812,0,3.282,1.469,3.282,3.277
				C548.875,503.519,547.404,504.985,545.593,504.985z"/>
		</g>
		<g>
			<path fill="#033757" d="M399.819,496.051c-3.124,0-5.656,2.532-5.656,5.654c0,3.125,2.532,5.656,5.656,5.656
				c3.122,0,5.654-2.531,5.654-5.656C405.474,498.583,402.941,496.051,399.819,496.051z M399.819,504.985
				c-1.812,0-3.278-1.467-3.278-3.28c0-1.809,1.467-3.277,3.278-3.277s3.28,1.469,3.28,3.277
				C403.1,503.519,401.631,504.985,399.819,504.985z"/>
		</g>
		<rect x="427.029" y="477.987" fill="#033757" width="7.803" height="4.708"/>
		<circle fill="#94CDDD" cx="488.712" cy="527.846" r="33.507"/>
		<g>
			<path fill="#F9FDFC" d="M494.142,557.994c-4.447,0.979-9.279,0.73-13.752-0.78c-2.267-0.688-4.396-1.773-6.444-2.979
				c-2.017-1.264-3.883-2.771-5.6-4.43c-3.342-3.405-5.967-7.532-7.402-12.042c-1.507-4.479-1.756-9.308-0.781-13.754h0.295
				c0,8.838,3.688,17.559,9.969,23.717c6.158,6.277,14.879,9.969,23.72,9.974L494.142,557.994z"/>
		</g>
	</g>
	<g display="inline">
		<g>
			<g>
				<g>
					<polygon fill="#F9F9F9" points="608.376,382.214 715.545,382.229 715.552,256.687 608.39,256.68 					"/>
					<path fill="#1C3A54" d="M606.848,383.744l0.009-128.596l110.221,0.007l0.001,128.597L606.848,383.744z M609.91,258.215v122.467
						l104.103,0.008l0.012-122.479L609.91,258.215z"/>
				</g>
				
					<rect x="618.194" y="268.933" transform="matrix(-1 -7.811387e-05 7.811387e-05 -1 1323.9163 619.0541)" fill="#94CDDD" width="87.553" height="81.137"/>
				<path fill="#F9F9F9" fill-opacity="0.29" d="M622.218,297.152c-3.975-0.003-7.906,0.134-11.785,0.375l-0.003-39.151
					l103.075,0.005L713.5,322.22C689.731,306.695,657.609,297.152,622.218,297.152z"/>
			</g>
			<polygon fill="#3299BB" points="618.188,350.069 650.708,320.105 683.873,350.073 			"/>
			<polygon fill="#1C3A54" points="651.03,350.066 675.812,308.238 701.082,350.073 			"/>
			<circle fill="#F07818" cx="685.679" cy="284.6" r="9.479"/>
		</g>
	</g>
	<path display="inline" fill="#FF6106" d="M742.893,61.124c-3.075,0-5.67,1.961-6.668,4.689l-10.69-1.191
		c0.012-0.234,0.036-0.467,0.036-0.704c0-3.783-1.471-7.213-3.853-9.782l6.391-6.596c0.865,0.571,1.895,0.907,3.009,0.907
		c3.029,0,5.483-2.456,5.483-5.486c0-3.024-2.454-5.48-5.483-5.48c-3.027,0-5.48,2.456-5.48,5.48c0,0.814,0.185,1.575,0.5,2.265
		l-6.688,6.899l0.073,0.074c-2.358-1.684-5.234-2.684-8.353-2.684c-0.752,0-1.487,0.077-2.211,0.187l0.053-0.022l-3.914-9.459
		c2.292-1.182,3.876-3.549,3.876-6.305c0-3.938-3.188-7.129-7.122-7.129c-3.936,0-7.124,3.191-7.124,7.129
		c0,3.932,3.188,7.123,7.124,7.123c0.174,0,0.341-0.041,0.51-0.052l-0.19,0.078l3.892,9.398c-5.429,2.065-9.293,7.299-9.293,13.454
		c0,1.065,0.125,2.103,0.345,3.102l-5.621,1.798c-1.628-3.755-5.361-6.382-9.714-6.382c-5.845,0-10.585,4.74-10.585,10.584
		c0,5.848,4.74,10.588,10.585,10.588c5.849,0,10.586-4.74,10.586-10.588c0-0.437-0.032-0.861-0.085-1.28l5.796-1.85
		c2.199,4.812,6.966,8.196,12.556,8.403l0.302,7.978l0.16-0.006c-3.576,0.913-6.227,4.125-6.227,7.983
		c0,4.569,3.699,8.27,8.269,8.27c4.565,0,8.265-3.7,8.265-8.27c0-4.289-3.273-7.771-7.448-8.185l-0.303-7.973
		c5.551-0.964,9.997-5.098,11.425-10.475l10.752,1.196c0.289,3.669,3.325,6.564,7.067,6.564c3.933,0,7.125-3.192,7.125-7.129
		C750.018,64.315,746.825,61.124,742.893,61.124"/>
	<g display="inline">
		<path fill="#00AEB3" d="M121.406,187.29c0,12.481-10.113,22.595-22.588,22.595c-12.481,0-22.594-10.114-22.594-22.595
			c0-12.476,10.113-22.589,22.594-22.589C111.293,164.701,121.406,174.814,121.406,187.29z"/>
		<path fill="#00AEB3" d="M137.585,110.307c0,9.704-7.873,17.569-17.574,17.569s-17.571-7.865-17.571-17.569
			c0-9.706,7.87-17.576,17.571-17.576S137.585,100.601,137.585,110.307z"/>
		<path fill="#00AEB3" d="M61.645,125.96c5.854-0.23,10.784,4.326,11.014,10.174c0.23,5.849-4.326,10.778-10.177,11.005
			c-5.852,0.231-10.781-4.322-11.008-10.172C51.247,131.117,55.8,126.191,61.645,125.96z"/>
		<path fill="#00AEB3" d="M138.472,252.308c-0.724,5.031-5.379,8.53-10.41,7.812c-5.038-0.717-8.535-5.383-7.814-10.414
			c0.717-5.033,5.376-8.531,10.407-7.813C135.695,242.611,139.196,247.274,138.472,252.308z"/>
		<path fill="#00AEB3" d="M40.238,198.73c0,6.623-5.37,11.991-11.994,11.991c-6.621,0-11.994-5.369-11.994-11.991
			c0-6.627,5.373-11.997,11.994-11.997C34.869,186.733,40.238,192.103,40.238,198.73z"/>
		<path fill="#00AEB3" d="M99.78,186.759c-1.791-0.475-2.847-2.307-2.374-4.096l19.219-72.239c0.478-1.787,2.307-2.848,4.098-2.373
			l0,0c1.788,0.472,2.85,2.307,2.371,4.094l-19.225,72.242C103.397,186.17,101.565,187.233,99.78,186.759L99.78,186.759z"/>
		<path fill="#00AEB3" d="M96.017,182.83c-1.009,0.724-2.412,0.49-3.138-0.52l-29.242-40.812c-0.723-1.009-0.493-2.409,0.517-3.135
			l0,0c1.015-0.721,2.418-0.49,3.141,0.519l29.239,40.815C97.257,180.702,97.03,182.11,96.017,182.83L96.017,182.83z"/>
		<path fill="#00AEB3" d="M105.302,201.163c1.12-0.528,2.459-0.047,2.99,1.078l21.418,45.405c0.531,1.125,0.053,2.464-1.073,2.994
			l0,0c-1.12,0.529-2.459,0.048-2.99-1.072l-21.421-45.409C103.695,203.035,104.176,201.696,105.302,201.163L105.302,201.163z"/>
		<path fill="#00AEB3" d="M90.125,190.518c0.158,1.33-0.79,2.536-2.12,2.699l-53.767,6.534c-1.33,0.159-2.541-0.785-2.701-2.118l0,0
			c-0.161-1.328,0.788-2.538,2.115-2.697l53.766-6.536C88.754,188.241,89.965,189.186,90.125,190.518L90.125,190.518z"/>
	</g>
	<path display="inline" fill="#033757" d="M110.941,519.237c-2.596,0-4.95,0.981-6.748,2.588l-5.547-6.127
		c3.646-4.687,5.825-10.568,5.825-16.958c0-10.089-5.417-18.925-13.498-23.732l6.678-11.867c0.785,0.271,1.627,0.435,2.497,0.435
		c4.165,0,7.555-3.385,7.555-7.553c0-4.167-3.381-7.552-7.546-7.552c-4.166,0-7.555,3.391-7.555,7.559
		c0,2.284,1.018,4.319,2.629,5.717l-6.754,11.947c-3.532-1.646-7.47-2.572-11.629-2.572c-6.36,0-12.204,2.161-16.868,5.761
		l-6.222-7.872c1.483-1.84,2.389-4.178,2.389-6.737c0-5.963-4.836-10.785-10.787-10.785c-5.958,0-10.788,4.826-10.788,10.785
		c0,5.967,4.829,10.791,10.788,10.791c2.38,0,4.588-0.789,6.371-2.091l6.118,7.749c-5.307,5.026-8.615,12.139-8.615,20.022
		c0,0.153,0.017,0.285,0.017,0.432h-6.828c-1.029-3.737-4.445-6.476-8.51-6.476c-4.896,0-8.845,3.967-8.845,8.841
		c0,4.892,3.949,8.855,8.845,8.855c4.808,0,8.714-3.853,8.828-8.631h6.663c1.117,10.394,8.037,19.043,17.425,22.71l-2.321,4.73
		c-1.449-0.586-3.034-0.895-4.706-0.895c-7.032,0-12.731,5.685-12.731,12.722c0,7.028,5.699,12.731,12.731,12.731
		c7.044,0,12.732-5.703,12.732-12.731c0-4.433-2.281-8.348-5.72-10.614l2.503-5.104c2.391,0.685,4.919,1.051,7.531,1.051
		c7.915,0,15.057-3.338,20.08-8.681l5.551,6.11c-1.062,1.607-1.688,3.522-1.688,5.592c0,5.61,4.55,10.144,10.15,10.144
		c5.59,0,10.143-4.533,10.143-10.144C121.084,523.788,116.531,519.237,110.941,519.237z"/>
	<g display="inline">
		<path fill="#033757" d="M206.137,68.723V40.876h-0.007c-15.378,0-27.836,12.462-27.836,27.837c0,7.704,3.126,14.674,8.183,19.715
			l19.702-19.705H206.137z"/>
		<path fill="#033757" d="M188.823,91.75c5.038,5.02,11.984,8.126,19.655,8.126c15.372,0,27.834-12.458,27.838-27.83h-27.787
			L188.823,91.75z"/>
		<path fill="#00AEB3" d="M209.854,40.876v27.846h27.835v-0.006C237.689,53.344,225.224,40.882,209.854,40.876"/>
	</g>
	<g display="inline">
		<path fill="#033757" d="M606.848,136.574c2.107-5.781,6.418-10.752,12.431-13.549l10.138,21.774L606.848,136.574z"/>
		<path fill="#033757" d="M624.662,128.088l10.137,21.774l-22.564-8.229c-2.108,5.777-2.01,12.356,0.789,18.366
			c5.599,12.024,19.888,17.237,31.914,11.64c12.023-5.598,17.236-19.89,11.638-31.914
			C650.979,127.702,636.688,122.491,624.662,128.088"/>
	</g>
	<g display="inline">
		<path fill="#00AEB3" d="M694.964,541.214l15.642,27.092c-4.205,2.096-8.927,3.302-13.944,3.302
			c-17.325,0-31.374-14.048-31.374-31.374c0-16.666,13.001-30.256,29.414-31.274v31.274
			C694.701,540.57,694.789,540.907,694.964,541.214"/>
		<path fill="#033757" d="M698.33,508.957v29.633h29.605C726.959,522.162,714.757,509.935,698.33,508.957 M702.811,513.454
			c10.453,2.279,18.351,10.201,20.631,20.655h-20.631V513.454z"/>
		<path fill="#033757" d="M714.011,566.364c7.939-5.281,13.301-14.083,13.925-24.171h-27.879L714.011,566.364z"/>
	</g>
	<g display="inline">
		<g>
			<circle fill="#FF6106" cx="609.57" cy="498.371" r="34.495"/>
			<circle fill="#FF6106" cx="590.127" cy="440.712" r="17.008"/>
			<path fill="#FF6106" d="M572.079,412.373c0,6.449-5.224,11.672-11.671,11.672c-6.448,0-11.672-5.223-11.672-11.672
				c0-6.445,5.224-11.672,11.672-11.672C566.855,400.701,572.079,405.928,572.079,412.373z"/>
		</g>
		<path fill="#FFFFFF" d="M636.683,491.694c-1.057-3.563-8.761-2.532-8.761-2.532c0-1.75-0.324-3.328-0.324-3.328
			s-0.322-4.263-17.843-4.394c-17.521-0.128-19.078,4.394-19.078,4.394c-3.036,17.083,5.663,28.93,7.44,31.137
			c0.06,0.075,0.123,0.152,0.19,0.229c0.078,0.097,0.126,0.146,0.126,0.146c0.077,0.09,0.157,0.17,0.242,0.244
			c1.993,1.909,5.921,3.208,10.441,3.208c5.225,0,9.647-1.735,11.221-4.135c1.376-1.459,3.822-6.281,3.822-6.281
			C633.884,509.617,638.28,497.086,636.683,491.694 M609.002,488.604c-8.626,0-15.62-1.242-15.62-2.77
			c0-1.531,6.994-2.771,15.62-2.771c8.627,0,15.621,1.24,15.621,2.771C624.623,487.361,617.629,488.604,609.002,488.604
			 M626.82,505.838c0,0,2.66-9.796,2.012-13.104c0,0,4.542,0.258,4.542,0.778C633.374,493.512,633.049,502.401,626.82,505.838"/>
	</g>
</g>
</svg>
