<?xml version="1.0" encoding="utf-8"?>
<!-- Generator: Adobe Illustrator 15.0.0, SVG Export Plug-In . SVG Version: 6.00 Build 0)  -->
<!DOCTYPE svg PUBLIC "-//W3C//DTD SVG 1.1//EN" "http://www.w3.org/Graphics/SVG/1.1/DTD/svg11.dtd">
<svg version="1.1" xmlns="http://www.w3.org/2000/svg" xmlns:xlink="http://www.w3.org/1999/xlink" x="0px" y="0px" width="800px"
     height="600px" viewBox="0 0 800 600" enable-background="new 0 0 800 600" xml:space="preserve">

<g id="Layer_4">
	<g display="inline">
		<circle fill="#FF6106" cx="704.232" cy="242.054" r="21.926"/>
		<polyline fill="none" stroke="#FFFFFF" stroke-width="3.4874" points="697.318,251.402 687.966,242.048 697.318,232.695 		"/>
		<polyline fill="none" stroke="#FFFFFF" stroke-width="3.4874" points="710.627,232.875 719.98,242.229 710.627,251.583 		"/>
		<polygon fill="#FFFFFF" points="700.422,252.112 705.29,231.997 707.77,231.997 702.81,252.112 		"/>
		<circle fill="#FF6106" cx="659.308" cy="254.933" r="12.75"/>
		<circle fill="#FF6106" cx="628.808" cy="241.433" r="8.75"/>
	</g>
	<g display="inline">
		<g>
			<g>
				<path fill="#003B5A" d="M156.932,508.25v15.431c0,12.975,10.516,23.49,23.49,23.49c12.973,0,23.49-10.516,23.49-23.49v-15.089
					C197.914,511.609,181.516,517.421,156.932,508.25z"/>
			</g>
			<g>
				<path fill="#003B5A" d="M183.697,474.321c-13.589-2.872-26.765,11.416-26.765,24.377c0,0.018,0,6.553,0,6.553
					c7.562,3.073,28.057,9.569,46.98-0.008v-6.545C203.912,487.699,194.632,476.63,183.697,474.321z M184.483,497.759
					c0,2.248-1.824,4.072-4.062,4.072c-2.244,0-4.065-1.824-4.065-4.072v-11.122c0-2.24,1.821-4.065,4.065-4.065
					s4.062,1.825,4.062,4.065V497.759z"/>
			</g>
		</g>
		<g>
			<path fill="#003B5A" d="M178.937,477.772c-0.072-0.349-1.676-8.613,3.059-15.564c3.042-4.457,7.947-7.305,14.581-8.465
				c15.692-2.742,15.208-7.827,14.33-17.055c-0.166-1.768-0.346-3.652-0.424-5.643l3.028-0.123c0.078,1.938,0.252,3.762,0.415,5.477
				c0.909,9.559,1.625,17.104-16.828,20.336c-5.782,1.009-10.013,3.419-12.578,7.159c-4.026,5.875-2.625,13.208-2.611,13.282
				L178.937,477.772z"/>
		</g>
	</g>
	<path display="inline" fill-rule="evenodd" clip-rule="evenodd" fill="#033757" d="M623.314,142.216
		c-17.387,0-31.481-14.09-31.481-31.475c0-17.388,14.095-31.482,31.481-31.482c0-36.317,29.441-65.755,65.752-65.755
		c36.317,0,65.758,29.438,65.758,65.755c17.384,0,31.476,14.094,31.476,31.482c0,17.384-14.092,31.475-31.476,31.475H739.22V79.26
		c0-27.698-22.454-50.152-50.153-50.152c-27.697,0-50.151,22.454-50.151,50.152v62.957H623.314z"/>
	<g display="inline">
		<path opacity="0.1216" d="M191.196,259.245v-15.339h5.582v15.339H191.196 M191.196,231.637v-15.314h5.582v15.314H191.196
			 M191.196,204.054v-15.339h5.582v15.339H191.196 M191.196,176.471v-15.339h5.582v15.339H191.196 M191.196,148.863v-15.314h5.582
			v15.314H191.196 M191.196,121.28v-15.338h5.582v15.338H191.196 M199.67,78.861h-12.171V280.59h381.786v-12.168H199.67V78.861"/>
		<path opacity="0.1216" d="M571.17,281.521L571.17,281.521 M185.614,33.479v249H571.17v-0.958h-0.93v-0.931v0.931h0.93v-13.099
			h-1.885v12.168H187.499V78.861h-1.885V34.434h0.958h-0.958V33.479"/>
		<path opacity="0.1216" d="M199.67,35.364h-12.171V77h12.171V66.616c-4.384-0.322-7.871-3.983-7.871-8.474
			c0-3.034,1.596-5.691,3.983-7.194c0.922-1.454,2.278-2.608,3.888-3.285V35.364"/>
		<polyline opacity="0.1216" points="199.67,33.479 185.614,33.479 185.614,34.434 186.571,34.434 185.614,34.434 185.614,78.861 
			187.499,78.861 199.67,78.861 199.67,77 187.499,77 187.499,35.364 199.67,35.364 199.67,33.479 		"/>
		<polyline opacity="0.1216" points="196.778,105.942 191.196,105.942 191.196,121.28 196.778,121.28 196.778,105.942 		"/>
		<polyline opacity="0.1216" points="196.778,133.549 191.196,133.549 191.196,148.863 196.778,148.863 196.778,133.549 		"/>
		<polyline opacity="0.1216" points="196.778,161.132 191.196,161.132 191.196,176.471 196.778,176.471 196.778,161.132 		"/>
		<polyline opacity="0.1216" points="196.778,188.715 191.196,188.715 191.196,204.054 196.778,204.054 196.778,188.715 		"/>
		<polyline opacity="0.1216" points="196.778,216.323 191.196,216.323 191.196,231.637 196.778,231.637 196.778,216.323 		"/>
		<polyline opacity="0.1216" points="196.778,243.906 191.196,243.906 191.196,259.245 196.778,259.245 196.778,243.906 		"/>
		<path opacity="0.1216" d="M195.782,50.948c-2.387,1.503-3.983,4.161-3.983,7.194c0,4.491,3.487,8.152,7.871,8.474v-3.279
			c-3.061-1.291-5.206-4.327-5.206-7.857C194.464,53.812,194.95,52.26,195.782,50.948"/>
		<path opacity="0.1216" d="M199.67,47.663c-1.61,0.676-2.966,1.831-3.888,3.285c-0.832,1.312-1.318,2.865-1.318,4.532
			c0,3.53,2.145,6.567,5.206,7.857V47.663"/>
		<polyline fill="#033757" points="199.67,21.308 199.67,21.308 199.67,33.479 199.67,35.364 199.67,47.663 199.67,63.337 
			199.67,66.616 199.67,77 199.67,78.861 199.67,268.422 569.285,268.422 571.17,268.422 583.342,268.422 583.342,64.808 
			199.67,64.808 199.67,21.308 		"/>
		<polygon fill="#333333" points="583.342,268.417 583.342,267.481 200.611,267.481 200.611,22.249 582.404,22.249 582.404,268.417 
			583.342,268.417 583.342,267.481 583.342,268.417 584.277,268.417 584.277,20.372 198.74,20.372 198.74,269.353 584.277,269.353 
			584.277,268.417 		"/>
		<path fill="#E6E6E6" d="M213.423,53.542c-4.701,0-8.499-3.822-8.499-8.499c0-4.701,3.797-8.499,8.499-8.499
			c4.676,0,8.499,3.797,8.499,8.499C221.922,49.72,218.1,53.542,213.423,53.542 M237.336,53.542c-4.703,0-8.499-3.822-8.499-8.499
			c0-4.701,3.795-8.499,8.499-8.499c4.677,0,8.499,3.797,8.499,8.499C245.835,49.72,242.013,53.542,237.336,53.542 M261.223,53.542
			c-4.676,0-8.499-3.822-8.499-8.499c0-4.701,3.822-8.499,8.499-8.499c4.701,0,8.499,3.797,8.499,8.499
			C269.722,49.72,265.924,53.542,261.223,53.542 M583.342,21.308H199.67v43.5h383.672V21.308"/>
		<polygon fill="#D8D6D2" points="199.675,21.311 199.675,22.249 582.404,22.249 582.404,63.88 200.611,63.88 200.611,21.311 
			199.675,21.311 199.675,22.249 199.675,21.311 198.74,21.311 198.74,65.751 584.277,65.751 584.277,20.372 198.74,20.372 
			198.74,21.311 		"/>
		<rect x="234.043" y="92.841" fill="#FF6106" width="38.557" height="15.33"/>
		<rect x="204.319" y="92.841" fill="#FFFFFF" width="5.574" height="15.33"/>
		<rect x="204.319" y="120.429" fill="#FFFFFF" width="5.574" height="15.328"/>
		<rect x="204.319" y="148.021" fill="#FFFFFF" width="5.574" height="15.328"/>
		<rect x="204.319" y="175.612" fill="#FFFFFF" width="5.574" height="15.327"/>
		<rect x="204.319" y="203.203" fill="#FFFFFF" width="5.574" height="15.325"/>
		<rect x="204.319" y="230.789" fill="#FFFFFF" width="5.574" height="15.333"/>
		<rect x="307.898" y="120.244" fill="#00AEB3" width="45.159" height="15.33"/>
		<rect x="371.2" y="120.244" fill="#FFFFFF" width="100.052" height="15.33"/>
		<rect x="480.107" y="120.244" fill="#FFFFFF" width="31.236" height="15.33"/>
		<rect x="307.898" y="147.646" fill="#00AEB3" width="58.061" height="15.333"/>
		<rect x="383.145" y="147.646" fill="#FFFFFF" width="43.197" height="15.333"/>
		<rect x="433.771" y="147.646" fill="#FFFFFF" width="69.211" height="15.333"/>
		<rect x="307.898" y="175.052" fill="#00AEB3" width="33.443" height="15.327"/>
		<rect x="360.852" y="175.052" fill="#FFFFFF" width="129.122" height="15.327"/>
		<rect x="371.238" y="148.285" fill="#FFFFFF" width="6.166" height="6.163"/>
		<rect x="371.238" y="156.175" fill="#FFFFFF" width="6.166" height="6.16"/>
		<rect x="348.015" y="175.527" fill="#FFFFFF" width="6.161" height="6.16"/>
		<rect x="348.015" y="183.417" fill="#FFFFFF" width="6.161" height="6.16"/>
		<rect x="358.699" y="121.343" fill="#FFFFFF" width="6.161" height="6.163"/>
		<rect x="358.699" y="129.233" fill="#FFFFFF" width="6.161" height="6.161"/>
		<polygon fill="#FFFFFF" points="299.512,106.239 292.686,99.411 299.512,92.592 294.213,87.294 282.089,99.408 294.213,111.538 		
			"/>
		<polygon fill="#FFFFFF" points="284.741,203.53 291.564,210.354 284.738,217.177 290.036,222.475 302.161,210.354 
			290.039,198.232 		"/>
		<polygon fill="#FFFFFF" points="273.978,220.838 279.208,199.228 281.874,199.228 276.54,220.838 		"/>
		<path fill="#CDCDCD" d="M213.423,36.545c-4.701,0-8.499,3.797-8.499,8.499c0,4.676,3.797,8.499,8.499,8.499
			c4.676,0,8.499-3.822,8.499-8.499C221.922,40.343,218.1,36.545,213.423,36.545"/>
		<path fill="#CDCDCD" d="M237.336,36.545c-4.703,0-8.499,3.797-8.499,8.499c0,4.676,3.795,8.499,8.499,8.499
			c4.677,0,8.499-3.822,8.499-8.499C245.835,40.343,242.013,36.545,237.336,36.545"/>
		<path fill="#CDCDCD" d="M261.223,36.545c-4.676,0-8.499,3.797-8.499,8.499c0,4.676,3.822,8.499,8.499,8.499
			c4.701,0,8.499-3.822,8.499-8.499C269.722,40.343,265.924,36.545,261.223,36.545"/>
		<path fill="#24AEB1" d="M224.571,42.378c0,4.698-3.809,8.501-8.501,8.501c-4.693,0-8.499-3.803-8.499-8.501
			c0-4.693,3.806-8.493,8.499-8.493C220.762,33.885,224.571,37.686,224.571,42.378z"/>
		<path fill="#FFAB32" d="M248.479,42.378c0,4.698-3.806,8.501-8.501,8.501c-4.698,0-8.499-3.803-8.499-8.501
			c0-4.693,3.801-8.493,8.499-8.493C244.673,33.885,248.479,37.686,248.479,42.378z"/>
		<path fill="#DC4951" d="M272.387,42.378c0,4.698-3.809,8.501-8.501,8.501c-4.693,0-8.501-3.803-8.501-8.501
			c0-4.693,3.809-8.493,8.501-8.493C268.578,33.885,272.387,37.686,272.387,42.378z"/>
	</g>
	<g display="inline">
		<polyline opacity="0.1216" points="614.158,358.823 240.555,358.823 240.555,556.217 614.158,556.217 614.158,358.823 		"/>
		<path opacity="0.1216" d="M615.978,557.15L615.978,557.15 M238.734,314.438v243.624h377.244v-0.911h-0.91v-0.934v0.934h0.91
			V358.823h-1.819v197.394H240.555V358.823h-1.821v-43.476V314.438"/>
		<polyline opacity="0.1216" points="614.158,316.259 240.555,316.259 240.555,357.002 614.158,357.002 614.158,316.259 		"/>
		<path opacity="0.1216" d="M240.555,316.259L240.555,316.259h373.604v40.743H240.555V316.259 M615.978,314.438H238.734v0.91h0.91
			h-0.91v43.476h1.821h373.604h1.819V314.438"/>
		<rect x="252.475" y="302.518" fill="#033757" width="375.419" height="241.795"/>
		<polygon fill="#FFFFFF" points="627.894,544.312 627.894,543.396 253.39,543.396 253.39,303.434 626.976,303.434 626.976,544.312 
			627.894,544.312 627.894,543.396 627.894,544.312 628.808,544.312 628.808,301.603 251.559,301.603 251.559,545.229 
			628.808,545.229 628.808,544.312 		"/>
		<rect x="252.475" y="302.518" fill="#E6E6E6" width="375.419" height="42.57"/>
		<polygon fill="#D8D6D2" points="252.475,302.518 252.475,303.434 626.976,303.434 626.976,344.172 253.39,344.172 253.39,302.518 
			252.475,302.518 252.475,303.434 252.475,302.518 251.559,302.518 251.559,346.004 628.808,346.004 628.808,301.603 
			251.559,301.603 251.559,302.518 		"/>
		<polyline fill="#DC4951" points="599.382,315.537 615.652,331.813 617.526,329.94 601.255,313.663 		"/>
		<polyline fill="#DC4951" points="615.596,313.661 599.382,329.826 601.255,331.705 617.471,315.54 		"/>
		<polygon fill="#B3B3B3" points="588.497,327.159 588.497,325.831 573.688,325.831 573.688,316.509 587.17,316.509 587.17,327.159 
			588.497,327.159 588.497,325.831 588.497,327.159 589.823,327.159 589.823,313.855 571.035,313.855 571.035,328.484 
			589.823,328.484 589.823,327.159 		"/>
		<rect x="567.961" y="318.605" fill="#E6E6E6" width="16.134" height="11.976"/>
		<polygon fill="#B3B3B3" points="584.095,330.581 584.095,329.254 569.289,329.254 569.289,319.932 582.769,319.932 
			582.769,330.581 584.095,330.581 584.095,329.254 584.095,330.581 585.422,330.581 585.422,317.277 566.636,317.277 
			566.636,331.908 585.422,331.908 585.422,330.581 		"/>
		<rect x="538.19" y="322.626" fill="#B3B3B3" width="16.216" height="4.124"/>
		<polygon fill="#B3B3B3" points="554.406,326.75 554.406,326.307 538.633,326.307 538.633,323.068 553.962,323.068 553.962,326.75 
			554.406,326.75 554.406,326.307 554.406,326.75 554.849,326.75 554.849,322.183 537.746,322.183 537.746,327.193 554.849,327.193 
			554.849,326.75 		"/>
		<path fill="#00AEB3" d="M510.853,436.977c0,39.612-32.115,71.726-71.728,71.726c-39.614,0-71.73-32.113-71.73-71.726
			s32.116-71.73,71.73-71.73C478.737,365.246,510.853,397.364,510.853,436.977z"/>
		<path fill="#FFFFFF" d="M425.719,391.478c0,0-4.034,0-8.521,0c-3.612-0.008-6.883,1.475-9.157,3.763
			c-2.286,2.282-3.692,5.397-3.697,8.787c0,3.888,0,22.439,0,24.836c-0.016,0.991-0.211,1.37-0.425,1.72
			c-0.165,0.254-0.4,0.494-0.727,0.729c-0.48,0.349-1.171,0.643-1.708,0.798c-0.268,0.077-0.491,0.126-0.619,0.152l-0.118,0.019
			l0.259,1.768l-0.198-1.776l-0.061,0.009l0.259,1.768l-0.198-1.776l0.19,10.097l0.157-2.122l-0.224,2.117l0.067,0.005l0.157-2.122
			l-0.224,2.117c0.032-0.02,1.415,0.222,2.223,0.742c0.42,0.253,0.679,0.507,0.844,0.771c0.161,0.277,0.331,0.606,0.345,1.514
			c0,7.182,0,20.94,0,24.229c0.021,2.847,0.942,5.823,3.121,8.421c1.091,1.281,2.524,2.423,4.243,3.214
			c1.717,0.795,3.698,1.223,5.785,1.217c5.685,0,8.227,0,8.227,0v-10.139c0,0-2.542,0-8.227,0c-0.754-0.006-1.205-0.14-1.536-0.288
			c-0.48-0.228-0.796-0.54-1.077-1.015c-0.271-0.459-0.405-1.087-0.396-1.41c0-3.289,0-17.048,0-24.229
			c0.018-2.773-0.805-5.345-2.134-7.271c-0.988-1.453-2.2-2.537-3.377-3.329c-1.78-1.188-3.492-1.771-4.792-2.109
			c-1.303-0.331-2.213-0.409-2.435-0.425l-0.373,5.057l0.562,5.04c0.39-0.066,2.96-0.312,6.006-2.05
			c1.51-0.879,3.165-2.192,4.451-4.148c1.295-1.941,2.106-4.507,2.091-7.292c0-2.396,0-20.948,0-24.836
			c-0.007-0.504,0.235-1.128,0.722-1.611c0.494-0.48,1.117-0.79,1.993-0.798c4.487,0,8.521,0,8.521,0V391.478z"/>
		<path fill="#FFFFFF" d="M452.534,401.618c0,0,4.034,0,8.524,0c0.876,0.008,1.495,0.317,1.989,0.798
			c0.489,0.483,0.729,1.107,0.724,1.611c0,3.888,0,22.439,0,24.836c-0.017,2.785,0.795,5.351,2.09,7.294
			c0.964,1.463,2.144,2.576,3.303,3.404c1.746,1.241,3.441,1.887,4.732,2.274c1.295,0.379,2.206,0.491,2.426,0.518l0.562-5.04
			l-0.374-5.057c-0.393,0.051-2.964,0.195-6.055,1.826c-1.532,0.825-3.229,2.096-4.549,4.037c-1.333,1.927-2.154,4.495-2.136,7.271
			c0,7.182,0,20.94,0,24.229c0.021,0.446-0.254,1.359-0.697,1.834c-0.219,0.251-0.451,0.438-0.779,0.591
			c-0.331,0.148-0.78,0.282-1.535,0.288c-5.686,0-8.217,0-8.226,0v10.139c0.003,0,0.636,0,1.98,0c1.347,0,3.401,0,6.245,0
			c2.086,0.006,4.065-0.422,5.782-1.217c2.593-1.191,4.485-3.156,5.649-5.222c1.172-2.083,1.71-4.264,1.719-6.413
			c0-3.289,0-17.048,0-24.229c0.02-0.967,0.202-1.276,0.379-1.567c0.145-0.208,0.347-0.41,0.652-0.616
			c0.447-0.31,1.121-0.571,1.649-0.702c0.265-0.067,0.485-0.106,0.614-0.126l0.117-0.016l-0.194-1.783l0.131,1.788l0.063-0.005
			l-0.194-1.783l0.131,1.788l0.188-10.097l-0.235,2.097l0.301-2.088l-0.065-0.009l-0.235,2.097l0.301-2.088
			c-0.035,0.016-1.424-0.271-2.283-0.855c-0.441-0.288-0.739-0.586-0.937-0.909c-0.19-0.334-0.369-0.724-0.383-1.653
			c0-2.396,0-20.948,0-24.836c-0.005-3.39-1.415-6.505-3.694-8.787c-2.274-2.288-5.547-3.771-9.157-3.763c-4.49,0-8.516,0-8.524,0
			V401.618z"/>
	</g>
	<g display="inline">
		<path fill-rule="evenodd" clip-rule="evenodd" fill="#FFFFFF" d="M330.478,69.534c0.006,0,0.011,0.002,0.018,0.005
			c0.001,0.002,0.004,0.005,0.005,0.005c0.004,0.002,0.009,0.008,0.013,0.013l0.006,0.011l0.013,0.016v0.003
			c0.005,0.01,0.011,0.021,0.016,0.034v0.003l0.009,0.026l0.009,0.025l0.008,0.025l0.009,0.032l0.011,0.045l0.006,0.026l0.01,0.045
			l0.007,0.037l0.008,0.045l0.009,0.047l0.009,0.042l0.008,0.066l0.006,0.034l0.01,0.066l0.013,0.085l0.002,0.032l0.011,0.085
			l0.007,0.058l0.008,0.053l0.011,0.098l0.003,0.04l0.011,0.101l0.009,0.095l0.004,0.048l0.014,0.141l0.002,0.013l0.014,0.162v0.013
			l0.015,0.172l0.001,0.013l0.01,0.141l0.004,0.045l0.008,0.093v0.029l0.011,0.148l0.003,0.032l0.008,0.107l0.007,0.114l0.006,0.102
			l0.007,0.123l0.007,0.103l0.003,0.053l0.008,0.143l0.002,0.037l0.009,0.144l0.005,0.098l0.003,0.047l0.011,0.188v0.011
			l0.008,0.167l0.004,0.09l0.009,0.178l0.006,0.085v0.017c0.011,0.261,0.023,0.534,0.034,0.818l0.01,0.226l0.002,0.069
			c0.007,0.196,0.015,0.398,0.022,0.604l0.009,0.263l0.002,0.05c0.007,0.209,0.014,0.424,0.021,0.644l0.009,0.302v0.029l0.011,0.315
			v0.021l0.008,0.329v0.013c0.008,0.348,0.019,0.703,0.026,1.066v0.011l0.008,0.355v0.021l0.009,0.349
			c0.008,0.492,0.019,0.996,0.026,1.513v0.021l0.001,0.069l0.005,0.326l0.002,0.08l0.003,0.321c0.023,1.607,0.034,3.32,0.037,5.099
			c9.489,0.014,17.072,0.316,17.072,0.687s-7.583,0.673-17.072,0.689c-0.003,1.779-0.014,3.489-0.037,5.099l-0.003,0.318
			l-0.002,0.083l-0.005,0.323l-0.001,0.072v0.021c-0.008,0.517-0.019,1.021-0.026,1.513l-0.009,0.349v0.021l-0.008,0.353v0.015
			c-0.008,0.362-0.019,0.717-0.026,1.062v0.013l-0.008,0.332v0.021l-0.011,0.315v0.029l-0.009,0.302L331,98.866l-0.002,0.052
			l-0.009,0.261c-0.008,0.207-0.016,0.406-0.022,0.604l-0.002,0.069l-0.01,0.223c-0.011,0.284-0.023,0.56-0.034,0.823v0.012
			l-0.006,0.087l-0.009,0.178l-0.004,0.09l-0.008,0.165v0.013l-0.011,0.189l-0.003,0.046l-0.005,0.098l-0.009,0.144l-0.002,0.037
			l-0.008,0.143l-0.003,0.053l-0.007,0.103l-0.007,0.123l-0.006,0.104l-0.007,0.114l-0.008,0.104l-0.003,0.035l-0.011,0.148v0.026
			l-0.008,0.096l-0.004,0.045l-0.01,0.141l-0.001,0.013l-0.015,0.169v0.013l-0.014,0.165l-0.002,0.011l-0.014,0.143l-0.004,0.048
			l-0.009,0.095l-0.011,0.098l-0.003,0.042l-0.011,0.098l-0.008,0.053l-0.007,0.056l-0.011,0.087l-0.002,0.029l-0.013,0.087
			l-0.01,0.066l-0.006,0.034l-0.008,0.066l-0.009,0.042l-0.009,0.045l-0.008,0.048l-0.007,0.037l-0.01,0.045l-0.006,0.026
			l-0.011,0.046l-0.009,0.028l-0.008,0.029l-0.009,0.024c-0.002,0.008-0.005,0.019-0.009,0.026
			c-0.005,0.016-0.011,0.027-0.016,0.037c-0.006,0.008-0.008,0.014-0.013,0.019c-0.002,0.003-0.004,0.008-0.006,0.011
			c-0.004,0.005-0.009,0.008-0.013,0.013l-0.005,0.003c-0.007,0.005-0.012,0.008-0.018,0.008c-0.005,0-0.013-0.002-0.019-0.008
			c-0.001,0-0.002-0.003-0.005-0.003c-0.004-0.005-0.007-0.008-0.011-0.013l-0.008-0.011c-0.003-0.005-0.008-0.01-0.011-0.019l0,0
			c-0.005-0.01-0.011-0.021-0.016-0.037h-0.002l-0.009-0.026l-0.007-0.024l-0.008-0.029l-0.009-0.028l-0.011-0.046l-0.006-0.026
			l-0.011-0.045l-0.008-0.037l-0.008-0.048l-0.008-0.045l-0.008-0.042l-0.011-0.066l-0.003-0.034l-0.012-0.066l-0.011-0.087
			l-0.004-0.029l-0.011-0.087l-0.008-0.056l-0.005-0.053l-0.011-0.098l-0.004-0.042l-0.011-0.098l-0.008-0.095l-0.006-0.048
			l-0.012-0.143l-0.003-0.011l-0.013-0.165v-0.013l-0.015-0.169l-0.002-0.013l-0.01-0.141l-0.003-0.045l-0.008-0.096l-0.003-0.026
			l-0.008-0.148l-0.003-0.035l-0.008-0.104l-0.008-0.114l-0.007-0.104l-0.007-0.123l-0.007-0.103l-0.002-0.053l-0.01-0.143
			l-0.002-0.037l-0.006-0.144l-0.005-0.098l-0.003-0.046l-0.011-0.189l-0.001-0.013l-0.007-0.165l-0.005-0.09l-0.009-0.178
			l-0.005-0.087v-0.012c-0.011-0.264-0.023-0.54-0.036-0.823l-0.008-0.223l-0.003-0.069c-0.009-0.196-0.014-0.398-0.022-0.604
			l-0.008-0.261l-0.003-0.052c-0.008-0.209-0.014-0.424-0.02-0.644l-0.009-0.302l-0.003-0.029l-0.008-0.315v-0.021l-0.008-0.332
			v-0.013c-0.011-0.345-0.021-0.7-0.027-1.062l-0.001-0.015l-0.007-0.353l-0.001-0.021l-0.007-0.349
			c-0.011-0.492-0.019-0.996-0.027-1.513v-0.021l-0.002-0.072l-0.004-0.323l-0.001-0.083l-0.004-0.318
			c-0.022-1.609-0.033-3.32-0.039-5.099c-9.489-0.016-17.069-0.318-17.069-0.689s7.58-0.673,17.069-0.687
			c0.006-1.779,0.017-3.492,0.039-5.099l0.004-0.321l0.001-0.08l0.004-0.326l0.002-0.069v-0.021
			c0.009-0.517,0.017-1.021,0.027-1.513l0.007-0.349l0.001-0.021l0.007-0.355l0.001-0.011c0.007-0.363,0.017-0.718,0.027-1.066
			v-0.013l0.008-0.329v-0.021l0.008-0.315l0.003-0.029l0.009-0.302l0.02-0.644l0.003-0.05l0.008-0.263
			c0.009-0.207,0.014-0.408,0.022-0.604l0.003-0.069l0.008-0.226c0.013-0.284,0.025-0.557,0.036-0.818v-0.017l0.005-0.085
			l0.009-0.178l0.005-0.09l0.007-0.167l0.001-0.011l0.011-0.188l0.003-0.047l0.005-0.098l0.006-0.144l0.002-0.037l0.01-0.143
			l0.002-0.053l0.007-0.103l0.007-0.123l0.007-0.102l0.008-0.114l0.008-0.107l0.003-0.032l0.008-0.148l0.003-0.029l0.008-0.093
			l0.003-0.045l0.01-0.141l0.002-0.013l0.015-0.172v-0.013l0.013-0.162l0.003-0.013l0.012-0.141l0.006-0.048l0.008-0.095
			l0.011-0.101l0.004-0.04l0.011-0.098l0.005-0.053l0.008-0.058l0.011-0.085l0.004-0.032l0.011-0.085l0.012-0.066l0.003-0.034
			l0.011-0.066l0.008-0.042l0.008-0.047l0.008-0.045l0.008-0.037l0.011-0.045l0.006-0.026l0.011-0.045l0.009-0.032l0.008-0.025
			l0.007-0.025c0.004-0.011,0.007-0.019,0.009-0.026l0.002-0.003c0.005-0.013,0.011-0.024,0.016-0.034v-0.003l0.011-0.016
			c0.003-0.005,0.005-0.007,0.008-0.011c0.004-0.005,0.007-0.011,0.011-0.013l0.005-0.005
			C330.465,69.536,330.473,69.534,330.478,69.534"/>
		<path fill-rule="evenodd" clip-rule="evenodd" fill="#FFFFFF" d="M322.839,79.657c0.003-0.002,0.006-0.005,0.011-0.005h0.003
			h0.012h0.008c0.004,0.003,0.007,0.003,0.013,0.005c0.008,0,0.013,0.003,0.021,0.008h0.003l0.015,0.008l0.015,0.005l0.016,0.008
			l0.018,0.011l0.022,0.016l0.013,0.008l0.025,0.016l0.019,0.013l0.022,0.016l0.024,0.016l0.021,0.018l0.033,0.022l0.018,0.013
			l0.034,0.024l0.04,0.032l0.016,0.011l0.043,0.032l0.025,0.021l0.024,0.021l0.051,0.04l0.016,0.013l0.048,0.04l0.045,0.037
			l0.024,0.019l0.066,0.056l0.005,0.005l0.077,0.061l0.005,0.008l0.08,0.066l0.005,0.005l0.065,0.056l0.02,0.019l0.045,0.037
			l0.014,0.01l0.068,0.061l0.015,0.013l0.048,0.042l0.052,0.045l0.048,0.042l0.056,0.048l0.048,0.042l0.023,0.021l0.065,0.059
			l0.016,0.016l0.067,0.056l0.043,0.042l0.021,0.019l0.085,0.077l0.007,0.005l0.073,0.066l0.042,0.037l0.08,0.071l0.039,0.037
			l0.006,0.005c0.119,0.109,0.241,0.22,0.368,0.339l0.101,0.09l0.029,0.029c0.089,0.083,0.181,0.165,0.271,0.252l0.117,0.109
			l0.021,0.021c0.095,0.088,0.191,0.175,0.286,0.268l0.136,0.125l0.012,0.013l0.14,0.133l0.011,0.008l0.146,0.138l0.005,0.005
			c0.153,0.146,0.31,0.294,0.47,0.448l0.005,0.005l0.154,0.148l0.011,0.008l0.153,0.148c0.215,0.207,0.437,0.419,0.66,0.639
			l0.011,0.008l0.03,0.029l0.143,0.138l0.034,0.035l0.141,0.135c0.699,0.681,1.442,1.413,2.208,2.177
			c4.086-4.074,7.478-7.204,7.637-7.045c0.161,0.159-2.97,3.55-7.045,7.636c0.764,0.766,1.495,1.509,2.177,2.208l0.137,0.141
			l0.033,0.034l0.138,0.144l0.029,0.029l0.008,0.011c0.22,0.226,0.434,0.445,0.64,0.66l0.147,0.154l0.008,0.011l0.15,0.154
			l0.007,0.005c0.15,0.159,0.299,0.318,0.443,0.469l0.007,0.005l0.138,0.146l0.01,0.011l0.131,0.141l0.014,0.011l0.124,0.135
			l0.271,0.287l0.021,0.021l0.107,0.118c0.086,0.091,0.169,0.182,0.252,0.269l0.028,0.029l0.093,0.101
			c0.117,0.127,0.231,0.25,0.337,0.369l0.006,0.005l0.035,0.04l0.073,0.08l0.037,0.042l0.067,0.074l0.004,0.005l0.077,0.085
			l0.02,0.021l0.042,0.045l0.058,0.066l0.015,0.016l0.059,0.063l0.02,0.024l0.043,0.048l0.049,0.056l0.041,0.048l0.048,0.053
			l0.04,0.048l0.013,0.013l0.062,0.069l0.01,0.013l0.037,0.045l0.02,0.019l0.055,0.066l0.006,0.005l0.067,0.08l0.006,0.008
			l0.063,0.075l0.007,0.004l0.053,0.066l0.019,0.024l0.037,0.045l0.04,0.048l0.015,0.019l0.038,0.048l0.02,0.024l0.022,0.029
			l0.032,0.04l0.013,0.016l0.031,0.04l0.025,0.035l0.01,0.016l0.025,0.035l0.015,0.022l0.016,0.022l0.018,0.024l0.014,0.019
			l0.015,0.024l0.008,0.013l0.016,0.024l0.01,0.016l0.008,0.016l0.008,0.016c0.004,0.005,0.007,0.01,0.007,0.013l0.002,0.002
			c0.003,0.008,0.006,0.013,0.006,0.021c0.002,0.005,0.002,0.008,0.005,0.014c0,0.001,0,0.004,0,0.007c0.003,0.002,0,0.005,0,0.011
			v0.002c0,0.005-0.003,0.008-0.005,0.011c-0.003,0.002-0.006,0.005-0.008,0.005h-0.006h-0.011l-0.006-0.003
			c-0.005,0-0.009,0-0.015-0.002c-0.006-0.003-0.014-0.005-0.021-0.008l-0.016-0.008l-0.015-0.008l-0.015-0.007l-0.018-0.012
			l-0.022-0.013l-0.016-0.008l-0.024-0.016l-0.019-0.013l-0.023-0.016l-0.022-0.016l-0.022-0.016l-0.032-0.024l-0.019-0.013
			l-0.032-0.022l-0.042-0.033l-0.015-0.013l-0.041-0.032l-0.026-0.021l-0.026-0.021l-0.048-0.037l-0.019-0.016l-0.048-0.037
			l-0.045-0.037l-0.022-0.019l-0.066-0.056l-0.006-0.005l-0.075-0.063l-0.008-0.004l-0.078-0.068l-0.007-0.008l-0.063-0.056
			l-0.021-0.016l-0.045-0.04l-0.011-0.011l-0.069-0.058l-0.016-0.013l-0.048-0.042l-0.052-0.045l-0.046-0.042l-0.056-0.051
			l-0.048-0.04l-0.025-0.02l-0.064-0.06l-0.017-0.016l-0.065-0.058l-0.043-0.04l-0.021-0.019l-0.086-0.077l-0.005-0.005
			l-0.076-0.065l-0.042-0.041l-0.077-0.072l-0.04-0.034l-0.008-0.005c-0.116-0.109-0.238-0.223-0.367-0.339l-0.101-0.093
			l-0.03-0.026c-0.088-0.083-0.178-0.167-0.27-0.252l-0.116-0.109l-0.022-0.021c-0.093-0.088-0.188-0.178-0.284-0.268l-0.135-0.127
			l-0.014-0.011l-0.141-0.133l-0.009-0.008l-0.145-0.141l-0.008-0.005c-0.151-0.143-0.308-0.294-0.467-0.445l-0.007-0.005
			l-0.155-0.148l-0.009-0.008l-0.152-0.148c-0.218-0.207-0.437-0.422-0.662-0.639l-0.009-0.008l-0.032-0.029l-0.141-0.138
			l-0.035-0.035l-0.14-0.135c-0.701-0.684-1.443-1.413-2.209-2.179c-4.088,4.076-7.477,7.207-7.639,7.047
			c-0.159-0.159,2.972-3.55,7.047-7.639c-0.766-0.767-1.494-1.506-2.179-2.208l-0.134-0.138l-0.036-0.034l-0.136-0.144l-0.031-0.032
			l-0.008-0.008c-0.22-0.226-0.431-0.445-0.639-0.663l-0.148-0.154l-0.008-0.008l-0.148-0.156l-0.006-0.005
			c-0.151-0.159-0.3-0.315-0.445-0.467l-0.005-0.008l-0.14-0.146l-0.009-0.008l-0.133-0.141l-0.011-0.013l-0.127-0.133l-0.269-0.286
			l-0.021-0.021l-0.109-0.117c-0.085-0.093-0.168-0.183-0.249-0.271l-0.029-0.032l-0.093-0.097c-0.116-0.128-0.23-0.253-0.339-0.37
			l-0.006-0.008l-0.034-0.037l-0.071-0.08l-0.039-0.042l-0.066-0.074l-0.006-0.005l-0.077-0.085l-0.019-0.024l-0.04-0.042
			l-0.058-0.066l-0.015-0.015l-0.059-0.068l-0.022-0.023l-0.04-0.045l-0.051-0.058l-0.042-0.045l-0.045-0.053l-0.043-0.046
			l-0.013-0.018l-0.059-0.069l-0.012-0.01l-0.038-0.045l-0.017-0.021l-0.056-0.063l-0.007-0.008l-0.067-0.077l-0.005-0.008
			l-0.063-0.074l-0.006-0.008l-0.056-0.066l-0.019-0.021l-0.037-0.045l-0.038-0.048l-0.015-0.019l-0.039-0.048l-0.02-0.026
			l-0.021-0.026l-0.031-0.042l-0.014-0.014l-0.031-0.042l-0.024-0.032l-0.013-0.017l-0.022-0.033l-0.018-0.021l-0.016-0.024
			l-0.017-0.024l-0.012-0.019l-0.018-0.024l-0.008-0.016l-0.015-0.021l-0.009-0.019l-0.008-0.013l-0.008-0.016
			c-0.003-0.005-0.006-0.01-0.009-0.016c-0.002-0.008-0.005-0.016-0.008-0.021c0-0.005-0.002-0.01-0.002-0.013
			c0-0.002-0.003-0.005-0.003-0.008s0-0.008,0-0.011v-0.002C322.837,79.662,322.837,79.66,322.839,79.657"/>
	</g>
	<g display="inline">
		<path fill-rule="evenodd" clip-rule="evenodd" fill="#FFFFFF" d="M284.737,302.518c0.006,0,0.011,0.003,0.018,0.005
			c0.001,0.003,0.004,0.006,0.005,0.006c0.004,0.002,0.009,0.008,0.013,0.014l0.006,0.01l0.013,0.016v0.004
			c0.005,0.01,0.011,0.021,0.016,0.033v0.004l0.009,0.025l0.009,0.025l0.008,0.025l0.009,0.031l0.011,0.046l0.006,0.026l0.01,0.045
			l0.007,0.037l0.008,0.045l0.009,0.048l0.009,0.042l0.008,0.066l0.006,0.035l0.01,0.066l0.013,0.084l0.002,0.032l0.011,0.085
			l0.007,0.059l0.008,0.053l0.011,0.098l0.003,0.04l0.011,0.101l0.009,0.096l0.004,0.048l0.014,0.141l0.002,0.013l0.014,0.162v0.014
			l0.015,0.172l0.001,0.014l0.01,0.141l0.004,0.045l0.008,0.093v0.028l0.011,0.148l0.003,0.032l0.008,0.107l0.007,0.114l0.006,0.102
			l0.007,0.123l0.007,0.104l0.003,0.053l0.008,0.143l0.002,0.037l0.009,0.144l0.005,0.099l0.003,0.047l0.011,0.188v0.011
			l0.008,0.167l0.004,0.09l0.009,0.178l0.006,0.085v0.018c0.011,0.261,0.023,0.533,0.034,0.817l0.01,0.226l0.002,0.068
			c0.007,0.197,0.015,0.398,0.022,0.605l0.009,0.262l0.002,0.051c0.007,0.209,0.014,0.424,0.021,0.645l0.009,0.302v0.029
			l0.011,0.315v0.021l0.008,0.328v0.014c0.008,0.348,0.019,0.703,0.026,1.066v0.01l0.008,0.355v0.021l0.009,0.349
			c0.008,0.491,0.019,0.995,0.026,1.513v0.021l0.001,0.068l0.005,0.326l0.002,0.08l0.003,0.32c0.023,1.607,0.034,3.32,0.037,5.099
			c9.489,0.014,17.072,0.315,17.072,0.687s-7.583,0.674-17.072,0.689c-0.003,1.779-0.014,3.49-0.037,5.1l-0.003,0.317l-0.002,0.083
			l-0.005,0.322l-0.001,0.072v0.021c-0.008,0.517-0.019,1.021-0.026,1.512l-0.009,0.35v0.021l-0.008,0.352v0.016
			c-0.008,0.361-0.019,0.717-0.026,1.061v0.014l-0.008,0.332v0.021l-0.011,0.314v0.029l-0.009,0.303l-0.021,0.645l-0.002,0.051
			l-0.009,0.262c-0.008,0.207-0.016,0.406-0.022,0.604l-0.002,0.069l-0.01,0.223c-0.011,0.283-0.023,0.559-0.034,0.822v0.013
			l-0.006,0.087l-0.009,0.178l-0.004,0.09l-0.008,0.165v0.013l-0.011,0.189l-0.003,0.047l-0.005,0.098l-0.009,0.145l-0.002,0.037
			l-0.008,0.143l-0.003,0.053l-0.007,0.103l-0.007,0.123l-0.006,0.104l-0.007,0.114l-0.008,0.104l-0.003,0.034l-0.011,0.148v0.026
			l-0.008,0.096l-0.004,0.045l-0.01,0.141l-0.001,0.014l-0.015,0.169v0.013l-0.014,0.165l-0.002,0.011L285,336.688l-0.004,0.049
			l-0.009,0.095l-0.011,0.099l-0.003,0.042l-0.011,0.099l-0.008,0.053l-0.007,0.056l-0.011,0.087l-0.002,0.029l-0.013,0.088
			l-0.01,0.066l-0.006,0.034l-0.008,0.066l-0.009,0.042l-0.009,0.045l-0.008,0.049l-0.007,0.037l-0.01,0.045l-0.006,0.025
			l-0.011,0.047l-0.009,0.027l-0.008,0.029l-0.009,0.024c-0.002,0.008-0.005,0.019-0.009,0.026
			c-0.005,0.016-0.011,0.027-0.016,0.037c-0.006,0.008-0.008,0.014-0.013,0.019c-0.002,0.003-0.004,0.009-0.006,0.011
			c-0.004,0.006-0.009,0.008-0.013,0.014l-0.005,0.002c-0.007,0.006-0.012,0.008-0.018,0.008c-0.005,0-0.013-0.002-0.019-0.008
			c-0.001,0-0.002-0.002-0.005-0.002c-0.004-0.006-0.007-0.008-0.011-0.014l-0.008-0.011c-0.003-0.005-0.008-0.011-0.011-0.019l0,0
			c-0.005-0.01-0.011-0.021-0.016-0.037h-0.002l-0.009-0.026l-0.007-0.024l-0.008-0.029l-0.009-0.027l-0.011-0.047l-0.006-0.025
			l-0.011-0.045l-0.008-0.037l-0.008-0.049l-0.008-0.045l-0.008-0.042l-0.011-0.066l-0.003-0.034l-0.012-0.066l-0.011-0.088
			l-0.004-0.029l-0.011-0.087l-0.008-0.056l-0.005-0.053l-0.011-0.099l-0.004-0.042l-0.011-0.099l-0.008-0.095l-0.006-0.049
			l-0.012-0.143l-0.003-0.011l-0.013-0.165v-0.013l-0.015-0.169l-0.002-0.014l-0.01-0.141l-0.003-0.045l-0.008-0.096l-0.003-0.026
			l-0.008-0.148l-0.003-0.034l-0.008-0.104l-0.008-0.114l-0.007-0.104l-0.007-0.123l-0.007-0.103l-0.002-0.053l-0.01-0.143
			l-0.002-0.037l-0.006-0.145l-0.005-0.098l-0.003-0.047l-0.011-0.189l-0.001-0.013l-0.007-0.165l-0.005-0.09l-0.009-0.178
			l-0.005-0.087v-0.013c-0.011-0.264-0.023-0.539-0.036-0.822l-0.008-0.223l-0.003-0.069c-0.009-0.196-0.014-0.397-0.022-0.604
			l-0.008-0.262l-0.003-0.051c-0.008-0.21-0.014-0.425-0.02-0.645l-0.009-0.303l-0.003-0.029l-0.008-0.314v-0.021l-0.008-0.332
			v-0.014c-0.011-0.344-0.021-0.699-0.027-1.061l-0.001-0.016l-0.007-0.352l-0.001-0.021l-0.007-0.35
			c-0.011-0.491-0.019-0.995-0.027-1.512v-0.021l-0.002-0.072l-0.004-0.322l-0.001-0.083l-0.004-0.317
			c-0.022-1.609-0.033-3.32-0.039-5.1c-9.489-0.016-17.069-0.318-17.069-0.689s7.58-0.673,17.069-0.687
			c0.006-1.778,0.017-3.491,0.039-5.099l0.004-0.32l0.001-0.08l0.004-0.326l0.002-0.068v-0.021c0.009-0.518,0.017-1.021,0.027-1.513
			l0.007-0.349l0.001-0.021l0.007-0.355l0.001-0.01c0.007-0.363,0.017-0.719,0.027-1.066v-0.014l0.008-0.328v-0.021l0.008-0.315
			l0.003-0.029l0.009-0.302l0.02-0.645l0.003-0.051l0.008-0.262c0.009-0.207,0.014-0.408,0.022-0.605l0.003-0.068l0.008-0.226
			c0.013-0.284,0.025-0.557,0.036-0.817v-0.018l0.005-0.085l0.009-0.178l0.005-0.09l0.007-0.167l0.001-0.011l0.011-0.188
			l0.003-0.047l0.005-0.099l0.006-0.144l0.002-0.037l0.01-0.143l0.002-0.053l0.007-0.104l0.007-0.123l0.007-0.102l0.008-0.114
			l0.008-0.107l0.003-0.032l0.008-0.148l0.003-0.028l0.008-0.093l0.003-0.045l0.01-0.141l0.002-0.014l0.015-0.172v-0.014
			l0.013-0.162l0.003-0.013l0.012-0.141l0.006-0.048l0.008-0.096l0.011-0.101l0.004-0.04l0.011-0.098l0.005-0.053l0.008-0.059
			l0.011-0.085l0.004-0.032l0.011-0.084l0.012-0.066l0.003-0.035l0.011-0.066l0.008-0.042l0.008-0.048l0.008-0.045l0.008-0.037
			l0.011-0.045l0.006-0.026l0.011-0.046l0.009-0.031l0.008-0.025l0.007-0.025c0.004-0.01,0.007-0.018,0.009-0.025l0.002-0.004
			c0.005-0.013,0.011-0.023,0.016-0.033v-0.004l0.011-0.016c0.003-0.005,0.005-0.006,0.008-0.01
			c0.004-0.006,0.007-0.012,0.011-0.014l0.005-0.006C284.725,302.521,284.732,302.518,284.737,302.518"/>
		<path fill-rule="evenodd" clip-rule="evenodd" fill="#FFFFFF" d="M277.099,312.641c0.003-0.003,0.006-0.005,0.011-0.005h0.003
			h0.012h0.008c0.004,0.002,0.007,0.002,0.013,0.005c0.008,0,0.013,0.003,0.021,0.008h0.003l0.015,0.009l0.015,0.005l0.016,0.008
			l0.018,0.011l0.022,0.016l0.013,0.008l0.025,0.016l0.019,0.014l0.022,0.016l0.024,0.016l0.021,0.018l0.033,0.023l0.018,0.013
			l0.034,0.024l0.04,0.031l0.016,0.011l0.043,0.032l0.025,0.021l0.024,0.021l0.051,0.04l0.016,0.013l0.048,0.04l0.045,0.037
			l0.024,0.019l0.066,0.056l0.005,0.006l0.077,0.061l0.005,0.008l0.08,0.066l0.005,0.005l0.065,0.056l0.02,0.02l0.045,0.037
			l0.014,0.01l0.068,0.061l0.015,0.014l0.048,0.043l0.052,0.045l0.048,0.042l0.056,0.048l0.048,0.043l0.023,0.021l0.065,0.059
			l0.016,0.016l0.067,0.056l0.043,0.043l0.021,0.018l0.085,0.078l0.007,0.005l0.073,0.066l0.042,0.037l0.08,0.071l0.039,0.037
			l0.006,0.006c0.119,0.108,0.241,0.22,0.368,0.339l0.101,0.091l0.029,0.028c0.089,0.083,0.181,0.165,0.271,0.252l0.117,0.108
			l0.021,0.021c0.095,0.088,0.191,0.176,0.286,0.268l0.136,0.125l0.012,0.014l0.14,0.133l0.011,0.008l0.146,0.137l0.005,0.006
			c0.153,0.146,0.31,0.295,0.47,0.448l0.005,0.005l0.154,0.148l0.011,0.008l0.153,0.148c0.215,0.207,0.437,0.42,0.66,0.64
			l0.011,0.008l0.03,0.029l0.143,0.138l0.034,0.035l0.141,0.135c0.699,0.682,1.442,1.413,2.208,2.177
			c4.086-4.073,7.478-7.204,7.637-7.045c0.161,0.159-2.97,3.55-7.045,7.636c0.764,0.767,1.495,1.51,2.177,2.209l0.137,0.141
			l0.033,0.034l0.138,0.144l0.029,0.029l0.008,0.01c0.22,0.227,0.434,0.445,0.64,0.66l0.147,0.154l0.008,0.011l0.15,0.153
			l0.007,0.006c0.15,0.159,0.299,0.318,0.443,0.469l0.007,0.006l0.138,0.146l0.01,0.011l0.131,0.141l0.014,0.011l0.124,0.135
			l0.271,0.286l0.021,0.021l0.107,0.118c0.086,0.091,0.169,0.182,0.252,0.269l0.028,0.029l0.093,0.102
			c0.117,0.127,0.231,0.249,0.337,0.368l0.006,0.005l0.035,0.04l0.073,0.079l0.037,0.043l0.067,0.074l0.004,0.006l0.077,0.084
			l0.02,0.021l0.042,0.045l0.058,0.066l0.015,0.016l0.059,0.064l0.02,0.023l0.043,0.048l0.049,0.056l0.041,0.048l0.048,0.053
			l0.04,0.048l0.013,0.014l0.062,0.068l0.01,0.014l0.037,0.045l0.02,0.019l0.055,0.066l0.006,0.005l0.067,0.08l0.006,0.008
			l0.063,0.075l0.007,0.004l0.053,0.066l0.019,0.024l0.037,0.045l0.04,0.047l0.015,0.02l0.038,0.047l0.02,0.024l0.022,0.028
			l0.032,0.041l0.013,0.016l0.031,0.039l0.025,0.035l0.01,0.016l0.025,0.035l0.015,0.021l0.016,0.023l0.018,0.023l0.014,0.019
			l0.015,0.024l0.008,0.013l0.016,0.024l0.01,0.016l0.008,0.016l0.008,0.016c0.004,0.006,0.007,0.011,0.007,0.014l0.002,0.002
			c0.003,0.008,0.006,0.014,0.006,0.021c0.002,0.006,0.002,0.008,0.005,0.015c0,0.001,0,0.005,0,0.007c0.003,0.002,0,0.006,0,0.011
			v0.003c0,0.005-0.003,0.008-0.005,0.01c-0.003,0.003-0.006,0.006-0.008,0.006h-0.006h-0.011l-0.006-0.003
			c-0.005,0-0.009,0-0.015-0.003c-0.006-0.002-0.014-0.005-0.021-0.008l-0.016-0.008l-0.015-0.008l-0.015-0.007l-0.018-0.012
			l-0.022-0.013l-0.016-0.008l-0.024-0.017l-0.019-0.013l-0.023-0.017l-0.022-0.016l-0.022-0.017l-0.032-0.023l-0.019-0.014
			l-0.032-0.021l-0.042-0.033l-0.015-0.014l-0.041-0.031l-0.026-0.021l-0.026-0.021l-0.048-0.037l-0.019-0.016l-0.048-0.037
			l-0.045-0.037l-0.022-0.02l-0.066-0.055l-0.006-0.006l-0.075-0.063l-0.008-0.004l-0.078-0.067l-0.007-0.008l-0.063-0.057
			l-0.021-0.016l-0.045-0.039l-0.011-0.012l-0.069-0.058l-0.016-0.013l-0.048-0.043l-0.052-0.045l-0.046-0.043l-0.056-0.051
			l-0.048-0.039l-0.025-0.02l-0.064-0.061l-0.017-0.016l-0.065-0.059l-0.043-0.039l-0.021-0.019l-0.086-0.077l-0.005-0.006
			l-0.076-0.064l-0.042-0.041l-0.077-0.072l-0.04-0.033l-0.008-0.006c-0.116-0.109-0.238-0.223-0.367-0.34l-0.101-0.092l-0.03-0.027
			c-0.088-0.082-0.178-0.167-0.27-0.252l-0.116-0.108l-0.022-0.021c-0.093-0.088-0.188-0.178-0.284-0.269l-0.135-0.127l-0.014-0.011
			l-0.141-0.133l-0.009-0.008l-0.145-0.141l-0.008-0.006c-0.151-0.143-0.308-0.293-0.467-0.445l-0.007-0.005l-0.155-0.148
			l-0.009-0.008l-0.152-0.148c-0.218-0.207-0.437-0.422-0.662-0.64l-0.009-0.008l-0.032-0.029l-0.141-0.137l-0.035-0.035
			l-0.14-0.135c-0.701-0.685-1.443-1.414-2.209-2.18c-4.088,4.076-7.477,7.207-7.639,7.047c-0.159-0.158,2.972-3.55,7.047-7.639
			c-0.766-0.766-1.494-1.506-2.179-2.208l-0.134-0.138l-0.036-0.035l-0.136-0.143l-0.031-0.032l-0.008-0.008
			c-0.22-0.226-0.431-0.445-0.639-0.663l-0.148-0.154l-0.008-0.008l-0.148-0.156l-0.006-0.005c-0.151-0.159-0.3-0.315-0.445-0.467
			l-0.005-0.008l-0.14-0.146l-0.009-0.008l-0.133-0.141l-0.011-0.014l-0.127-0.133l-0.269-0.286l-0.021-0.021l-0.109-0.117
			c-0.085-0.093-0.168-0.184-0.249-0.271l-0.029-0.032l-0.093-0.097c-0.116-0.128-0.23-0.253-0.339-0.37l-0.006-0.008l-0.034-0.037
			l-0.071-0.079l-0.039-0.042l-0.066-0.074l-0.006-0.006l-0.077-0.085l-0.019-0.024l-0.04-0.042l-0.058-0.065l-0.015-0.016
			l-0.059-0.067l-0.022-0.023l-0.04-0.046l-0.051-0.058l-0.042-0.046l-0.045-0.053l-0.043-0.046l-0.013-0.018l-0.059-0.069
			l-0.012-0.01l-0.038-0.045l-0.017-0.021l-0.056-0.063l-0.007-0.009l-0.067-0.076l-0.005-0.008l-0.063-0.074l-0.006-0.008
			l-0.056-0.066l-0.019-0.021l-0.037-0.045l-0.038-0.048l-0.015-0.019l-0.039-0.048l-0.02-0.026l-0.021-0.026l-0.031-0.042
			l-0.014-0.014l-0.031-0.043l-0.024-0.031l-0.013-0.018l-0.022-0.033l-0.018-0.021l-0.016-0.023l-0.017-0.023l-0.012-0.02
			l-0.018-0.023l-0.008-0.016l-0.015-0.021l-0.009-0.019l-0.008-0.013l-0.008-0.017c-0.003-0.005-0.006-0.011-0.009-0.016
			c-0.002-0.008-0.005-0.017-0.008-0.021c0-0.005-0.002-0.011-0.002-0.013c0-0.003-0.003-0.006-0.003-0.008c0-0.003,0-0.008,0-0.012
			v-0.002C277.097,312.646,277.097,312.644,277.099,312.641"/>
	</g>
	<g display="inline">
		<path fill-rule="evenodd" clip-rule="evenodd" fill="#FFFFFF" d="M538.19,207.559c0.009,0,0.017,0.004,0.028,0.009
			c0.001,0.004,0.006,0.009,0.008,0.009c0.006,0.004,0.014,0.013,0.021,0.021l0.009,0.018l0.021,0.025v0.005
			c0.008,0.017,0.018,0.034,0.025,0.055v0.004l0.015,0.042l0.014,0.041l0.013,0.04l0.014,0.051l0.018,0.073l0.01,0.042l0.016,0.072
			l0.011,0.06l0.013,0.073l0.014,0.076l0.015,0.068l0.013,0.107l0.009,0.055l0.017,0.107l0.021,0.137l0.003,0.051l0.017,0.137
			l0.012,0.094l0.013,0.085l0.017,0.158l0.005,0.063l0.018,0.163l0.014,0.153l0.007,0.077l0.021,0.227l0.004,0.021l0.021,0.26v0.021
			l0.023,0.277l0.002,0.021l0.016,0.226l0.006,0.072l0.013,0.15v0.046l0.018,0.239l0.005,0.051l0.013,0.173l0.011,0.184l0.01,0.164
			l0.011,0.198l0.011,0.165l0.005,0.085l0.013,0.23l0.003,0.06l0.015,0.231l0.008,0.158l0.004,0.076l0.018,0.304v0.017l0.013,0.269
			l0.006,0.145l0.015,0.286l0.01,0.137v0.027c0.017,0.421,0.037,0.86,0.055,1.317l0.016,0.363l0.003,0.111
			c0.012,0.316,0.023,0.641,0.036,0.973l0.015,0.423l0.003,0.081c0.011,0.337,0.022,0.683,0.033,1.037l0.014,0.487v0.047
			l0.018,0.508v0.034l0.013,0.529v0.021c0.013,0.56,0.03,1.131,0.042,1.716v0.017l0.013,0.572v0.034l0.015,0.562
			c0.013,0.792,0.029,1.603,0.042,2.436v0.034l0.002,0.111l0.008,0.525l0.003,0.128l0.005,0.516c0.038,2.587,0.055,5.345,0.06,8.208
			c15.277,0.022,27.485,0.509,27.485,1.106c0,0.597-12.208,1.084-27.485,1.11c-0.005,2.864-0.021,5.617-0.06,8.208l-0.005,0.512
			l-0.003,0.133l-0.008,0.521l-0.002,0.115v0.034c-0.013,0.832-0.029,1.644-0.042,2.435l-0.015,0.562v0.034l-0.013,0.568v0.023
			c-0.012,0.583-0.029,1.154-0.042,1.709v0.021l-0.013,0.534v0.035l-0.018,0.508v0.047l-0.014,0.487l-0.033,1.037l-0.003,0.083
			l-0.015,0.42c-0.013,0.333-0.024,0.653-0.036,0.973l-0.003,0.111l-0.016,0.358c-0.018,0.457-0.038,0.901-0.055,1.326v0.02
			l-0.01,0.141l-0.015,0.286l-0.006,0.145l-0.013,0.265v0.021l-0.018,0.305l-0.004,0.075l-0.008,0.158l-0.015,0.231l-0.003,0.06
			l-0.013,0.23l-0.005,0.085l-0.011,0.165l-0.011,0.198l-0.01,0.167l-0.011,0.183l-0.013,0.167l-0.005,0.056l-0.018,0.239v0.042
			l-0.013,0.154l-0.006,0.072l-0.016,0.226l-0.002,0.021l-0.023,0.273v0.021l-0.021,0.265l-0.004,0.017l-0.021,0.23l-0.007,0.077
			l-0.014,0.153l-0.018,0.158l-0.005,0.068l-0.017,0.158l-0.013,0.085l-0.012,0.09l-0.017,0.141l-0.003,0.047l-0.021,0.141
			l-0.017,0.107l-0.009,0.055l-0.013,0.107l-0.015,0.068l-0.014,0.072l-0.013,0.077l-0.011,0.06l-0.016,0.073l-0.01,0.042
			l-0.018,0.074l-0.014,0.045l-0.013,0.047l-0.014,0.039c-0.004,0.013-0.009,0.03-0.015,0.042c-0.008,0.026-0.018,0.043-0.025,0.06
			c-0.009,0.013-0.013,0.022-0.021,0.03c-0.003,0.005-0.006,0.014-0.009,0.018c-0.007,0.008-0.015,0.012-0.021,0.021l-0.008,0.005
			c-0.012,0.008-0.02,0.012-0.028,0.012c-0.008,0-0.021-0.004-0.03-0.012c-0.002,0-0.003-0.005-0.008-0.005
			c-0.006-0.009-0.011-0.013-0.018-0.021l-0.012-0.018c-0.005-0.008-0.013-0.017-0.018-0.03l0,0
			c-0.008-0.017-0.018-0.034-0.025-0.06h-0.003l-0.015-0.042l-0.011-0.039l-0.013-0.047l-0.014-0.045l-0.018-0.074l-0.01-0.042
			l-0.017-0.073l-0.013-0.06l-0.013-0.077l-0.013-0.072l-0.013-0.068l-0.018-0.107l-0.005-0.055l-0.019-0.107l-0.017-0.141
			l-0.007-0.047l-0.018-0.141l-0.013-0.09l-0.008-0.085l-0.017-0.158l-0.007-0.068l-0.017-0.158l-0.013-0.153l-0.01-0.077
			l-0.019-0.23l-0.005-0.017l-0.021-0.265v-0.021l-0.023-0.273l-0.003-0.021l-0.016-0.226l-0.005-0.072l-0.013-0.154l-0.005-0.042
			l-0.013-0.239l-0.005-0.056l-0.013-0.167l-0.013-0.183l-0.011-0.167l-0.011-0.198l-0.011-0.165l-0.004-0.085l-0.016-0.23
			l-0.003-0.06l-0.01-0.231l-0.008-0.158l-0.004-0.075l-0.018-0.305l-0.002-0.021l-0.011-0.265L537.5,258.5l-0.015-0.286
			l-0.008-0.141v-0.02c-0.017-0.425-0.037-0.869-0.058-1.326l-0.013-0.358l-0.005-0.111c-0.014-0.316-0.021-0.641-0.036-0.973
			l-0.013-0.42l-0.005-0.083c-0.013-0.337-0.021-0.683-0.031-1.037l-0.014-0.487l-0.005-0.047l-0.013-0.508v-0.035l-0.013-0.534
			v-0.021c-0.018-0.555-0.033-1.126-0.044-1.709l-0.002-0.023l-0.011-0.568l-0.001-0.034l-0.012-0.562
			c-0.017-0.792-0.029-1.603-0.044-2.435v-0.034l-0.003-0.115l-0.007-0.521l-0.001-0.133l-0.007-0.512
			c-0.036-2.591-0.053-5.345-0.062-8.208c-15.277-0.026-27.48-0.513-27.48-1.11c0-0.598,12.203-1.084,27.48-1.106
			c0.01-2.864,0.026-5.621,0.062-8.208l0.007-0.516l0.001-0.128l0.007-0.525l0.003-0.111v-0.034
			c0.015-0.833,0.027-1.644,0.044-2.436l0.012-0.562l0.001-0.034l0.011-0.572l0.002-0.017c0.011-0.585,0.026-1.156,0.044-1.716
			v-0.021l0.013-0.529v-0.034l0.013-0.508l0.005-0.047l0.014-0.487l0.031-1.037l0.005-0.081l0.013-0.423
			c0.015-0.333,0.022-0.657,0.036-0.973l0.005-0.111l0.013-0.363c0.021-0.457,0.041-0.896,0.058-1.317v-0.027l0.008-0.137
			l0.015-0.286l0.008-0.145l0.011-0.269l0.002-0.017l0.018-0.304l0.004-0.076l0.008-0.158l0.01-0.231l0.003-0.06l0.016-0.23
			l0.004-0.085l0.011-0.165l0.011-0.198l0.011-0.164l0.013-0.184l0.013-0.173l0.005-0.051l0.013-0.239l0.005-0.046l0.013-0.15
			l0.005-0.072l0.016-0.226l0.003-0.021l0.023-0.277v-0.021l0.021-0.26l0.005-0.021l0.019-0.227l0.01-0.077l0.013-0.153l0.017-0.163
			l0.007-0.063l0.017-0.158l0.008-0.085l0.013-0.094l0.018-0.137l0.007-0.051l0.017-0.137l0.019-0.107l0.005-0.055l0.018-0.107
			l0.013-0.068l0.013-0.076l0.013-0.073l0.013-0.06l0.017-0.072l0.01-0.042l0.018-0.073l0.014-0.051l0.013-0.04l0.011-0.041
			c0.007-0.017,0.012-0.03,0.015-0.042l0.003-0.004c0.008-0.021,0.018-0.039,0.025-0.055v-0.005l0.018-0.025
			c0.004-0.009,0.008-0.011,0.012-0.018c0.007-0.008,0.012-0.017,0.018-0.021l0.008-0.009
			C538.17,207.562,538.183,207.559,538.19,207.559"/>
		<path fill-rule="evenodd" clip-rule="evenodd" fill="#FFFFFF" d="M525.893,223.856c0.005-0.004,0.009-0.009,0.018-0.009h0.004
			h0.02h0.012c0.007,0.005,0.012,0.005,0.021,0.009c0.013,0,0.021,0.004,0.033,0.012h0.005l0.023,0.014l0.023,0.008l0.025,0.013
			l0.028,0.018l0.036,0.025l0.021,0.013l0.041,0.026l0.03,0.021l0.036,0.026l0.039,0.025l0.033,0.028l0.053,0.036l0.028,0.021
			l0.056,0.039l0.064,0.051l0.024,0.018l0.069,0.051l0.041,0.034l0.039,0.035l0.082,0.064l0.025,0.021l0.077,0.064l0.072,0.06
			l0.039,0.03l0.107,0.089l0.008,0.009l0.124,0.098l0.008,0.013l0.129,0.107l0.008,0.008l0.105,0.09l0.031,0.03l0.072,0.06
			l0.022,0.017l0.109,0.098l0.023,0.021l0.077,0.068l0.084,0.073l0.077,0.068l0.089,0.077l0.077,0.068l0.038,0.034l0.105,0.094
			l0.024,0.025l0.109,0.09l0.068,0.068l0.033,0.03l0.137,0.124l0.011,0.009l0.118,0.107l0.067,0.06l0.129,0.115l0.063,0.06
			l0.01,0.009c0.191,0.175,0.388,0.354,0.592,0.546l0.162,0.146l0.048,0.046c0.143,0.133,0.29,0.265,0.435,0.406l0.189,0.175
			l0.033,0.034c0.152,0.142,0.308,0.282,0.46,0.432l0.219,0.201l0.019,0.021l0.226,0.214l0.017,0.013l0.234,0.222l0.008,0.008
			c0.247,0.235,0.499,0.474,0.757,0.722l0.008,0.009l0.248,0.239l0.018,0.012l0.246,0.239c0.347,0.333,0.703,0.674,1.063,1.029
			l0.018,0.013l0.048,0.047l0.229,0.222l0.056,0.056l0.227,0.218c1.125,1.097,2.321,2.275,3.555,3.504
			c6.578-6.559,12.038-11.598,12.294-11.342c0.26,0.256-4.78,5.716-11.342,12.294c1.229,1.233,2.407,2.429,3.505,3.555l0.22,0.227
			l0.054,0.055l0.222,0.231l0.047,0.046l0.013,0.017c0.354,0.363,0.698,0.717,1.03,1.063l0.237,0.248l0.013,0.017l0.242,0.248
			l0.011,0.008c0.242,0.256,0.481,0.512,0.714,0.755l0.011,0.009l0.222,0.234l0.016,0.017l0.211,0.227l0.021,0.017l0.2,0.217
			l0.436,0.461l0.033,0.034l0.173,0.19c0.138,0.147,0.271,0.292,0.405,0.433l0.046,0.047l0.149,0.162
			c0.188,0.205,0.372,0.402,0.542,0.593l0.01,0.009l0.057,0.064l0.117,0.128l0.061,0.068l0.108,0.12l0.006,0.008l0.124,0.137
			l0.032,0.034l0.067,0.073l0.093,0.106l0.023,0.026l0.095,0.102l0.031,0.039l0.069,0.077l0.078,0.09l0.066,0.077l0.077,0.085
			l0.064,0.077l0.021,0.021l0.099,0.111l0.016,0.021l0.06,0.073l0.031,0.03l0.089,0.107l0.009,0.008l0.108,0.128l0.01,0.014
			l0.103,0.121l0.011,0.006l0.085,0.107l0.029,0.039l0.061,0.072l0.064,0.077l0.023,0.03l0.062,0.077l0.031,0.039l0.036,0.046
			l0.052,0.064l0.021,0.026l0.05,0.064l0.041,0.056l0.016,0.025L550.26,248l0.023,0.036l0.025,0.036l0.028,0.039l0.022,0.03
			l0.023,0.039l0.013,0.021l0.024,0.039l0.016,0.025l0.013,0.026l0.013,0.026c0.007,0.008,0.012,0.017,0.012,0.021l0.003,0.004
			c0.005,0.013,0.009,0.021,0.009,0.035c0.004,0.008,0.004,0.013,0.008,0.023c0,0.002,0,0.007,0,0.011c0.005,0.004,0,0.009,0,0.018
			v0.004c0,0.009-0.004,0.013-0.008,0.017c-0.004,0.004-0.009,0.009-0.012,0.009h-0.01h-0.018l-0.01-0.005
			c-0.008,0-0.014,0-0.023-0.004c-0.009-0.004-0.021-0.008-0.034-0.012l-0.025-0.014l-0.023-0.013l-0.023-0.011l-0.028-0.019
			l-0.036-0.021l-0.025-0.013l-0.039-0.026l-0.03-0.021l-0.037-0.026l-0.036-0.025l-0.036-0.026l-0.053-0.039l-0.029-0.021
			l-0.052-0.036l-0.067-0.053l-0.024-0.021L549.746,248l-0.043-0.035l-0.042-0.034l-0.077-0.06l-0.03-0.026l-0.077-0.06l-0.072-0.06
			l-0.036-0.03l-0.106-0.089l-0.01-0.009l-0.121-0.102l-0.013-0.006l-0.125-0.109l-0.012-0.013l-0.102-0.089l-0.035-0.026
			l-0.072-0.064l-0.017-0.017l-0.112-0.094l-0.025-0.021l-0.077-0.068l-0.083-0.073l-0.073-0.067l-0.09-0.082l-0.077-0.063
			l-0.041-0.032l-0.104-0.096l-0.027-0.026l-0.104-0.094l-0.069-0.063l-0.035-0.03l-0.138-0.124l-0.008-0.009l-0.123-0.104
			l-0.067-0.066l-0.124-0.116l-0.064-0.055l-0.013-0.009c-0.188-0.175-0.384-0.358-0.592-0.546l-0.161-0.149l-0.049-0.042
			c-0.142-0.133-0.286-0.27-0.435-0.406l-0.187-0.175l-0.036-0.034c-0.149-0.142-0.304-0.286-0.458-0.432l-0.217-0.205l-0.022-0.017
			l-0.226-0.214l-0.015-0.013l-0.232-0.226l-0.013-0.009c-0.244-0.23-0.495-0.473-0.752-0.717l-0.011-0.009l-0.25-0.239
			l-0.014-0.012l-0.245-0.239c-0.352-0.333-0.703-0.679-1.066-1.029l-0.014-0.013l-0.053-0.047l-0.226-0.222l-0.057-0.056
			l-0.226-0.218c-1.129-1.101-2.323-2.275-3.556-3.508c-6.581,6.562-12.037,11.602-12.298,11.346
			c-0.257-0.256,4.784-5.715,11.345-12.297c-1.232-1.234-2.405-2.425-3.508-3.556l-0.215-0.223l-0.059-0.055l-0.219-0.231
			l-0.05-0.051l-0.013-0.012c-0.354-0.363-0.693-0.717-1.028-1.068l-0.239-0.248l-0.013-0.013l-0.238-0.251l-0.01-0.008
			c-0.243-0.256-0.482-0.508-0.717-0.752l-0.008-0.012l-0.225-0.235l-0.015-0.012l-0.214-0.227l-0.017-0.021l-0.205-0.213
			l-0.432-0.461l-0.033-0.034l-0.177-0.188c-0.137-0.149-0.27-0.295-0.4-0.436l-0.047-0.051l-0.149-0.157
			c-0.188-0.207-0.371-0.407-0.546-0.595l-0.01-0.013l-0.055-0.06l-0.115-0.128l-0.062-0.068l-0.106-0.12l-0.01-0.009l-0.124-0.137
			l-0.03-0.038l-0.064-0.069l-0.093-0.106l-0.023-0.023l-0.095-0.109l-0.036-0.038l-0.064-0.073l-0.081-0.094l-0.068-0.073
			l-0.072-0.085l-0.068-0.075l-0.021-0.028l-0.095-0.111l-0.019-0.017l-0.062-0.073l-0.026-0.034l-0.09-0.102l-0.011-0.014
			l-0.109-0.123l-0.008-0.014l-0.102-0.119l-0.01-0.013l-0.09-0.107l-0.029-0.034l-0.06-0.072l-0.062-0.077l-0.023-0.03
			l-0.063-0.077l-0.031-0.042l-0.034-0.042l-0.051-0.068l-0.021-0.022l-0.051-0.068l-0.039-0.052l-0.021-0.027l-0.036-0.054
			l-0.028-0.034l-0.025-0.039l-0.026-0.039l-0.02-0.03l-0.028-0.039l-0.012-0.025l-0.024-0.035l-0.014-0.03l-0.013-0.021
			l-0.013-0.026c-0.005-0.008-0.009-0.017-0.014-0.025c-0.004-0.013-0.008-0.026-0.013-0.035c0-0.008-0.003-0.017-0.003-0.021
			c0-0.004-0.005-0.008-0.005-0.012c0-0.004,0-0.013,0-0.018v-0.004C525.89,223.865,525.89,223.861,525.893,223.856"/>
	</g>
	<path display="inline" fill="#FF6106" d="M217.901,341.16c-3.075,0-5.67,1.961-6.668,4.689l-10.69-1.191
		c0.012-0.234,0.036-0.467,0.036-0.703c0-3.783-1.471-7.213-3.853-9.783l6.391-6.596c0.865,0.572,1.895,0.908,3.009,0.908
		c3.029,0,5.483-2.457,5.483-5.486c0-3.025-2.454-5.48-5.483-5.48c-3.027,0-5.48,2.455-5.48,5.48c0,0.814,0.185,1.574,0.5,2.264
		l-6.688,6.9l0.073,0.074c-2.358-1.684-5.234-2.684-8.353-2.684c-0.752,0-1.487,0.076-2.211,0.186l0.053-0.021l-3.914-9.459
		c2.292-1.182,3.876-3.549,3.876-6.305c0-3.938-3.188-7.129-7.122-7.129c-3.936,0-7.124,3.191-7.124,7.129
		c0,3.932,3.188,7.123,7.124,7.123c0.174,0,0.341-0.041,0.51-0.053l-0.19,0.078l3.892,9.398c-5.429,2.066-9.293,7.299-9.293,13.455
		c0,1.064,0.125,2.102,0.345,3.102l-5.621,1.797c-1.628-3.754-5.361-6.381-9.714-6.381c-5.845,0-10.585,4.74-10.585,10.584
		c0,5.848,4.74,10.588,10.585,10.588c5.849,0,10.586-4.74,10.586-10.588c0-0.438-0.032-0.861-0.085-1.281l5.796-1.85
		c2.199,4.812,6.966,8.197,12.556,8.404l0.302,7.977l0.16-0.006c-3.576,0.914-6.227,4.125-6.227,7.984
		c0,4.568,3.699,8.27,8.269,8.27c4.565,0,8.265-3.701,8.265-8.27c0-4.289-3.273-7.771-7.448-8.186l-0.303-7.973
		c5.551-0.963,9.997-5.098,11.425-10.475l10.752,1.197c0.289,3.668,3.325,6.564,7.067,6.564c3.933,0,7.125-3.193,7.125-7.129
		C225.026,344.352,221.833,341.16,217.901,341.16"/>
	<g display="inline">
		<path fill="#00AEB3" d="M128.41,111.323c0,12.481-10.113,22.595-22.588,22.595c-12.481,0-22.594-10.114-22.594-22.595
			c0-12.476,10.113-22.589,22.594-22.589C118.297,88.734,128.41,98.848,128.41,111.323z"/>
		<path fill="#00AEB3" d="M144.59,34.34c0,9.704-7.873,17.569-17.574,17.569s-17.571-7.865-17.571-17.569
			c0-9.706,7.87-17.576,17.571-17.576S144.59,24.634,144.59,34.34z"/>
		<path fill="#00AEB3" d="M68.649,49.993c5.854-0.23,10.784,4.326,11.014,10.174c0.23,5.849-4.326,10.778-10.177,11.005
			C63.635,71.403,58.706,66.85,58.479,61C58.251,55.15,62.804,50.224,68.649,49.993z"/>
		<path fill="#00AEB3" d="M145.477,176.341c-0.724,5.031-5.379,8.53-10.41,7.812c-5.038-0.717-8.535-5.383-7.814-10.414
			c0.717-5.033,5.376-8.531,10.407-7.813C142.7,166.644,146.2,171.307,145.477,176.341z"/>
		<path fill="#00AEB3" d="M47.243,122.763c0,6.623-5.37,11.991-11.994,11.991c-6.621,0-11.994-5.369-11.994-11.991
			c0-6.627,5.373-11.997,11.994-11.997C41.873,110.766,47.243,116.136,47.243,122.763z"/>
		<path fill="#00AEB3" d="M106.784,110.792c-1.791-0.475-2.847-2.307-2.374-4.096l19.219-72.239
			c0.478-1.787,2.307-2.848,4.098-2.373l0,0c1.788,0.472,2.85,2.307,2.371,4.094l-19.225,72.242
			C110.401,110.203,108.569,111.266,106.784,110.792L106.784,110.792z"/>
		<path fill="#00AEB3" d="M103.021,106.863c-1.009,0.724-2.412,0.49-3.138-0.52L70.642,65.531c-0.723-1.009-0.493-2.409,0.517-3.135
			l0,0c1.015-0.721,2.418-0.49,3.141,0.519l29.239,40.815C104.262,104.735,104.034,106.143,103.021,106.863L103.021,106.863z"/>
		<path fill="#00AEB3" d="M112.306,125.196c1.12-0.528,2.459-0.047,2.99,1.078l21.418,45.405c0.531,1.125,0.053,2.464-1.073,2.994
			l0,0c-1.12,0.529-2.459,0.048-2.99-1.072l-21.421-45.409C110.699,127.068,111.18,125.729,112.306,125.196L112.306,125.196z"/>
		<path fill="#00AEB3" d="M97.129,114.551c0.158,1.33-0.79,2.536-2.12,2.699l-53.767,6.534c-1.33,0.159-2.541-0.785-2.701-2.118l0,0
			c-0.161-1.328,0.788-2.538,2.115-2.697l53.766-6.536C95.759,112.274,96.969,113.219,97.129,114.551L97.129,114.551z"/>
	</g>
	<path display="inline" fill="#033757" d="M106.936,500.593c-2.596,0-4.95,0.98-6.748,2.588l-5.547-6.127
		c3.646-4.688,5.825-10.568,5.825-16.959c0-10.088-5.417-18.924-13.498-23.732l6.678-11.867c0.785,0.271,1.627,0.436,2.497,0.436
		c4.165,0,7.555-3.385,7.555-7.553s-3.381-7.553-7.546-7.553c-4.166,0-7.555,3.391-7.555,7.559c0,2.285,1.018,4.32,2.629,5.717
		l-6.754,11.947c-3.532-1.645-7.47-2.572-11.629-2.572c-6.36,0-12.204,2.162-16.868,5.762l-6.222-7.873
		c1.483-1.84,2.389-4.178,2.389-6.736c0-5.963-4.836-10.785-10.787-10.785c-5.958,0-10.788,4.826-10.788,10.785
		c0,5.967,4.829,10.791,10.788,10.791c2.38,0,4.588-0.789,6.371-2.092l6.118,7.75c-5.307,5.025-8.615,12.139-8.615,20.021
		c0,0.154,0.017,0.285,0.017,0.432h-6.828c-1.029-3.736-4.445-6.475-8.51-6.475c-4.896,0-8.845,3.967-8.845,8.84
		c0,4.893,3.949,8.855,8.845,8.855c4.808,0,8.714-3.852,8.828-8.631h6.663c1.117,10.395,8.037,19.043,17.425,22.711l-2.321,4.73
		c-1.449-0.586-3.034-0.895-4.706-0.895c-7.032,0-12.731,5.684-12.731,12.721c0,7.029,5.699,12.732,12.731,12.732
		c7.044,0,12.732-5.703,12.732-12.732c0-4.432-2.281-8.348-5.72-10.613l2.503-5.104c2.391,0.684,4.919,1.051,7.531,1.051
		c7.915,0,15.057-3.338,20.08-8.682l5.551,6.111c-1.062,1.607-1.688,3.521-1.688,5.592c0,5.609,4.55,10.143,10.15,10.143
		c5.59,0,10.143-4.533,10.143-10.143C117.079,505.144,112.525,500.593,106.936,500.593z"/>
	<g display="inline">
		<path fill="#033757" d="M56.616,187.925v-27.848h-0.007c-15.378,0-27.836,12.463-27.836,27.838c0,7.703,3.126,14.674,8.183,19.715
			l19.702-19.705H56.616z"/>
		<path fill="#033757" d="M39.301,210.952c5.038,5.02,11.984,8.126,19.655,8.126c15.372,0,27.834-12.458,27.838-27.83H59.008
			L39.301,210.952z"/>
		<path fill="#00AEB3" d="M60.332,160.077v27.846h27.835v-0.006C88.167,172.546,75.703,160.083,60.332,160.077"/>
	</g>
	<g display="inline">
		<path fill="#033757" d="M738.223,193.572c2.107-5.781,6.418-10.752,12.431-13.549l10.138,21.774L738.223,193.572z"/>
		<path fill="#033757" d="M756.037,185.086l10.137,21.774l-22.564-8.229c-2.108,5.777-2.01,12.356,0.789,18.366
			c5.599,12.024,19.888,17.237,31.914,11.64c12.023-5.598,17.236-19.89,11.638-31.914
			C782.354,184.7,768.062,179.489,756.037,185.086"/>
	</g>
	<g display="inline">
		<path fill="#00AEB3" d="M677.137,548.103l15.642,27.092c-4.205,2.096-8.927,3.302-13.944,3.302
			c-17.325,0-31.374-14.048-31.374-31.374c0-16.666,13.001-30.256,29.414-31.274v31.274
			C676.874,547.459,676.962,547.796,677.137,548.103"/>
		<path fill="#033757" d="M680.503,515.846v29.633h29.605C709.132,529.051,696.93,516.823,680.503,515.846 M684.983,520.343
			c10.453,2.279,18.351,10.201,20.631,20.655h-20.631V520.343z"/>
		<path fill="#033757" d="M696.184,573.253c7.939-5.281,13.301-14.083,13.925-24.171h-27.879L696.184,573.253z"/>
	</g>
	<g display="inline">
		<path fill="#033757" d="M123.323,264.356H36.019c-4.409,0-7.984,3.576-7.984,7.986v133.084c0,4.41,3.574,7.984,7.984,7.984h87.304
			c4.409,0,7.986-3.574,7.986-7.984V272.343C131.309,267.933,127.732,264.356,123.323,264.356 M90.607,270.851
			c0.935,0,1.698,0.754,1.698,1.686c0,0.936-0.764,1.691-1.698,1.691c-0.933,0-1.69-0.756-1.69-1.691
			C88.917,271.604,89.674,270.851,90.607,270.851 M67.04,271.495h17.688v1.934H67.04V271.495z M79.67,410.229
			c-2.866,0-5.189-2.324-5.189-5.189c0-2.867,2.323-5.191,5.189-5.191c2.867,0,5.19,2.324,5.19,5.191
			C84.861,407.905,82.538,410.229,79.67,410.229 M126.249,396.644H33.089V281.126h93.159V396.644z"/>
	</g>
	<g display="inline">
		<path fill="#033757" d="M729.703,346.136h-38.156c-3.642,0-6.596,2.961-6.596,6.603v77.481c0,3.645,2.954,6.6,6.596,6.6h38.156
			c3.645,0,6.6-2.955,6.6-6.6v-77.481C736.307,349.097,733.352,346.136,729.703,346.136 M725.353,350.274
			c0.935,0,1.696,0.756,1.696,1.688c0,0.936-0.762,1.69-1.696,1.69c-0.933,0-1.69-0.755-1.69-1.69
			C723.662,351.03,724.42,350.274,725.353,350.274 M701.783,350.919h17.689v1.934h-17.689V350.919z M710.625,432.841
			c-2.44,0-4.422-1.982-4.422-4.424s1.981-4.422,4.422-4.422c2.443,0,4.424,1.98,4.424,4.422S713.068,432.841,710.625,432.841
			 M731.362,419.612h-41.466v-62.321h41.466V419.612z"/>
	</g>
	
</g>
</svg>
