<?xml version="1.0" encoding="utf-8"?>
<!-- Generator: Adobe Illustrator 15.0.0, SVG Export Plug-In . SVG Version: 6.00 Build 0)  -->
<!DOCTYPE svg PUBLIC "-//W3C//DTD SVG 1.1//EN" "http://www.w3.org/Graphics/SVG/1.1/DTD/svg11.dtd">
<svg version="1.1" id="Layer_1" xmlns="http://www.w3.org/2000/svg" xmlns:xlink="http://www.w3.org/1999/xlink" x="0px" y="0px"
	 width="948.322px" height="809.972px" viewBox="0 0 948.322 809.972" enable-background="new 0 0 948.322 809.972"
	 xml:space="preserve">
<symbol  id="Diamond_Trillian_2" viewBox="-4.408 -8.363 8.817 16.726">
	<g>
		<g>
			<linearGradient id="SVGID_1_" gradientUnits="userSpaceOnUse" x1="-4.2837" y1="0" x2="4.2833" y2="7.476084e-07">
				<stop  offset="0" style="stop-color:#F7C9D6"/>
				<stop  offset="0.5" style="stop-color:#FDEFF2"/>
				<stop  offset="1" style="stop-color:#9E6178"/>
			</linearGradient>
			<path fill="url(#SVGID_1_)" d="M-4.283,0.038c0.04,4.527,4.355,8.16,4.355,8.16s4.251-3.709,4.211-8.236s-4.355-8.16-4.355-8.16
				S-4.323-4.489-4.283,0.038z"/>
			<linearGradient id="SVGID_2_" gradientUnits="userSpaceOnUse" x1="0" y1="-8.1982" x2="-7.167129e-07" y2="8.1982">
				<stop  offset="0.3278" style="stop-color:#D5B5D6;stop-opacity:0"/>
				<stop  offset="0.3653" style="stop-color:#D8BBD9;stop-opacity:0.1534"/>
				<stop  offset="0.4148" style="stop-color:#E2CBE2;stop-opacity:0.3557"/>
				<stop  offset="0.4707" style="stop-color:#F1E7F1;stop-opacity:0.5842"/>
				<stop  offset="0.5112" style="stop-color:#FFFFFF;stop-opacity:0.75"/>
				<stop  offset="0.5663" style="stop-color:#F2E8F2;stop-opacity:0.4841"/>
				<stop  offset="0.6667" style="stop-color:#D5B5D6;stop-opacity:0"/>
			</linearGradient>
			<path fill="url(#SVGID_2_)" d="M-4.283,0.038c0.04,4.527,4.355,8.16,4.355,8.16s4.251-3.709,4.211-8.236s-4.355-8.16-4.355-8.16
				S-4.323-4.489-4.283,0.038z"/>
			<linearGradient id="SVGID_3_" gradientUnits="userSpaceOnUse" x1="-4.145" y1="-4.145" x2="4.1454" y2="4.1454">
				<stop  offset="0.3278" style="stop-color:#D5B5D6;stop-opacity:0"/>
				<stop  offset="0.3653" style="stop-color:#D8BBD9;stop-opacity:0.1534"/>
				<stop  offset="0.4148" style="stop-color:#E2CBE2;stop-opacity:0.3557"/>
				<stop  offset="0.4707" style="stop-color:#F1E7F1;stop-opacity:0.5842"/>
				<stop  offset="0.5112" style="stop-color:#FFFFFF;stop-opacity:0.75"/>
				<stop  offset="0.5663" style="stop-color:#F2E8F2;stop-opacity:0.4841"/>
				<stop  offset="0.6667" style="stop-color:#D5B5D6;stop-opacity:0"/>
			</linearGradient>
			<path fill="url(#SVGID_3_)" d="M-4.283,0.038c0.04,4.527,4.355,8.16,4.355,8.16s4.251-3.709,4.211-8.236s-4.355-8.16-4.355-8.16
				S-4.323-4.489-4.283,0.038z"/>
			<linearGradient id="SVGID_4_" gradientUnits="userSpaceOnUse" x1="4.0815" y1="-4.0815" x2="-4.0816" y2="4.0816">
				<stop  offset="0.3278" style="stop-color:#D5B5D6;stop-opacity:0"/>
				<stop  offset="0.3653" style="stop-color:#D8BBD9;stop-opacity:0.1534"/>
				<stop  offset="0.4148" style="stop-color:#E2CBE2;stop-opacity:0.3557"/>
				<stop  offset="0.4707" style="stop-color:#F1E7F1;stop-opacity:0.5842"/>
				<stop  offset="0.5112" style="stop-color:#FFFFFF;stop-opacity:0.75"/>
				<stop  offset="0.5663" style="stop-color:#F2E8F2;stop-opacity:0.4841"/>
				<stop  offset="0.6667" style="stop-color:#D5B5D6;stop-opacity:0"/>
			</linearGradient>
			<path fill="url(#SVGID_4_)" d="M-4.283,0.038c0.04,4.527,4.355,8.16,4.355,8.16s4.251-3.709,4.211-8.236s-4.355-8.16-4.355-8.16
				S-4.323-4.489-4.283,0.038z"/>
			<linearGradient id="SVGID_5_" gradientUnits="userSpaceOnUse" x1="-4.2837" y1="0" x2="4.2833" y2="0">
				<stop  offset="0.35" style="stop-color:#D5B5D6;stop-opacity:0"/>
				<stop  offset="0.383" style="stop-color:#D8BBD9;stop-opacity:0.1534"/>
				<stop  offset="0.4265" style="stop-color:#E2CBE2;stop-opacity:0.3557"/>
				<stop  offset="0.4756" style="stop-color:#F1E7F1;stop-opacity:0.5842"/>
				<stop  offset="0.5112" style="stop-color:#FFFFFF;stop-opacity:0.75"/>
				<stop  offset="0.5545" style="stop-color:#F2E8F2;stop-opacity:0.4841"/>
				<stop  offset="0.6333" style="stop-color:#D5B5D6;stop-opacity:0"/>
			</linearGradient>
			<path fill="url(#SVGID_5_)" d="M-4.283,0.038c0.04,4.527,4.355,8.16,4.355,8.16s4.251-3.709,4.211-8.236s-4.355-8.16-4.355-8.16
				S-4.323-4.489-4.283,0.038z"/>
			<path fill="none" stroke="#B69EB0" stroke-width="0.25" d="M-4.283,0.038c0.04,4.527,4.355,8.16,4.355,8.16
				s4.251-3.709,4.211-8.236s-4.355-8.16-4.355-8.16S-4.323-4.489-4.283,0.038z"/>
		</g>
		<g>
			<linearGradient id="SVGID_6_" gradientUnits="userSpaceOnUse" x1="-1.3174" y1="6.6636" x2="1.4365" y2="6.6636">
				<stop  offset="0" style="stop-color:#F7C9D6"/>
				<stop  offset="0.5" style="stop-color:#FDEFF2"/>
				<stop  offset="1" style="stop-color:#9E6178"/>
			</linearGradient>
			<path fill="url(#SVGID_6_)" d="M1.437,6.759C0.684,7.664,0.072,8.198,0.072,8.198s-0.619-0.523-1.39-1.415l1.363-1.654
				L1.437,6.759z"/>
			<linearGradient id="SVGID_7_" gradientUnits="userSpaceOnUse" x1="0.0596" y1="5.1289" x2="0.0596" y2="8.1982">
				<stop  offset="0.3278" style="stop-color:#D5B5D6;stop-opacity:0"/>
				<stop  offset="0.3653" style="stop-color:#D8BBD9;stop-opacity:0.1534"/>
				<stop  offset="0.4148" style="stop-color:#E2CBE2;stop-opacity:0.3557"/>
				<stop  offset="0.4707" style="stop-color:#F1E7F1;stop-opacity:0.5842"/>
				<stop  offset="0.5112" style="stop-color:#FFFFFF;stop-opacity:0.75"/>
				<stop  offset="0.5663" style="stop-color:#F2E8F2;stop-opacity:0.4841"/>
				<stop  offset="0.6667" style="stop-color:#D5B5D6;stop-opacity:0"/>
			</linearGradient>
			<path fill="url(#SVGID_7_)" d="M1.437,6.759C0.684,7.664,0.072,8.198,0.072,8.198s-0.619-0.523-1.39-1.415l1.363-1.654
				L1.437,6.759z"/>
			<linearGradient id="SVGID_8_" gradientUnits="userSpaceOnUse" x1="-0.7236" y1="5.8984" x2="0.834" y2="7.4561">
				<stop  offset="0.3278" style="stop-color:#D5B5D6;stop-opacity:0"/>
				<stop  offset="0.3653" style="stop-color:#D8BBD9;stop-opacity:0.1534"/>
				<stop  offset="0.4148" style="stop-color:#E2CBE2;stop-opacity:0.3557"/>
				<stop  offset="0.4707" style="stop-color:#F1E7F1;stop-opacity:0.5842"/>
				<stop  offset="0.5112" style="stop-color:#FFFFFF;stop-opacity:0.75"/>
				<stop  offset="0.5663" style="stop-color:#F2E8F2;stop-opacity:0.4841"/>
				<stop  offset="0.6667" style="stop-color:#D5B5D6;stop-opacity:0"/>
			</linearGradient>
			<path fill="url(#SVGID_8_)" d="M1.437,6.759C0.684,7.664,0.072,8.198,0.072,8.198s-0.619-0.523-1.39-1.415l1.363-1.654
				L1.437,6.759z"/>
			<linearGradient id="SVGID_9_" gradientUnits="userSpaceOnUse" x1="0.8247" y1="5.9077" x2="-0.7147" y2="7.4471">
				<stop  offset="0.3278" style="stop-color:#D5B5D6;stop-opacity:0"/>
				<stop  offset="0.3653" style="stop-color:#D8BBD9;stop-opacity:0.1534"/>
				<stop  offset="0.4148" style="stop-color:#E2CBE2;stop-opacity:0.3557"/>
				<stop  offset="0.4707" style="stop-color:#F1E7F1;stop-opacity:0.5842"/>
				<stop  offset="0.5112" style="stop-color:#FFFFFF;stop-opacity:0.75"/>
				<stop  offset="0.5663" style="stop-color:#F2E8F2;stop-opacity:0.4841"/>
				<stop  offset="0.6667" style="stop-color:#D5B5D6;stop-opacity:0"/>
			</linearGradient>
			<path fill="url(#SVGID_9_)" d="M1.437,6.759C0.684,7.664,0.072,8.198,0.072,8.198s-0.619-0.523-1.39-1.415l1.363-1.654
				L1.437,6.759z"/>
			<linearGradient id="SVGID_10_" gradientUnits="userSpaceOnUse" x1="-1.3174" y1="6.6636" x2="1.4365" y2="6.6636">
				<stop  offset="0.35" style="stop-color:#D5B5D6;stop-opacity:0"/>
				<stop  offset="0.383" style="stop-color:#D8BBD9;stop-opacity:0.1534"/>
				<stop  offset="0.4265" style="stop-color:#E2CBE2;stop-opacity:0.3557"/>
				<stop  offset="0.4756" style="stop-color:#F1E7F1;stop-opacity:0.5842"/>
				<stop  offset="0.5112" style="stop-color:#FFFFFF;stop-opacity:0.75"/>
				<stop  offset="0.5545" style="stop-color:#F2E8F2;stop-opacity:0.4841"/>
				<stop  offset="0.6333" style="stop-color:#D5B5D6;stop-opacity:0"/>
			</linearGradient>
			<path fill="url(#SVGID_10_)" d="M1.437,6.759C0.684,7.664,0.072,8.198,0.072,8.198s-0.619-0.523-1.39-1.415l1.363-1.654
				L1.437,6.759z"/>
			<path fill="none" stroke="#B69EB0" stroke-width="0.25" d="M1.437,6.759C0.684,7.664,0.072,8.198,0.072,8.198
				s-0.619-0.523-1.39-1.415l1.363-1.654L1.437,6.759z"/>
		</g>
		<g>
			<linearGradient id="SVGID_11_" gradientUnits="userSpaceOnUse" x1="-1.4375" y1="-6.6636" x2="1.3174" y2="-6.6636">
				<stop  offset="0" style="stop-color:#F7C9D6"/>
				<stop  offset="0.5" style="stop-color:#FDEFF2"/>
				<stop  offset="1" style="stop-color:#9E6178"/>
			</linearGradient>
			<path fill="url(#SVGID_11_)" d="M-1.438-6.759c0.755-0.906,1.365-1.439,1.365-1.439s0.62,0.522,1.39,1.415l-1.362,1.654
				L-1.438-6.759z"/>
			<linearGradient id="SVGID_12_" gradientUnits="userSpaceOnUse" x1="-0.0601" y1="-8.1982" x2="-0.0601" y2="-5.1289">
				<stop  offset="0.3278" style="stop-color:#D5B5D6;stop-opacity:0"/>
				<stop  offset="0.3653" style="stop-color:#D8BBD9;stop-opacity:0.1534"/>
				<stop  offset="0.4148" style="stop-color:#E2CBE2;stop-opacity:0.3557"/>
				<stop  offset="0.4707" style="stop-color:#F1E7F1;stop-opacity:0.5842"/>
				<stop  offset="0.5112" style="stop-color:#FFFFFF;stop-opacity:0.75"/>
				<stop  offset="0.5663" style="stop-color:#F2E8F2;stop-opacity:0.4841"/>
				<stop  offset="0.6667" style="stop-color:#D5B5D6;stop-opacity:0"/>
			</linearGradient>
			<path fill="url(#SVGID_12_)" d="M-1.438-6.759c0.755-0.906,1.365-1.439,1.365-1.439s0.62,0.522,1.39,1.415l-1.362,1.654
				L-1.438-6.759z"/>
			<linearGradient id="SVGID_13_" gradientUnits="userSpaceOnUse" x1="-0.8335" y1="-7.4565" x2="0.7247" y2="-5.8984">
				<stop  offset="0.3278" style="stop-color:#D5B5D6;stop-opacity:0"/>
				<stop  offset="0.3653" style="stop-color:#D8BBD9;stop-opacity:0.1534"/>
				<stop  offset="0.4148" style="stop-color:#E2CBE2;stop-opacity:0.3557"/>
				<stop  offset="0.4707" style="stop-color:#F1E7F1;stop-opacity:0.5842"/>
				<stop  offset="0.5112" style="stop-color:#FFFFFF;stop-opacity:0.75"/>
				<stop  offset="0.5663" style="stop-color:#F2E8F2;stop-opacity:0.4841"/>
				<stop  offset="0.6667" style="stop-color:#D5B5D6;stop-opacity:0"/>
			</linearGradient>
			<path fill="url(#SVGID_13_)" d="M-1.438-6.759c0.755-0.906,1.365-1.439,1.365-1.439s0.62,0.522,1.39,1.415l-1.362,1.654
				L-1.438-6.759z"/>
			<linearGradient id="SVGID_14_" gradientUnits="userSpaceOnUse" x1="0.7153" y1="-7.4473" x2="-0.824" y2="-5.9079">
				<stop  offset="0.3278" style="stop-color:#D5B5D6;stop-opacity:0"/>
				<stop  offset="0.3653" style="stop-color:#D8BBD9;stop-opacity:0.1534"/>
				<stop  offset="0.4148" style="stop-color:#E2CBE2;stop-opacity:0.3557"/>
				<stop  offset="0.4707" style="stop-color:#F1E7F1;stop-opacity:0.5842"/>
				<stop  offset="0.5112" style="stop-color:#FFFFFF;stop-opacity:0.75"/>
				<stop  offset="0.5663" style="stop-color:#F2E8F2;stop-opacity:0.4841"/>
				<stop  offset="0.6667" style="stop-color:#D5B5D6;stop-opacity:0"/>
			</linearGradient>
			<path fill="url(#SVGID_14_)" d="M-1.438-6.759c0.755-0.906,1.365-1.439,1.365-1.439s0.62,0.522,1.39,1.415l-1.362,1.654
				L-1.438-6.759z"/>
			<linearGradient id="SVGID_15_" gradientUnits="userSpaceOnUse" x1="-1.4375" y1="-6.6636" x2="1.3174" y2="-6.6636">
				<stop  offset="0.35" style="stop-color:#D5B5D6;stop-opacity:0"/>
				<stop  offset="0.383" style="stop-color:#D8BBD9;stop-opacity:0.1534"/>
				<stop  offset="0.4265" style="stop-color:#E2CBE2;stop-opacity:0.3557"/>
				<stop  offset="0.4756" style="stop-color:#F1E7F1;stop-opacity:0.5842"/>
				<stop  offset="0.5112" style="stop-color:#FFFFFF;stop-opacity:0.75"/>
				<stop  offset="0.5545" style="stop-color:#F2E8F2;stop-opacity:0.4841"/>
				<stop  offset="0.6333" style="stop-color:#D5B5D6;stop-opacity:0"/>
			</linearGradient>
			<path fill="url(#SVGID_15_)" d="M-1.438-6.759c0.755-0.906,1.365-1.439,1.365-1.439s0.62,0.522,1.39,1.415l-1.362,1.654
				L-1.438-6.759z"/>
			<path fill="none" stroke="#B69EB0" stroke-width="0.25" d="M-1.438-6.759c0.755-0.906,1.365-1.439,1.365-1.439
				s0.62,0.522,1.39,1.415l-1.362,1.654L-1.438-6.759z"/>
		</g>
		<g>
			<linearGradient id="SVGID_16_" gradientUnits="userSpaceOnUse" x1="-3.1396" y1="-0.0425" x2="3.1397" y2="-0.0425">
				<stop  offset="0" style="stop-color:#F7C9D6"/>
				<stop  offset="0.5" style="stop-color:#FDEFF2"/>
				<stop  offset="1" style="stop-color:#9E6178"/>
			</linearGradient>
			<polygon fill="url(#SVGID_16_)" points="-1.96,-0.025 -3.065,4.203 0.057,6.317 3.14,4.148 1.96,-0.061 3.064,-4.289 
				-0.056,-6.402 -3.14,-4.234 			"/>
			<linearGradient id="SVGID_17_" gradientUnits="userSpaceOnUse" x1="0" y1="-6.4023" x2="-5.559966e-07" y2="6.3174">
				<stop  offset="0.3278" style="stop-color:#D5B5D6;stop-opacity:0"/>
				<stop  offset="0.3653" style="stop-color:#D8BBD9;stop-opacity:0.1534"/>
				<stop  offset="0.4148" style="stop-color:#E2CBE2;stop-opacity:0.3557"/>
				<stop  offset="0.4707" style="stop-color:#F1E7F1;stop-opacity:0.5842"/>
				<stop  offset="0.5112" style="stop-color:#FFFFFF;stop-opacity:0.75"/>
				<stop  offset="0.5663" style="stop-color:#F2E8F2;stop-opacity:0.4841"/>
				<stop  offset="0.6667" style="stop-color:#D5B5D6;stop-opacity:0"/>
			</linearGradient>
			<polygon fill="url(#SVGID_17_)" points="-1.96,-0.025 -3.065,4.203 0.057,6.317 3.14,4.148 1.96,-0.061 3.064,-4.289 
				-0.056,-6.402 -3.14,-4.234 			"/>
			<linearGradient id="SVGID_18_" gradientUnits="userSpaceOnUse" x1="-3.666" y1="-3.7085" x2="3.665" y2="3.6226">
				<stop  offset="0.3278" style="stop-color:#D5B5D6;stop-opacity:0"/>
				<stop  offset="0.3653" style="stop-color:#D8BBD9;stop-opacity:0.1534"/>
				<stop  offset="0.4148" style="stop-color:#E2CBE2;stop-opacity:0.3557"/>
				<stop  offset="0.4707" style="stop-color:#F1E7F1;stop-opacity:0.5842"/>
				<stop  offset="0.5112" style="stop-color:#FFFFFF;stop-opacity:0.75"/>
				<stop  offset="0.5663" style="stop-color:#F2E8F2;stop-opacity:0.4841"/>
				<stop  offset="0.6667" style="stop-color:#D5B5D6;stop-opacity:0"/>
			</linearGradient>
			<polygon fill="url(#SVGID_18_)" points="-1.96,-0.025 -3.065,4.203 0.057,6.317 3.14,4.148 1.96,-0.061 3.064,-4.289 
				-0.056,-6.402 -3.14,-4.234 			"/>
			<linearGradient id="SVGID_19_" gradientUnits="userSpaceOnUse" x1="3.6553" y1="-3.6982" x2="-3.6558" y2="3.6128">
				<stop  offset="0.3278" style="stop-color:#D5B5D6;stop-opacity:0"/>
				<stop  offset="0.3653" style="stop-color:#D8BBD9;stop-opacity:0.1534"/>
				<stop  offset="0.4148" style="stop-color:#E2CBE2;stop-opacity:0.3557"/>
				<stop  offset="0.4707" style="stop-color:#F1E7F1;stop-opacity:0.5842"/>
				<stop  offset="0.5112" style="stop-color:#FFFFFF;stop-opacity:0.75"/>
				<stop  offset="0.5663" style="stop-color:#F2E8F2;stop-opacity:0.4841"/>
				<stop  offset="0.6667" style="stop-color:#D5B5D6;stop-opacity:0"/>
			</linearGradient>
			<polygon fill="url(#SVGID_19_)" points="-1.96,-0.025 -3.065,4.203 0.057,6.317 3.14,4.148 1.96,-0.061 3.064,-4.289 
				-0.056,-6.402 -3.14,-4.234 			"/>
			<linearGradient id="SVGID_20_" gradientUnits="userSpaceOnUse" x1="-3.1396" y1="-0.0425" x2="3.1397" y2="-0.0425">
				<stop  offset="0.35" style="stop-color:#D5B5D6;stop-opacity:0"/>
				<stop  offset="0.383" style="stop-color:#D8BBD9;stop-opacity:0.1534"/>
				<stop  offset="0.4265" style="stop-color:#E2CBE2;stop-opacity:0.3557"/>
				<stop  offset="0.4756" style="stop-color:#F1E7F1;stop-opacity:0.5842"/>
				<stop  offset="0.5112" style="stop-color:#FFFFFF;stop-opacity:0.75"/>
				<stop  offset="0.5545" style="stop-color:#F2E8F2;stop-opacity:0.4841"/>
				<stop  offset="0.6333" style="stop-color:#D5B5D6;stop-opacity:0"/>
			</linearGradient>
			<polygon fill="url(#SVGID_20_)" points="-1.96,-0.025 -3.065,4.203 0.057,6.317 3.14,4.148 1.96,-0.061 3.064,-4.289 
				-0.056,-6.402 -3.14,-4.234 			"/>
			<polygon fill="none" stroke="#B69EB0" stroke-width="0.25" points="-1.96,-0.025 -3.065,4.203 0.057,6.317 3.14,4.148 
				1.96,-0.061 3.064,-4.289 -0.056,-6.402 -3.14,-4.234 			"/>
		</g>
		<g>
			<linearGradient id="SVGID_21_" gradientUnits="userSpaceOnUse" x1="-1.9697" y1="-0.043" x2="1.9697" y2="-0.043">
				<stop  offset="0" style="stop-color:#F7C9D6"/>
				<stop  offset="0.5" style="stop-color:#FDEFF2"/>
				<stop  offset="1" style="stop-color:#9E6178"/>
			</linearGradient>
			<polygon fill="url(#SVGID_21_)" points="-0.071,-8.241 -1.97,-0.025 0.073,8.155 1.97,-0.061 			"/>
			<linearGradient id="SVGID_22_" gradientUnits="userSpaceOnUse" x1="0" y1="-8.2412" x2="-7.167130e-07" y2="8.1553">
				<stop  offset="0.3278" style="stop-color:#D5B5D6;stop-opacity:0"/>
				<stop  offset="0.3653" style="stop-color:#D8BBD9;stop-opacity:0.1534"/>
				<stop  offset="0.4148" style="stop-color:#E2CBE2;stop-opacity:0.3557"/>
				<stop  offset="0.4707" style="stop-color:#F1E7F1;stop-opacity:0.5842"/>
				<stop  offset="0.5112" style="stop-color:#FFFFFF;stop-opacity:0.75"/>
				<stop  offset="0.5663" style="stop-color:#F2E8F2;stop-opacity:0.4841"/>
				<stop  offset="0.6667" style="stop-color:#D5B5D6;stop-opacity:0"/>
			</linearGradient>
			<polygon fill="url(#SVGID_22_)" points="-0.071,-8.241 -1.97,-0.025 0.073,8.155 1.97,-0.061 			"/>
			<linearGradient id="SVGID_23_" gradientUnits="userSpaceOnUse" x1="-4.1343" y1="-4.1782" x2="4.1362" y2="4.0923">
				<stop  offset="0.3278" style="stop-color:#D5B5D6;stop-opacity:0"/>
				<stop  offset="0.3653" style="stop-color:#D8BBD9;stop-opacity:0.1534"/>
				<stop  offset="0.4148" style="stop-color:#E2CBE2;stop-opacity:0.3557"/>
				<stop  offset="0.4707" style="stop-color:#F1E7F1;stop-opacity:0.5842"/>
				<stop  offset="0.5112" style="stop-color:#FFFFFF;stop-opacity:0.75"/>
				<stop  offset="0.5663" style="stop-color:#F2E8F2;stop-opacity:0.4841"/>
				<stop  offset="0.6667" style="stop-color:#D5B5D6;stop-opacity:0"/>
			</linearGradient>
			<polygon fill="url(#SVGID_23_)" points="-0.071,-8.241 -1.97,-0.025 0.073,8.155 1.97,-0.061 			"/>
			<linearGradient id="SVGID_24_" gradientUnits="userSpaceOnUse" x1="4.064" y1="-4.106" x2="-4.062" y2="4.02">
				<stop  offset="0.3278" style="stop-color:#D5B5D6;stop-opacity:0"/>
				<stop  offset="0.3653" style="stop-color:#D8BBD9;stop-opacity:0.1534"/>
				<stop  offset="0.4148" style="stop-color:#E2CBE2;stop-opacity:0.3557"/>
				<stop  offset="0.4707" style="stop-color:#F1E7F1;stop-opacity:0.5842"/>
				<stop  offset="0.5112" style="stop-color:#FFFFFF;stop-opacity:0.75"/>
				<stop  offset="0.5663" style="stop-color:#F2E8F2;stop-opacity:0.4841"/>
				<stop  offset="0.6667" style="stop-color:#D5B5D6;stop-opacity:0"/>
			</linearGradient>
			<polygon fill="url(#SVGID_24_)" points="-0.071,-8.241 -1.97,-0.025 0.073,8.155 1.97,-0.061 			"/>
			<linearGradient id="SVGID_25_" gradientUnits="userSpaceOnUse" x1="-1.9697" y1="-0.043" x2="1.9697" y2="-0.043">
				<stop  offset="0.35" style="stop-color:#D5B5D6;stop-opacity:0"/>
				<stop  offset="0.383" style="stop-color:#D8BBD9;stop-opacity:0.1534"/>
				<stop  offset="0.4265" style="stop-color:#E2CBE2;stop-opacity:0.3557"/>
				<stop  offset="0.4756" style="stop-color:#F1E7F1;stop-opacity:0.5842"/>
				<stop  offset="0.5112" style="stop-color:#FFFFFF;stop-opacity:0.75"/>
				<stop  offset="0.5545" style="stop-color:#F2E8F2;stop-opacity:0.4841"/>
				<stop  offset="0.6333" style="stop-color:#D5B5D6;stop-opacity:0"/>
			</linearGradient>
			<polygon fill="url(#SVGID_25_)" points="-0.071,-8.241 -1.97,-0.025 0.073,8.155 1.97,-0.061 			"/>
			<polygon fill="none" stroke="#B69EB0" stroke-width="0.25" points="-0.071,-8.241 -1.97,-0.025 0.073,8.155 1.97,-0.061 			"/>
		</g>
	</g>
</symbol>
<symbol  id="Regal_Vector_Pack_02" viewBox="-95.186 -31.855 190.371 63.711">
	<path fill-rule="evenodd" clip-rule="evenodd" fill="#8CC63F" d="M93.168-29.902c-0.633,0.363-1.269,0.724-1.906,1.08
		C77.541-21.148,63.091-15.33,48.265-11.371c-0.284,0.076-0.569,0.151-0.855,0.227c0,0.281,0,0.564,0,0.846
		c0,7.581,0,15.162,0,22.743c0,0.282,0,0.564,0,0.847c0.286-0.075,0.571-0.15,0.855-0.227c14.87-3.971,29.36-9.812,43.118-17.52
		c0.637-0.356,1.271-0.718,1.906-1.082c-0.448-0.225-0.896-0.449-1.348-0.678C88.57-7.923,85.156-9.744,81.7-11.677
		c3.414-5.229,6.789-10.567,10.121-16.014C92.271-28.428,92.72-29.164,93.168-29.902L93.168-29.902z"/>
	<path fill-rule="evenodd" clip-rule="evenodd" fill="#8CC63F" d="M-46.92-11.016c-0.286-0.076-0.571-0.149-0.856-0.225
		c-14.997-3.962-29.614-9.824-43.486-17.582c-0.637-0.356-1.273-0.717-1.906-1.082c0.447,0.74,0.896,1.477,1.347,2.214
		c3.332,5.446,6.708,10.784,10.121,16.014c-3.455,1.933-6.87,3.754-10.241,5.462c-0.45,0.229-0.899,0.453-1.347,0.678
		c0.634,0.364,1.27,0.726,1.907,1.082c13.908,7.793,28.565,13.676,43.606,17.65c0.285,0.074,0.571,0.149,0.856,0.223
		c0-0.281,0-0.564,0-0.846c0-7.581,0-15.162,0-22.743C-46.92-10.451-46.92-10.734-46.92-11.016L-46.92-11.016z"/>
	<path fill="#009245" d="M-62.792-4.562c5.18,1.846,10.421,3.458,15.709,4.832c0-3.481,0-6.962,0-10.443
		C-52.371-8.065-57.613-6.196-62.792-4.562z"/>
	<path fill="#221F1F" d="M-47.776,12.348c0-7.581,0-15.162,0-22.742c-14.997-3.962-29.614-9.822-43.486-17.582
		c3.523,5.741,7.095,11.358,10.708,16.852c-3.655,2.066-7.266,4.008-10.829,5.824C-77.475,2.49-62.817,8.374-47.776,12.348
		 M-46.063,14.485c-0.571-0.146-1.143-0.293-1.713-0.444c-15.041-3.973-29.699-9.856-43.607-17.648
		c-1.273-0.713-2.541-1.443-3.802-2.19c0.892-0.437,1.786-0.881,2.685-1.332c3.18-1.604,6.4-3.305,9.656-5.107
		c-3.214-4.96-6.395-10.017-9.536-15.173c-0.899-1.473-1.793-2.956-2.686-4.445c1.262,0.744,2.529,1.473,3.804,2.186
		c13.872,7.76,28.489,13.62,43.486,17.582c0.571,0.15,1.142,0.3,1.713,0.444c0,0.564,0,1.129,0,1.693c0,7.581,0,15.161,0,22.742
		C-46.063,13.356-46.063,13.921-46.063,14.485L-46.063,14.485z"/>
	<path fill="#009245" d="M63.151-4.689c-5.177,1.856-10.416,3.479-15.702,4.865c0-3.48,0-6.962,0-10.442
		C52.735-8.173,57.975-6.313,63.151-4.689z"/>
	<path fill="#221F1F" d="M91.383-5.301c-3.562-1.816-7.174-3.758-10.829-5.824c3.614-5.493,7.186-11.11,10.708-16.852
		c-13.721,7.676-28.171,13.492-42.997,17.451c0,7.581,0,15.162,0,22.743C63.133,8.246,77.625,2.406,91.383-5.301 M95.186-5.798
		c-1.262,0.747-2.529,1.478-3.803,2.19C77.625,4.1,63.135,9.939,48.265,13.911c-0.571,0.153-1.142,0.302-1.712,0.449
		c0-0.565,0-1.129,0-1.694c0-7.58,0-15.161,0-22.742c0-0.564,0-1.129,0-1.693c0.57-0.146,1.141-0.296,1.712-0.449
		c14.826-3.959,29.276-9.775,42.997-17.451c1.275-0.713,2.543-1.441,3.805-2.186c-0.893,1.489-1.787,2.973-2.686,4.445
		c-3.142,5.156-6.321,10.213-9.536,15.173C86.1-10.435,89.32-8.733,92.5-7.13C93.398-6.679,94.293-6.234,95.186-5.798L95.186-5.798z
		"/>
	<g>
		<path fill-rule="evenodd" clip-rule="evenodd" fill="#8CC63F" d="M63.631-4.581c-0.279,0.101-0.559,0.202-0.839,0.301
			C22.369,10.134-21.86,10.19-62.314-4.11c-0.28-0.099-0.56-0.197-0.839-0.298c0,0.28,0,0.564,0,0.845c0,7.582,0,15.163,0,22.744
			c0,0.282,0,0.564,0,0.846c0.279,0.101,0.559,0.2,0.839,0.3c40.454,14.3,84.683,14.243,125.106-0.17
			c0.28-0.1,0.56-0.201,0.839-0.302c0-0.282,0-0.564,0-0.847c0-7.581,0-15.162,0-22.743C63.631-4.017,63.631-4.3,63.631-4.581
			L63.631-4.581z"/>
		<path fill="#221F1F" d="M62.792,19.309c0-7.58,0-15.16,0-22.741C22.369,10.98-21.859,11.037-62.313-3.263
			c0,7.581,0,15.161,0,22.741C-21.86,33.78,22.369,33.723,62.792,19.309 M64.468,20.396c-0.558,0.205-1.116,0.406-1.676,0.606
			c-40.423,14.413-84.651,14.47-125.105,0.169c-0.559-0.197-1.119-0.397-1.677-0.602c0-0.563,0-1.128,0-1.693
			c0-7.58,0-15.161,0-22.742c0-0.564,0-1.129,0-1.693c0.558,0.204,1.118,0.405,1.677,0.603c40.454,14.3,84.683,14.243,125.105-0.17
			c0.56-0.199,1.118-0.403,1.676-0.606c0,0.564,0,1.129,0,1.693c0,7.581,0,15.16,0,22.741
			C64.468,19.268,64.468,19.832,64.468,20.396L64.468,20.396z"/>
	</g>
	<path fill="#221F1F" d="M-64.016-5.628c0.309,0.584,0.619,1.165,0.929,1.746c5.376-1.688,10.821-3.63,16.314-5.827
		c-0.316-0.552-0.632-1.104-0.948-1.657C-53.209-9.199-58.647-7.285-64.016-5.628L-64.016-5.628z"/>
	<path fill="#221F1F" d="M64.373-5.758c-0.309,0.583-0.617,1.167-0.928,1.748C58.071-5.688,52.63-7.619,47.138-9.806
		c0.316-0.552,0.633-1.104,0.949-1.657C53.572-9.308,59.008-7.405,64.373-5.758L64.373-5.758z"/>
</symbol>
<symbol  id="Regal_Vector_Pack_09" viewBox="-105.762 -111.749 211.523 223.499">
	<path fill="#FFFFFF" d="M16.502,94.818c-2.568,1.635-3.152,5.254-3.152,5.254c-1.985-3.035-0.701-6.889-0.701-6.889
		C14.75,93.184,16.502,94.818,16.502,94.818z M-6.503,57.918c0,0,13.546-7.823,15.881-20.553c0,0,2.22,6.072-0.351,12.027
		c0,0,6.891-4.436,9.693-14.129c0,0,3.504,8.641,0.934,14.129c0,0,7.824-2.334,9.459-8.641c0,0,2.453,9.107-3.152,13.896
		c0,0,7.707,0.234,11.561-5.839c0,0,0.582,6.772-7.24,12.495c-7.824,5.723-11.443,15.764-4.438,21.369s9.225,2.687,10.742,6.072
		c1.52,3.387-3.853,7.006-9.341,4.204c0,0-0.351,3.153-3.854,2.569c-3.503-0.584-8.757-4.788-12.611-3.619
		c0,0,3.036-3.271,1.051-7.941c0,0-0.115,4.787-4.086,7.823s-5.139,9.108-5.139,9.108S-3.934,93.3,1.789,82.674
		C1.789,82.674-7.904,75.084-6.503,57.918z M23.742,90.614c0,0-2.102-4.321-6.656-3.736C17.086,86.878,15.802,89.68,23.742,90.614z
		 M-12.872-99.726c4.762-5.685,2.797-12.023,2.797-12.023c4.015,2.942,4.509,9.737,4.567,11.681
		C-8.488-100.473-11.056-100.15-12.872-99.726z M23.275,75.551c0.117-4.088,2.568-6.189,9.226-5.956
		c6.655,0.233,8.758,3.854,8.758,3.854s-2.804-1.635-7.941-0.7c-5.138,0.934-2.919,5.371,3.971,8.408
		c6.89,3.035,13.079,0.7,13.079,0.7c-4.554,7.356-11.912,7.474-11.912,7.474c-1.051-4.32-1.634-2.453-8.523-5.488
		C23.043,80.806,23.275,75.551,23.275,75.551z M88.244,52.12c-0.643-3.53-2.93-4.235-2.93-4.235
		c4.883,0.478,6.117-3.406,6.117-3.406C92.182,48.544,88.244,52.12,88.244,52.12z M-1.851-99.223c6.731-2.879,7.892-9.33,7.892-9.33
		c2.33,4.705-0.793,11.41-1.448,12.717C2.391-97.469,0.215-98.541-1.851-99.223z M53.764,19.787
		c1.533,1.382,3.125,3.062,4.727,5.115c8.912,11.416,12.645,7.629,12.645,7.629s0.146,3.525-3.424,2.831
		c0,0,4.832,5.138,9.371,3.808c0,0-0.512,4.013-4.105,3.482c0,0,2.057,4.145,7.688,3.891c0,0-1.1,2.642-4.379,2.232
		c0.83,0.612,1.561,1.291,2.023,2.014c0.008,0,0.014,0.002,0.021,0.002c0.605-1.194,1.691-2.142,3.086-2.522
		c2.623-0.719,5.33,0.825,6.049,3.448c0.314,1.154,0.182,2.317-0.279,3.329c-0.055,0.129-0.119,0.255-0.186,0.38
		c-0.02,0.037-0.037,0.074-0.059,0.111c-0.627,1.101-1.699,2-3.131,2.471c-3.064,1.01-6.645-0.43-7.678-0.896
		c0.004,0.012,0.01,0.023,0.014,0.035c0.281,0.822,0.645,1.489,1.049,2.043c1.451-0.416,3.064-0.246,4.449,0.613
		c2.604,1.617,3.4,5.035,1.787,7.639c-0.713,1.146-1.777,1.926-2.963,2.322c-0.148,0.053-0.301,0.098-0.455,0.139
		c-0.047,0.01-0.092,0.025-0.137,0.035c-1.391,0.327-2.957,0.129-4.439-0.689c-1.789-0.988-3.061-2.705-3.906-4.236
		c-0.125,0.375-0.229,0.776-0.297,1.218c0.012,0.642,0.096,1.221,0.23,1.74c1.502,0.147,2.939,0.899,3.91,2.207
		c1.826,2.46,1.312,5.935-1.146,7.761c-1.084,0.803-2.359,1.139-3.609,1.069c-0.158-0.005-0.316-0.02-0.475-0.038
		c-0.047-0.007-0.094-0.01-0.141-0.018c-1.412-0.207-2.795-0.967-3.873-2.275c-2.283-2.768-2.27-7.039-2.202-8.377
		c-1.298,1.072-2.714,1.609-2.714,1.609c4.075-5.948,2.508-13.351,1.388-16.867c-1.403-3.454-3.853-6.679-7.538-10.414
		c0.15,1.656-0.131,2.657-0.131,2.657c-1.285-2.03-2.578-3.794-3.86-5.327C52.476,36.961,55.334,29.351,53.764,19.787z
		 M84.947,62.729c3.35,4.4,7.502,2.442,7.502,2.442c-2.783,3.735-8.752,3.226-8.752,3.226
		C86.119,65.157,84.947,62.729,84.947,62.729z M77.371,74.113c1.498,5.323,6.08,5.031,6.08,5.031
		c-3.963,2.449-9.326-0.223-9.326-0.223C77.568,76.803,77.371,74.113,77.371,74.113z M75.01-62.648
		c0.041-2.741-0.357-5.135-1.012-7.209c6.268,3.785,12.184,0.961,12.184,0.961C83.721-64.26,76.453-62.88,75.01-62.648z
		 M86.01,5.417c0.533-1.413,1.631-2.606,3.146-3.206c2.848-1.127,6.07,0.27,7.195,3.117c0.498,1.254,0.49,2.574,0.102,3.764
		c-0.047,0.15-0.102,0.3-0.162,0.447c-0.018,0.045-0.033,0.088-0.053,0.133c-0.566,1.311-1.656,2.449-3.199,3.152
		c-1.859,0.848-3.996,0.844-5.73,0.612c0.227,0.323,0.488,0.646,0.803,0.962c0.523,0.374,1.035,0.651,1.533,0.854
		c1.016-1.117,2.475-1.824,4.104-1.824c3.064,0,5.547,2.483,5.547,5.547c0,1.348-0.49,2.573-1.291,3.535
		c-0.098,0.124-0.205,0.242-0.314,0.356c-0.033,0.034-0.062,0.071-0.098,0.104c-1.008,1.01-2.443,1.668-4.135,1.754
		c-3.584,0.184-7.006-2.374-8.039-3.227c0.086,1.682-0.326,3.14-0.326,3.14c-2.348-6.817-9.225-9.973-12.715-11.169
		c-3.609-0.934-7.66-0.887-12.855-0.154c1.418,0.866,2.055,1.689,2.055,1.689c-15.139-1.122-21.943,4.217-24.883,8.203
		c-1.261,1.887-1.508,3.299-1.508,3.299c6.305-7.941,15.765-8.875,15.765-8.875c5.138,18.45-11.911,35.732-11.911,35.732
		c1.401-5.371-0.467-10.743-0.467-10.743c-2.102,7.007-7.474,8.642-7.474,8.642c3.035-9.225-1.868-16.465-1.868-16.465
		c-0.586,7.356-6.54,10.16-6.54,10.16c0.7-8.293-4.438-14.832-4.438-14.832c-0.466,6.307-5.954,12.612-5.954,12.612
		C12.99,37.2,9.339,33.6,8.201,32.623c-0.039,0.044-0.074,0.087-0.111,0.131C7.582,36.951,4.94,48.066-8.838,55.699
		c-17.283,9.576-73.334,19.852-94.82,56.051c0,0,3.503-29.66,53.015-49.979c18.919-7.764,31.252-12.525,39.55-16.041
		c-0.945-2.416-0.877-6.896,9.028-11.051c0,0-5.371-4.438,6.073-9.107c0,0-3.504-4.205,7.006-8.175c0,0,5.838-8.409,0.467-14.714
		c0,0,5.138,0.701,6.072,3.971c0,0,3.736-5.839-0.467-9.575c0,0,9.709-1.048,11.867,8.891c2.261-2.005,7.838-5.716,18.377-5.972
		c14.48-0.351,13.663-5.605,13.663-5.605s2.919,1.985,0.232,4.438c0,0,7.007-0.818,8.642-5.255c0,0,2.92,2.803,0.35,5.372
		c0,0,4.555,0.817,7.707-3.854c0,0,1.465,2.457-0.818,4.848c0.988-0.303,1.967-0.485,2.824-0.426
		c0.006-0.006,0.01-0.011,0.014-0.015c-0.598-1.2-0.711-2.636-0.186-3.981c0.986-2.535,3.84-3.788,6.373-2.802
		c1.115,0.435,1.971,1.235,2.508,2.207c0.07,0.121,0.133,0.247,0.195,0.375c0.016,0.04,0.037,0.075,0.055,0.114
		c0.51,1.16,0.592,2.559,0.117,3.986c-1.018,3.062-4.307,5.08-5.297,5.631c0.012,0.003,0.023,0.006,0.035,0.01
		C84.572,5.307,85.326,5.411,86.01,5.417z M81.773-7.84c3.295-3.637,0.912-6.943,0.912-6.943c3.711,1.822,4.234,7.115,4.234,7.115
		C83.701-9.256,81.773-7.84,81.773-7.84z M100.025,19.646c0.35-4.028-1.928-5.474-1.928-5.474c5.168,1.971,7.664-1.884,7.664-1.884
		C105.367,16.93,100.025,19.646,100.025,19.646z M93.473,1.303c5.531-0.067,6.436-4.57,6.436-4.57
		c1.338,4.462-2.631,8.953-2.631,8.953C96.123,1.809,93.473,1.303,93.473,1.303z M72.551-73.32
		c-1.412-2.656-3.174-4.551-4.578-5.778c7.395,0.546,11.395-4.749,11.395-4.749C79.322-78.871,74.094-74.503,72.551-73.32z
		 M15.159-18.452c0,0,8.057-3.152,10.159-10.335c0,0,0.701,9.635,7.881,16.115c7.183,6.48,9.811,10.685,9.811,10.685
		S35.477-2.338,30.396,0.99c0,0-5.078-9.633-19.617-6.48c0,0,5.781,2.627,6.131,7.707c0,0-5.605-4.379-10.51-1.401
		c0,0,8.584,5.78,3.153,14.363c0,0-3.153,0.525-3.503,1.751c0,0,0.176-28.375-17.518-37.133
		C-29.156-28.962-30.208-7.768-30.208-7.768s-2.86-4.144-2.142-9.247c-3.954,2.562-10.172,7.768-16.823,17.921
		c-6.552,9.98-15.743,15.085-23.882,15.125c-3.881,0.006-7.608-1.236-10.345-3.877c-2.749-2.631-4.284-6.541-4.265-11.072
		c0-0.104,0-0.221,0.005-0.352c0.062-5.004,2.495-9.156,5.666-12.612c4.792-5.22,11.443-9.576,17.458-15.12
		c6.026-5.537,11.367-12.039,13.883-21.348c0.658-2.438,0.941-4.611,0.941-6.518c-0.02-4.367-1.422-7.287-3.469-9.272
		c-1.863-1.784-4.402-2.832-7.289-3.021c-5.686,0.396-15.467,2.809-15.632,14.727c-0.233,16.815-7.474,26.624-7.474,26.624
		s2.569-8.173-0.467-14.713c0,0-4.438,23.354-21.721,33.164c0,0,10.51-17.05,9.344-31.997c0,0-3.504,1.168-3.504,7.007
		c0,0-6.072-13.312,7.006-24.99c0,0-4.904-0.468-8.408,3.971c0,0,3.972-16.815,26.858-21.021
		c14.243-2.615,23.148,1.102,27.394,7.659c2.33,3.088,3.683,7.159,3.668,11.862c0,2.531-0.375,5.253-1.158,8.159
		c-3.902,14.476-13.803,23.081-22.139,29.831c-4.184,3.38-8.013,6.355-10.631,9.24c-2.637,2.922-3.969,5.484-4.023,8.499
		c-0.002,0.087-0.004,0.147-0.004,0.22c0.02,3.215,0.975,5.203,2.336,6.533c1.373,1.32,3.371,2.1,5.969,2.109
		c5.408,0.039,13.043-3.723,18.604-12.27c5.901-9.044,11.668-14.61,16.141-17.98c-2.584-0.666-5.42-2.426-8.13-6.218
		c0,0,5.206,3.993,17.827-1.519c-1.941-0.297-4.499-1.056-6.325-2.978c0,0,14.014,2.628,25.223-6.481
		C0.502-46.02-3.102-54.607-7.798-55.007c-0.554,1.041-2.45,3.554-6.995,0.997c-5.605-3.152-10.686-12.438-9.284-28.026
		c0,0,1.253,3.218,2.735,6.144c0.022-0.182,0.041-0.356,0.068-0.537c1.795-12.291,2.725-20.547,10.503-21.605
		c5.331-1.071,11.619,1.611,13.843,3.213c4.379,3.153,7.006,8.934,0.876,10.859c-6.13,1.927-8.058-1.752-10.159-1.752
		c-0.277,0-0.521,0.137-0.734,0.371c-0.221,0.59-0.343,1.329-0.316,2.258c0.176,6.305-1.752,19.267,10.51,18.566
		c12.261-0.701,26.799,11.91,22.596,25.748C21.64-24.934,15.159-18.452,15.159-18.452z M10.291-87.953
		c-0.531-2.229-1.602-4.307-3.434-6.006c-0.31-0.409-0.516-0.648-0.516-0.648c7.42,2.301,12.585-2.343,12.585-2.343
		C17.944-92.137,12.115-88.869,10.291-87.953z M75.035-60.512c2.463,7.367,9.25,8.851,9.25,8.851
		c-4.482,2.013-10.539-0.813-12.348-1.76c1.5-1.731,2.562-3.813,2.871-6.294C74.961-60.204,75.035-60.512,75.035-60.512z
		 M64.995-56.24c-5.144-3.852-3.283-7.563-4.509-9.271c-0.162-0.226-0.416-0.343-0.73-0.38c-0.607,0.166-1.277,0.498-2.018,1.061
		c-5.018,3.824-16.664,9.827-8.938,19.373c7.728,9.545,5.977,28.713-7.712,33.378c-0.997,0.341-1.966,0.644-2.913,0.921
		c-2.27-1.797-10.931-9.434-10.931-21.307c0-3.356,0.28-5.61,0.618-7.236c6.363-1.09,8.549-6.186,6.766-9.168
		c-1.169,0.156-4.316,0.084-4.895-5.1c-0.712-6.391,3.859-15.936,17.334-23.9c0,0-1.881,2.896-3.391,5.809
		c0.16-0.087,0.312-0.176,0.476-0.26c11.026-5.718,18.272-9.783,23.673-4.086c3.982,3.702,5.477,10.375,5.475,13.115
		C73.297-57.895,70.139-52.387,64.995-56.24z M-27.927,50.311c-4.802,1.926-10.503,4.213-17.067,6.883
		c-12.675,4.411-26.24,9.93-35.076,15.789c0,0,6.773-18.451,42.039-28.261c0,0-26.858,4.438-35.734,11.679
		c0,0,9.576-18.217,38.303-22.889c0,0-10.275-1.167-21.253,3.504c0,0,2.569-10.043,20.319-13.079
		C-21.18,21.334-2.199,13.061,1.29,0.157c2.637,8.588,2.659,16.614,2.658,16.761l-0.009,1.976c-1.275,1.103-2.076,2.301-2.42,3.604
		c-0.187,0.714-0.209,1.365-0.141,1.937c-4.136,1.978-6.349,4.218-6.745,6.815c-0.147,0.961-0.019,1.809,0.231,2.521
		c-7.423,3.695-8.747,7.774-8.42,10.715C-17.443,46.107-22.155,47.996-27.927,50.311z"/>
</symbol>
<g>
	<g>
		<path fill="#FF0000" d="M439.308,15.246c18.521-20.328,48.828-20.328,67.349,0l10.297,11.302
			c18.521,20.328,55.114,30.133,81.317,21.788l14.568-4.639c26.203-8.345,52.45,6.809,58.326,33.673l3.267,14.939
			c5.876,26.865,32.664,53.652,59.529,59.528l14.936,3.266c26.865,5.875,42.019,32.122,33.675,58.326l-4.639,14.567
			c-8.344,26.204,1.461,62.797,21.788,81.318l11.301,10.297c20.328,18.521,20.328,48.829,0,67.35l-11.301,10.296
			c-20.327,18.521-30.132,55.114-21.788,81.317l4.639,14.568c8.344,26.203-6.81,52.449-33.675,58.325l-14.936,3.266
			c-26.865,5.876-53.653,32.663-59.529,59.528l-3.268,14.939c-5.875,26.865-32.122,42.019-58.325,33.674l-14.568-4.641
			c-26.203-8.345-62.796,1.46-81.317,21.788l-10.297,11.303c-18.521,20.328-48.828,20.328-67.349,0l-10.298-11.303
			c-18.521-20.328-55.113-30.133-81.317-21.788l-14.568,4.641c-26.204,8.345-52.45-6.809-58.325-33.674l-3.267-14.939
			c-5.875-26.865-32.663-53.652-59.528-59.527l-14.938-3.268c-26.865-5.875-42.019-32.121-33.674-58.324l4.639-14.568
			c8.345-26.203-1.46-62.796-21.788-81.316l-11.302-10.298c-20.328-18.521-20.328-48.828,0-67.349l11.302-10.298
			c20.328-18.521,30.133-55.113,21.788-81.317l-4.639-14.568c-8.345-26.204,6.809-52.45,33.674-58.325l14.938-3.267
			c26.865-5.875,53.653-32.663,59.528-59.528l3.267-14.938c5.875-26.865,32.121-42.019,58.325-33.674l14.568,4.639
			c26.204,8.345,62.796-1.46,81.317-21.788L439.308,15.246z"/>
	</g>
	<g>
		<path fill="#3FA9F5" d="M210.141,138.067c-1.278-27.47,20.152-48.9,47.623-47.623l15.274,0.71
			c27.47,1.278,60.278-17.664,72.906-42.093l7.021-13.582c12.628-24.429,41.902-32.273,65.054-17.432l12.874,8.253
			c23.151,14.841,61.035,14.841,84.186-0.001l12.87-8.251c23.151-14.842,52.426-6.998,65.054,17.431l7.021,13.581
			c12.628,24.429,45.437,43.371,72.907,42.094l15.271-0.71c27.471-1.277,48.901,20.153,47.624,47.624l-0.711,15.272
			c-1.277,27.47,17.665,60.278,42.094,72.907l13.581,7.021c24.429,12.628,32.272,41.902,17.431,65.054l-8.252,12.871
			c-14.842,23.151-14.842,61.034-0.001,84.186l8.254,12.874c14.841,23.151,6.997,52.425-17.433,65.053l-13.582,7.021
			c-24.429,12.628-43.37,45.436-42.093,72.906l0.711,15.273c1.277,27.471-20.152,48.9-47.623,47.623l-15.273-0.711
			c-27.471-1.277-60.278,17.664-72.907,42.093l-7.02,13.582c-12.629,24.429-41.902,32.272-65.054,17.431l-12.872-8.252
			c-23.151-14.842-61.035-14.842-84.186,0l-12.872,8.252c-23.151,14.842-52.425,6.998-65.053-17.431l-7.021-13.582
			c-12.628-24.429-45.436-43.37-72.906-42.093l-15.274,0.711c-27.47,1.277-48.9-20.152-47.623-47.623l0.71-15.273
			c1.278-27.471-17.664-60.278-42.093-72.906l-13.582-7.021c-24.429-12.628-32.273-41.901-17.431-65.053l8.253-12.873
			c14.842-23.15,14.842-61.034,0-84.185l-8.253-12.874c-14.842-23.151-6.999-52.424,17.431-65.053l13.582-7.021
			c24.429-12.628,43.371-45.436,42.093-72.906L210.141,138.067z"/>
	</g>
	<g>
		<path fill="#3FA9F5" d="M210.141,138.067c-1.278-27.47,20.152-48.9,47.623-47.623l15.274,0.71
			c27.47,1.278,60.278-17.664,72.906-42.093l7.021-13.582c12.628-24.429,41.902-32.273,65.054-17.432l12.874,8.253
			c23.151,14.841,61.035,14.841,84.186-0.001l12.87-8.251c23.151-14.842,52.426-6.998,65.054,17.431l7.021,13.581
			c12.628,24.429,45.437,43.371,72.907,42.094l15.271-0.71c27.471-1.277,48.901,20.153,47.624,47.624l-0.711,15.272
			c-1.277,27.47,17.665,60.278,42.094,72.907l13.581,7.021c24.429,12.628,32.272,41.902,17.431,65.054l-8.252,12.871
			c-14.842,23.151-14.842,61.034-0.001,84.186l8.254,12.874c14.841,23.151,6.997,52.425-17.433,65.053l-13.582,7.021
			c-24.429,12.628-43.37,45.436-42.093,72.906l0.711,15.273c1.277,27.471-20.152,48.9-47.623,47.623l-15.273-0.711
			c-27.471-1.277-60.278,17.664-72.907,42.093l-7.02,13.582c-12.629,24.429-41.902,32.272-65.054,17.431l-12.872-8.252
			c-23.151-14.842-61.035-14.842-84.186,0l-12.872,8.252c-23.151,14.842-52.425,6.998-65.053-17.431l-7.021-13.582
			c-12.628-24.429-45.436-43.37-72.906-42.093l-15.274,0.711c-27.47,1.277-48.9-20.152-47.623-47.623l0.71-15.273
			c1.278-27.471-17.664-60.278-42.093-72.906l-13.582-7.021c-24.429-12.628-32.273-41.901-17.431-65.053l8.253-12.873
			c14.842-23.15,14.842-61.034,0-84.185l-8.253-12.874c-14.842-23.151-6.999-52.424,17.431-65.053l13.582-7.021
			c24.429-12.628,43.371-45.436,42.093-72.906L210.141,138.067z"/>
	</g>
	
		<text transform="matrix(1 0 0 1 206.8096 392.7559)" fill="#FFFFFF" font-family="'Sancreek-Regular'" font-size="138.946" letter-spacing="5">MUMBAI</text>
	
		<text transform="matrix(1 0 0 1 384.2129 193.2759)" fill="#FFFFFF" font-family="'Sancreek-Regular'" font-size="78.2328" letter-spacing="3">2014</text>
	<text transform="matrix(1 0 0 1 307.9155 497.4575)"><tspan x="0" y="0" fill="#FFFFFF" font-family="'Sancreek-Regular'" font-size="52.4165" letter-spacing="2">HERE</tspan><tspan x="128.602" y="0" fill="#FFFFFF" font-family="'Sancreek-Regular'" font-size="72" letter-spacing="2"> </tspan><tspan x="147.548" y="10" fill="#FFFFFF" font-family="'Sancreek-Regular'" font-size="80" letter-spacing="3">I</tspan><tspan x="176.724" y="0" fill="#FFFFFF" font-family="'Sancreek-Regular'" font-size="72" letter-spacing="2"> </tspan><tspan x="195.671" y="0" fill="#FFFFFF" font-family="'Sancreek-Regular'" font-size="52.4165" letter-spacing="2">COME</tspan></text>
	<rect x="318.161" y="424.129" fill="#FFFFFF" width="307" height="7"/>
	<rect x="320.161" y="524.129" fill="#FFFFFF" width="307" height="7"/>
	
		<text transform="matrix(1 0 0 1 288.5186 259.1279)" fill="#FFFFFF" font-family="'AGaramondPro-Regular'" font-size="46.7299" letter-spacing="1">MAHARASHTRA</text>
	<rect x="246.161" y="165.129" fill="#FFFFFF" width="128" height="5"/>
	<rect x="246.161" y="176.129" fill="#FFFFFF" width="128" height="5"/>
	<rect x="582.161" y="165.129" fill="#FFFFFF" width="128" height="5"/>
	<rect x="582.161" y="176.129" fill="#FFFFFF" width="128" height="5"/>
	
		<use xlink:href="#Regal_Vector_Pack_09"  width="211.523" height="223.499" id="XMLID_2_" x="-105.762" y="-111.749" transform="matrix(0.2775 0 0 -0.2775 631.0703 127.4517)" overflow="visible"/>
	
		<use xlink:href="#Regal_Vector_Pack_09"  width="211.523" height="223.499" x="-105.762" y="-111.749" transform="matrix(-0.2775 0 0 -0.2775 323.3228 127.1128)" overflow="visible"/>
	
		<use xlink:href="#Regal_Vector_Pack_02"  width="190.371" height="63.711" id="XMLID_3_" x="-95.186" y="-31.855" transform="matrix(4.9814 0 0 -3.8864 474.1611 686.1685)" overflow="visible"/>
	<g>
		<g>
			<path fill="#FFFFFF" d="M287.549,596.11c1.628-0.269,2.612,0.208,2.612,1.422c0,0.098,0,0.146,0,0.243
				c-2,2.264-3.745,5.369-4.896,9.31c-1.151,3.939-1.811,8.117-1.811,12.53c0,1.682,0.074,2.938,0.307,3.774
				c0.232,0.837,0.332,1.276,0.328,1.293c-1.087,4.465-4.805,10.721-6.077,16.1c-0.489,2.068-0.715,4.01-0.715,5.819
				s0.865,3.565,1.865,5.267c0,0.057,0,0.084,0,0.141c0,1.308-1.336,2.183-3.96,2.645c-1.115,0.196-2.073,0.037-2.831-0.48
				c-1.229-0.84-2.793-2.545-2.793-2.545c-0.231,0.032-2.011,3.264-3.97,4.336c-0.796,0.436-1.648,0.725-2.506,0.885
				c-0.858,0.161-1.543,0.115-2.053-0.139c-0.51-0.253-1.157-0.981-1.113-1.362c0.167-1.443,2.085-4.472,2.085-6.877
				c0-0.841-0.151-1.967-0.452-3.382c-0.302-1.414-0.582-2.775-0.835-4.081c-0.721-3.713-1.576-7.419-2.572-11.104
				c-0.208-0.786-0.313-1.178-0.522-1.964c-1.344,4.346-2.572,8.815-3.683,13.412c-1.112,4.596-1.652,7.846-1.652,9.749
				s0.857,3.692,1.857,5.366c0,0.057,0,0.085,0,0.142c0,1.308-1.325,2.212-3.941,2.733c-1.111,0.222-2.064,0.085-2.819-0.416
				c-1.224-0.812-2.781-2.48-2.781-2.48c-0.234,0.034-2.002,3.307-3.957,4.424c-0.793,0.453-1.644,0.764-2.498,0.943
				c-0.855,0.181-1.538,0.148-2.046-0.094c-0.508-0.241-1.151-0.958-1.109-1.339c0.162-1.466,2.08-4.516,2.08-6.921
				c0-1.261-0.3-3.155-0.901-5.678c-0.601-2.521-1.231-4.577-1.889-6.164c-0.658-1.586-1.253-2.714-1.784-3.381
				c-0.53-0.666-1.028-1.183-1.49-1.549s-0.825-0.635-1.09-0.798c-0.264-0.163-0.398-0.351-0.398-0.561s0.092-0.458,0.277-0.743
				s0.397-0.583,0.624-0.891c0.602-0.818,0.9-2.298,0.9-4.399c0-4.249-0.866-8.106-2.101-11.572
				c-1.235-3.466-3.076-5.928-5.076-7.376c0-0.057,0-0.084,0-0.141c0-1.283,1.303-2.161,3.414-2.627
				c2.112-0.466,6.085,2.373,6.271,2.34c0.512-0.091,3.146-4.339,5.642-4.862c1.34-0.281,2.276-0.294,2.737-0.038
				c0.762,0.423,1.453,1.024,1.437,1.249c-0.096,1.329-2.073,4.518-2.073,7.086c0,1.331,0.165,2.814,0.489,4.451
				c0.324,1.638,1.101,6.418,2.327,14.34c1.226,7.922,2.012,13.318,2.012,13.318c0.087,0.007,1.808-6.856,1.808-8.211
				s-0.094-2.382-0.279-3.08c-0.186-0.699-0.363-1.192-0.536-1.484c-0.174-0.292-0.261-0.482-0.261-0.576
				c0-0.093,0.052-0.201,0.139-0.312c3.574-4.601,5.313-11.312,5.313-19.414c0-1.168-0.198-2.271-0.591-3.314
				c-0.394-1.043-0.944-1.787-1.268-2.236c-0.324-0.448-0.581-1.037-1.581-1.758c0-0.014,0-0.021,0-0.035
				c0-0.42,0.446-0.864,0.955-1.305c0.883-0.765,1.909-1.239,2.824-1.419c0.914-0.18,1.709-0.197,2.288-0.053
				c0.578,0.145,1.079,0.363,1.449,0.637c0.776,0.573,1.854,2.024,1.854,2.024c0.012-0.001,0.111-0.239,0.18-0.417
				c0.07-0.177,0.246-0.509,0.524-0.993c0.278-0.485,0.593-0.918,0.94-1.3s0.811-0.763,1.391-1.141
				c0.579-0.377,1.206-0.629,1.878-0.755s1.271-0.166,1.792-0.122c0.522,0.043,0.924,0.144,1.201,0.303
				c0.579,0.333,1.17,0.902,1.149,1.118c-0.122,1.249-2.192,4.435-2.192,7.166c0,2.686,0.95,8.386,2.854,17.11
				c1.902,8.726,3.132,14.79,3.132,14.79c0.061,0.001,1.115-6.771,1.115-8.219c0-1.447-0.082-2.528-0.244-3.246
				c-0.163-0.718-0.319-1.212-0.47-1.477s-0.214-0.466-0.19-0.599c0.023-0.132,0.086-0.341,0.19-0.628
				c0.104-0.286,0.296-0.877,0.575-1.768s0.545-1.785,0.801-2.685c0.255-0.897,0.533-1.982,0.835-3.263
				c0.302-1.279,0.576-2.529,0.801-3.733c0.521-2.784,0.767-5.563,0.767-8.296s-1.727-5.427-1.847-6.258
				c-0.004-0.025,0.047-0.124,0.07-0.222c0.023-0.098,0.109-0.284,0.261-0.557c0.151-0.271,0.318-0.523,0.505-0.735
				c0.489-0.556,1.156-0.906,1.935-1.042s1.486-0.133,2.125,0.014s1.134,0.373,1.482,0.658c0.777,0.637,1.638,2.101,1.638,2.101
				c0.174,0.022,1.874-2.17,2.944-3.072C285.744,596.758,286.758,596.241,287.549,596.11z"/>
			<path fill="#FFFFFF" d="M323.865,615.467c0,1.261-2.45,3.688-2.45,3.688c0.008,0.036,0.874,0.342,1.294,0.772
				c0.765,0.785,1.156,1.495,1.156,2.126c0,1.145-0.235,1.816-0.702,2.018c-0.098,0.041-0.145,0.062-0.243,0.103
				c-2.101-1.099-5.427-1.344-9.974-0.7c-0.616,6.238-0.924,9.357-1.539,15.597c0,1.541,0.473,2.453,1.4,2.708
				c0.738,0.203,1.661,0.217,2.746,0.066c1.084-0.15,1.936-0.689,2.554-1.627s0.927-2.036,0.927-3.297
				c0-2.078-2.179-4.269-2.484-5.192c-0.147-0.445,0.921-1.531,2.064-1.688c1.982-0.271,3.476,0.033,4.481,0.903
				c0.21,0.183,0.314,0.274,0.524,0.457c1.353-1.532,2.893-2.409,4.622-2.63c0.676-0.086,1.219-0.038,1.629,0.144
				c0.408,0.182,0.877,0.747,0.823,0.947c-0.309,1.147-2.837,4.267-2.837,7.594c0,3.328,2.555,6.026,3.187,7.249
				c0.151,0.292-0.492,1.12-1.472,1.548c-0.373,0.163-0.804,0.279-1.294,0.342c-2.312,0.295-5.624-2.56-5.953-2.551
				c-0.326,0.009-2.147,2.214-3.71,2.987c-1.563,0.772-2.875,1.234-3.937,1.383s-1.901,0.191-2.519,0.128
				c-0.618-0.064-1.165-0.179-1.643-0.344c-0.478-0.165-0.928-0.363-1.348-0.595c-0.42-0.23-0.78-0.462-1.083-0.698
				c-0.606-0.472-1.397-1.337-1.434-1.333c-0.347,0.035-2.405,3.172-4.335,4.223c-0.718,0.391-1.537,0.649-2.445,0.789
				s-1.665,0.083-2.27-0.173s-0.954-0.552-1.047-0.888c-0.056-0.201-0.085-0.3-0.141-0.501c1.118-0.852,1.874-1.595,2.271-2.229
				c0.396-0.633,0.691-1.122,0.89-1.468c0.198-0.345,0.367-0.855,0.507-1.531c0.14-0.675,0.245-1.223,0.314-1.643
				c0.07-0.419-0.1-1.115-0.064-2.09s-0.171-1.766-0.171-2.373c0-1.177,0-1.765,0-2.941c0-5.978-0.93-9.854-3.2-11.416
				c-0.249-0.172-0.273-0.362-0.273-0.572s0.184-0.451,0.439-0.726c0.256-0.272,0.604-0.659,0.989-1.163
				c0.384-0.503,0.777-1.182,1.149-2.033c0.885-2.026,1.333-5.054,1.333-9.082s-0.305-6.89-0.922-8.581s-2.809-3.427-3.297-4.445
				c-0.207-0.431,0.656-1.571,1.956-2.157c0.484-0.218,1.199-0.397,2.13-0.54s1.94,0.044,3.023,0.558
				c1.083,0.515,1.87,1.063,2.359,1.645c0.294,0.363,0.44,0.545,0.734,0.908c2.19-3.007,4.661-4.709,7.413-5.096
				c1.469-0.206,2.993-0.13,4.566,0.228c1.574,0.357,3.549,2.015,3.727,2.001c0.651-0.05,3.665-3.846,5.954-4.138
				c0.77-0.099,1.389-0.043,1.856,0.166c0.467,0.21,0.98,0.864,0.911,1.097c-0.211,0.706-1.991,2.141-2.47,3.322
				s-0.716,2.591-0.716,4.225c0,2.896,2.512,5.325,2.836,6.123c0.062,0.152-0.355,0.74-0.787,1.062
				c-0.434,0.323-1.029,0.53-1.787,0.627c-0.76,0.097-1.523,0.033-2.295-0.193c-0.77-0.228-1.331-0.48-1.68-0.762
				c-0.21-0.183-0.315-0.274-0.525-0.457c-1.332,1.507-2.859,2.377-4.585,2.611c-0.677,0.092-1.225,0.049-1.645-0.127
				s-0.886-0.696-0.84-0.898c0.256-1.128,2.485-3.588,2.485-5.597c0-2.219-1.401-3.16-3.92-2.809
				c-2.519,0.352-3.918,1.341-3.918,2.952c0,0.094,0,0.198,0,0.314c1,6.177,1.042,9.268,1.643,15.445
				c2.565-0.363,4.662-0.787,6.143-1.28c1.48-0.493,2.976-1.701,3.938-2.118c0.156-0.067,0.469,0.11,0.667,0.422
				S323.865,614.977,323.865,615.467z"/>
			<path fill="#FFFFFF" d="M367.668,613.866c0,0.006,2.133,0.445,3.021,1.3c1.64,1.577,2.46,3.227,2.46,4.931
				c0,1.237,0.801,2.712,2.319,4.424c0.493,0.557,0.739,0.906,0.739,1.022c0,0.117-0.246,0.523-0.74,1.188
				c-1.52,2.043-2.319,4.109-2.319,6.188s-0.639,3.827-1.897,5.247c-2.414,2.723-6.229,4.34-11.449,4.857
				c-2.435,0.241-4.6,0.195-6.495-0.143s-4.467-2.743-4.526-2.738c-0.046,0.004-0.479,0.726-1.018,1.357s-1.042,1.152-1.509,1.549
				c-1.27,1.078-2.466,1.678-3.542,1.801c-1.847,0.212-3.109-0.084-3.787-0.892c-0.14-0.165-0.21-0.252-0.351-0.417
				c1.496-1.484,2.57-3.332,3.225-5.556c0.654-2.224,0.982-4.738,0.982-7.54s-0.128-5.01-0.385-6.614
				c-0.257-1.604-0.573-2.778-0.947-3.529c-0.375-0.751-0.754-1.338-1.14-1.76s-0.707-0.727-0.963-0.919
				c-0.257-0.191-0.387-0.399-0.387-0.621s0.129-0.468,0.386-0.732c0.257-0.263,0.578-0.64,0.964-1.141
				c0.385-0.5,0.765-1.172,1.139-2.01c0.889-1.992,1.333-5.01,1.333-9.05c0-4.039-0.31-6.906-0.929-8.598
				c-0.619-1.69-2.817-3.471-3.314-4.535c-0.205-0.439,0.659-1.549,1.963-2.086c0.486-0.2,1.204-0.35,2.14-0.457
				c0.935-0.107,1.946,0.084,3.033,0.568c1.087,0.485,1.876,1.003,2.368,1.556c0.294,0.318,0.443,0.479,0.737,0.798
				c1.918-2.613,5.59-4.217,11.021-4.755c3.651-0.362,6.693-0.02,9.096,1.026c2.595,1.13,3.899,3.188,3.899,6.13
				c0,1.821,0.568,3.308,1.705,4.458c1.137,1.152,1.706,1.792,1.706,1.921c0,0.128-0.161,0.342-0.476,0.637
				c-0.315,0.295-0.662,0.657-1.037,1.055c-1.008,1.068-1.546,2.631-1.546,4.685c0,2.056-0.82,3.949-2.46,5.684
				C369.822,613.071,367.668,613.866,367.668,613.866z M363.313,601.102c0.014-0.828,0.02-1.241,0.034-2.069
				c0-4.109-1.487-6.027-4.459-5.73c-1.873,0.188-3.095,0.545-3.668,1.06s-0.982,0.93-1.228,1.247s-0.417,0.716-0.509,1.191
				c-0.142,0.737-0.211,1.54-0.211,2.403c-0.014,5.144-0.02,7.718-0.033,12.861c1.376-0.145,2.064-0.216,3.44-0.356
				c3.931-0.401,6.107-2.99,6.529-7.794C363.278,603.114,363.313,602.176,363.313,601.102z M363.383,629.118
				c-0.014-0.882-0.021-1.321-0.035-2.203c0-3.923-0.714-6.505-2.142-7.707c-1.415-1.192-3.629-1.642-6.601-1.333
				c-0.547,0.071-0.821,0.106-1.368,0.178c0.022,0.559,0.034,3.051,0.034,7.476c0,4.426,0.018,6.84,0.053,7.244
				s0.146,0.918,0.334,1.541c0.187,0.623,0.475,1.088,0.842,1.4c0.958,0.814,2.423,1.151,4.388,0.955
				C361.884,636.369,363.383,633.858,363.383,629.118z"/>
			<path fill="#FFFFFF" d="M383.232,638.843c2.836-2.836,4.254-7.086,4.254-12.76c0-4.881-0.442-8.236-1.334-10.058
				c-0.584-1.192-1.15-2.005-1.689-2.43s-0.808-0.746-0.808-0.968s0.128-0.468,0.386-0.732s0.581-0.646,0.967-1.142
				s0.767-1.186,1.144-2.051c0.882-2.025,1.334-5.064,1.334-9.116c0-4.051-0.31-6.9-0.931-8.534
				c-0.622-1.635-2.821-3.414-3.324-4.508c-0.205-0.445,0.658-1.532,1.935-2.001c0.505-0.186,1.224-0.305,2.127-0.372
				c0.902-0.067,1.876,0.153,2.919,0.661c1.042,0.508,1.8,1.041,2.269,1.592c0.282,0.33,0.422,0.492,0.704,0.822
				c2.062-2.477,6.002-3.914,11.822-4.256c4.411-0.26,7.741,0.595,9.961,2.539c2.839,2.485,4.26,6.498,4.26,11.985
				c0,6.258,0.974,10.301,2.747,12.134c0.211,0.219,0.317,0.443,0.317,0.654c0,0.21-0.106,0.431-0.317,0.661
				c-0.211,0.231-0.464,0.585-0.757,1.064c-0.294,0.48-0.593,1.125-0.898,1.933c-0.726,1.924-1.092,5.281-1.092,10.067
				c0,4.787-1.238,8.486-3.714,11.108c-2.477,2.621-5.885,4.046-10.225,4.3c-5.771,0.338-11.785-3.29-12.104-3.256
				c-0.386,0.042-2.388,3.071-4.116,3.902c-0.695,0.334-1.499,0.528-2.39,0.596s-1.643-0.051-2.251-0.354
				c-0.609-0.303-0.96-0.625-1.053-0.969C383.318,639.152,383.289,639.049,383.232,638.843z M407.611,594.89
				c0-3.596-1.431-5.319-4.293-5.146c-2.533,0.152-4.05,1.096-4.573,2.772c-0.229,0.735-0.354,1.944-0.354,3.613
				c0,1.67,0.047,3.362,0.141,5.072c0.094,1.711,0.223,3.068,0.388,4.074c0.164,1.005,0.337,1.861,0.526,2.573
				c0.188,0.712,0.375,1.237,0.563,1.576c0.188,0.338,0.368,0.621,0.529,0.844c0.353,0.485,0.527,0.864,0.527,1.121
				s-0.141,0.604-0.423,1.042s-0.585,1.011-0.915,1.704c-0.878,1.85-1.337,5.62-1.337,11.294c0,3.526,0.353,5.708,1.056,6.52
				c0.767,0.885,1.959,1.276,3.554,1.18c1.572-0.096,2.588-0.399,3.045-0.916c0.457-0.518,0.779-0.949,0.966-1.299
				c0.188-0.349,0.335-0.893,0.423-1.617c0.124-1.024,0.176-2.464,0.176-4.285c0-0.183-0.001-0.273-0.001-0.456
				c0-5.557-0.442-9.2-1.337-10.887c-0.324-0.61-0.633-1.123-0.915-1.539c-0.281-0.415-0.422-0.747-0.422-0.992
				s0.092-0.493,0.281-0.749c0.188-0.256,0.413-0.646,0.67-1.162c0.257-0.516,0.515-1.238,0.774-2.164
				C407.294,604.809,407.611,600.751,407.611,594.89z"/>
			<path fill="#FFFFFF" d="M457.834,605.885c0,1.261-2.467,3.396-2.467,3.396c0.005,0.04,0.881,0.444,1.304,0.926
				c0.77,0.877,1.164,1.635,1.164,2.266c0,1.145-0.237,1.788-0.707,1.934c-0.099,0.029-0.146,0.043-0.245,0.072
				c-2.114-1.35-5.461-1.992-10.042-1.893c-0.62,6.164-0.931,9.246-1.551,15.411c0,1.541,0.475,2.512,1.411,2.878
				c0.743,0.291,1.672,0.419,2.765,0.397s1.95-0.463,2.573-1.326c0.622-0.863,0.933-1.925,0.933-3.186
				c0-2.078-2.193-4.437-2.501-5.49c-0.134-0.46,0.929-1.42,2.08-1.439c1.996-0.033,3.5,0.448,4.511,1.438
				c0.211,0.207,0.316,0.315,0.528,0.523c1.362-1.37,2.912-2.069,4.65-2.083c0.681-0.006,1.228,0.111,1.64,0.342
				c0.411,0.23,0.888,0.853,0.828,1.043c-0.317,1.012-2.854,3.929-2.854,7.256c0,3.328,2.541,6.219,3.206,7.629
				c0.148,0.315-0.494,1.063-1.48,1.374c-0.376,0.119-0.812,0.183-1.305,0.187c-2.326,0.019-5.633-3.258-5.989-3.265
				c-0.311-0.007-2.162,1.958-3.734,2.544c-1.574,0.586-2.897,0.893-3.965,0.914c-1.07,0.021-1.914-0.037-2.537-0.175
				c-0.623-0.139-1.175-0.317-1.657-0.539s-0.933-0.475-1.355-0.755s-0.789-0.558-1.093-0.83c-0.611-0.545-1.409-1.504-1.444-1.502
				c-0.325,0.021-2.424,2.883-4.368,3.701c-0.724,0.305-1.55,0.47-2.466,0.5s-1.68-0.117-2.29-0.445
				c-0.61-0.328-0.962-0.668-1.056-1.016c-0.057-0.208-0.085-0.31-0.142-0.518c1.127-0.718,1.889-1.371,2.289-1.958
				c0.399-0.585,0.699-1.038,0.898-1.36c0.199-0.321,0.37-0.812,0.511-1.471c0.141-0.657,0.247-1.192,0.317-1.604
				c0.071-0.41,0.002-1.104,0.036-2.074c0.035-0.97-0.068-1.758-0.068-2.365c0-1.177,0-1.764,0-2.94
				c0-5.978-1.036-9.988-3.33-11.827c-0.251-0.201-0.326-0.404-0.326-0.614s0.159-0.439,0.417-0.682
				c0.257-0.241,0.596-0.591,0.983-1.049c0.387-0.457,0.778-1.089,1.153-1.896c0.894-1.92,1.341-4.897,1.341-8.926
				s-0.309-6.926-0.931-8.691c-0.623-1.766-2.815-3.677-3.329-4.841c-0.202-0.459,0.665-1.495,1.974-1.925
				c0.488-0.16,1.208-0.251,2.149-0.282c0.938-0.031,1.955,0.276,3.047,0.92c1.092,0.645,1.884,1.288,2.377,1.928
				c0.296,0.397,0.444,0.598,0.74,0.996c2.208-2.745,4.698-4.151,7.469-4.209c1.48-0.03,3.014,0.226,4.598,0.771
				c1.585,0.546,3.568,2.454,3.753,2.448c0.613-0.019,3.687-3.41,5.99-3.429c0.775-0.006,1.398,0.124,1.868,0.389
				c0.469,0.265,0.992,0.983,0.917,1.203c-0.213,0.62-2.002,1.906-2.484,3.031s-0.723,2.505-0.723,4.139
				c0,2.896,2.521,5.522,2.854,6.458c0.058,0.161-0.358,0.698-0.792,0.969c-0.435,0.271-1.035,0.41-1.797,0.416
				c-0.765,0.006-1.532-0.148-2.309-0.468c-0.775-0.319-1.34-0.641-1.691-0.964c-0.211-0.208-0.318-0.31-0.529-0.518
				c-1.339,1.348-2.878,2.034-4.616,2.062c-0.682,0.011-1.233-0.097-1.657-0.322c-0.422-0.226-0.897-0.804-0.845-1
				c0.269-1.007,2.502-3.292,2.502-5.301c0-2.219-1.35-3.307-3.887-3.257c-2.538,0.05-3.889,0.886-3.889,2.497
				c0,0.094,0,0.2,0,0.316c1,6.249,0.991,9.374,1.597,15.624c2.583-0.057,4.664-0.239,6.155-0.556
				c1.49-0.316,3.029-1.355,3.949-1.65c0.158-0.051,0.462,0.165,0.662,0.5C457.724,604.981,457.834,605.395,457.834,605.885z"/>
			<path fill="#FFFFFF" d="M494.162,625.298c0-3.06-0.766-5.593-2.292-7.594c-1.526-2-3.558-3.021-6.095-3.054
				c-0.682-0.009-1.446,0.086-2.292,0.287s-1.327,0.304-1.444,0.303c-0.112-0.029-0.168-0.045-0.28-0.074
				c-0.235-0.118-0.461-0.468-0.636-1.023c-0.562-1.785-1.512-3.288-2.89-4.395c-4.508-3.62-6.766-8.452-6.766-14.453
				c0-4.834,1.591-8.562,4.775-11.163c3.183-2.602,7.594-3.88,13.232-3.79c2.466,0.039,4.633,0.551,6.5,1.524
				s3.313,1.922,4.316,2.835c2.277,2.072,3.418,4.761,3.418,8.006c0,1.074-0.282,2.505-0.846,4.287s-0.847,2.859-0.847,3.232
				c0,1.401,1.763,4.077,1.763,4.077c-0.008,0.012-1.022-0.238-1.798-0.259s-1.51-0.24-2.202-0.654s-1.239-0.924-1.64-1.51
				c-0.761-1.113-1.727-3.787-1.727-3.787c-0.025-0.004-0.763,0.5-1.796,0.747s-1.909,0.367-2.625,0.354
				c-0.717-0.013-1.345-0.123-1.885-0.33s-0.934-0.424-1.181-0.65c-0.247-0.226-0.42-0.532-0.545-0.867
				c-0.146-0.39-0.301-1-0.248-1.055c0.309-0.318,2.731-0.399,3.824-1.057c1.093-0.658,1.638-1.738,1.638-3.244
				s-0.453-2.688-1.357-3.546c-0.904-0.856-1.921-1.296-3.048-1.313c-3.688-0.058-5.53,2.122-5.53,6.512
				c0,3.713,0.963,6.489,2.854,8.336c0.986,0.964,1.995,1.463,3.028,1.479s2.116-0.122,3.244-0.416s1.778-0.438,1.955-0.434
				c0.176,0.004,0.369,0.311,0.581,0.922c0.727,2.095,1.634,3.524,2.713,4.266c2.541,1.745,4.593,3.958,6.096,6.641
				s2.256,5.518,2.256,8.507s-0.529,5.508-1.586,7.555s-2.455,3.687-4.192,4.926c-3.57,2.546-7.707,3.775-12.405,3.706
				c-4.347-0.064-8.08-1.234-11.168-3.54c-1.503-1.122-2.708-2.587-3.612-4.375c-0.905-1.788-1.357-3.486-1.357-5.097
				c0-1.611,0.312-3.302,0.935-5.063c0.622-1.762,0.933-3.125,0.933-4.095c0-0.969-1.245-2.769-1.197-3.066
				c0.018-0.113,0.762-0.35,1.304-0.349c1.456,0.004,2.74,0.728,3.856,2.17c1.116,1.443,1.676,4.384,1.71,4.404
				c0.225,0.134,2.903-1.2,4.055-1.188c1.15,0.013,2.009,0.136,2.572,0.365s1.027,0.528,1.264,0.873
				c0.385,0.562,0.664,1.084,0.664,1.551c0,0.112,0,0.168,0,0.28c-1,0.144-2.621,0.692-3.643,1.649
				c-1.021,0.958-1.565,2.186-1.565,3.68c0,1.495,0.464,2.61,1.428,3.345c0.963,0.734,2.171,1.11,3.64,1.132
				c1.468,0.021,2.854-0.531,4.17-1.663S494.162,627.4,494.162,625.298z"/>
			<path fill="#FFFFFF" d="M517.405,581.974c2.3,0.093,5.577,3.915,5.811,3.928c0.021,0.001,0.16-0.214,0.266-0.372
				s0.352-0.444,0.738-0.857c0.388-0.414,0.794-0.779,1.217-1.084c1.097-0.789,2.24-1.15,3.414-1.091
				c1.173,0.06,2.07,0.282,2.692,0.666c0.621,0.383,0.979,0.742,1.074,1.074c0.057,0.213,0.084,0.318,0.141,0.531
				c-1.619,1.477-2.734,3.066-3.344,4.763c-0.61,1.697-0.914,3.883-0.914,6.557s0.093,4.805,0.28,6.391s0.424,2.805,0.705,3.66
				s0.59,1.576,0.931,2.166c0.34,0.59,0.662,0.996,0.934,1.223c0.654,0.547,0.986,0.988,0.986,1.245s-0.132,0.495-0.389,0.714
				c-0.258,0.22-0.573,0.553-0.948,1c-0.376,0.448-0.751,1.053-1.127,1.8c-0.904,1.794-1.372,4.656-1.372,8.579
				c0,3.924,0.305,6.842,0.914,8.752c0.61,1.91,2.8,4.076,3.344,5.449c0.195,0.494-0.672,1.46-1.97,1.784
				c-0.482,0.121-1.18,0.149-2.061,0.104c-0.88-0.045-1.801-0.429-2.763-1.152c-0.963-0.725-1.657-1.421-2.079-2.094
				c-0.268-0.419-0.402-0.63-0.67-1.049c-0.094,0.229-0.375,0.629-0.845,1.19c-0.47,0.562-0.914,1.009-1.337,1.341
				c-1.126,0.884-2.179,1.304-3.152,1.264s-1.707-0.138-2.2-0.298c-0.493-0.159-0.859-0.348-1.093-0.566
				c-0.517-0.484-0.956-1.172-0.881-1.397c0.385-1.156,2.737-3.29,3.348-5.145c0.61-1.854,0.915-4.2,0.915-7.037
				s-0.129-5.069-0.387-6.689c-0.258-1.621-0.577-2.83-0.952-3.628c-0.375-0.797-0.757-1.437-1.145-1.919
				c-0.387-0.482-0.71-0.845-0.968-1.088c-0.257-0.242-0.387-0.471-0.387-0.681s0.129-0.429,0.387-0.652
				c0.257-0.223,0.581-0.55,0.968-0.979c0.387-0.428,0.77-1.033,1.145-1.812c0.894-1.854,1.339-4.813,1.339-8.877
				c0-4.062-0.305-6.971-0.915-8.723s-2.812-3.774-3.348-5.069c-0.198-0.48,0.663-1.46,1.938-1.78
				C516.152,581.989,516.747,581.948,517.405,581.974z"/>
			<path fill="#FFFFFF" d="M544.543,598.676c0-10.741,5.363-15.804,16.075-14.956c4.383,0.347,7.881,1.83,10.474,4.418
				c2.201,2.197,3.303,5.223,3.303,9.052c0,5.418,2.408,10.097,2.738,11.741c0.031,0.156-0.299,0.51-0.685,0.707
				c-0.387,0.197-0.813,0.273-1.281,0.23c-0.469-0.043-0.914-0.124-1.335-0.244c-0.422-0.12-0.803-0.261-1.142-0.419
				c-0.339-0.159-0.667-0.338-0.983-0.541c-0.316-0.204-0.604-0.411-0.862-0.62s-0.496-0.416-0.719-0.623
				c-0.224-0.206-0.418-0.398-0.581-0.577c-0.165-0.178-0.3-0.337-0.404-0.474s-0.189-0.244-0.248-0.318
				c-0.059-0.075-0.12-0.058-0.19,0.053c-0.07,0.111-0.229,0.308-0.475,0.589c-0.246,0.282-0.758,0.65-1.529,1.098
				c-0.772,0.448-1.489,0.645-2.145,0.59c-0.656-0.055-1.193-0.132-1.615-0.236s-0.761-0.227-1.019-0.363s-0.488-0.288-0.688-0.456
				c-0.199-0.167-0.347-0.319-0.439-0.455s-0.159-0.297-0.21-0.455c-0.06-0.187-0.105-0.377-0.105-0.552
				c0-0.176,0.322-0.79,0.949-1.836c1.902-3.17,2.848-5.674,2.848-7.473c0-2.872-0.616-4.722-1.828-5.471
				c-0.528-0.326-1.284-0.526-2.234-0.602c-0.949-0.074-1.78,0.077-2.495,0.454s-1.236,0.977-1.564,1.791
				c-0.538,1.338-0.809,3.191-0.809,5.562s0.141,4.401,0.422,6.092c0.281,1.691,0.621,2.973,1.021,3.844
				c0.398,0.871,0.791,1.571,1.177,2.103c0.387,0.531,0.721,0.953,1.002,1.267s0.422,0.571,0.422,0.77s-0.13,0.396-0.388,0.599
				c-0.259,0.202-0.578,0.522-0.965,0.96s-0.965,1.039-1.34,1.804c-0.891,1.823-1.533,4.933-1.533,9.323c0,0.771,0,1.155,0,1.926
				c0,3.013,0.307,4.812,0.531,5.401c0.223,0.589,0.501,1.067,0.642,1.428s0.354,0.634,0.543,0.824
				c0.188,0.189,0.454,0.372,0.692,0.558c0.419,0.325,1.043,0.568,1.84,0.631s1.468-0.082,1.995-0.438
				c0.527-0.354,0.92-0.782,1.178-1.287s0.483-1.183,0.636-2.002c0.197-1.066,0.282-2.615,0.282-4.6s-0.21-3.576-0.632-4.778
				s-2.157-2.616-2.568-3.535c-0.146-0.327,0.493-1.022,1.478-1.247c0.374-0.086,0.926-0.104,1.652-0.044s1.529,0.315,2.408,0.762
				c0.879,0.447,1.529,0.874,1.951,1.284c0.238,0.245,0.358,0.368,0.597,0.613c0.68-0.549,1.559-0.996,2.636-1.345
				s2.073-0.484,2.987-0.401s1.597,0.279,2.053,0.578s0.969,1.024,0.896,1.236c-0.206,0.59-1.908,1.811-2.283,2.874
				c-0.374,1.063-0.559,2.879-0.559,5.447s0.319,4.646,0.963,6.234c0.644,1.589,2.949,3.494,3.495,4.757
				c0.19,0.439-0.445,1.395-1.335,1.802c-0.89,0.406-1.867,0.561-2.933,0.463s-2.114-0.52-3.145-1.264
				c-1.031-0.745-2.471-2.947-2.531-2.952c-0.662-0.055-5.991,4.745-10.386,4.407c-4.396-0.339-7.776-1.931-10.146-4.8
				c-2.369-2.87-3.557-7.194-3.557-12.986c0-6.281-1.196-10.464-3.411-12.545c-0.258-0.242-0.387-0.479-0.387-0.688
				c0-0.211,0.129-0.418,0.387-0.625c0.258-0.206,0.575-0.508,0.951-0.904c0.375-0.397,0.75-0.957,1.126-1.682
				C544.099,606.435,544.543,603.277,544.543,598.676z"/>
			<path fill="#FFFFFF" d="M594.611,640.204c-0.419-0.015-3.545,3.644-5.792,3.409c-1.053-0.11-1.89-0.371-2.509-0.784
				c-0.62-0.413-0.977-0.801-1.069-1.161c-0.057-0.216-0.084-0.322-0.141-0.538c1.615-1.4,2.725-2.975,3.333-4.72
				s0.913-4.025,0.913-6.84c0-2.813-0.129-5.077-0.386-6.784s-0.574-2.989-0.948-3.846c-0.375-0.856-0.754-1.544-1.141-2.062
				c-0.386-0.519-0.707-0.907-0.965-1.167s-0.387-0.5-0.387-0.722s0.129-0.438,0.387-0.645c0.256-0.206,0.579-0.512,0.965-0.916
				c0.386-0.403,0.768-0.985,1.142-1.74c0.891-1.797,1.333-4.73,1.333-8.794c0-4.062-0.305-6.99-0.913-8.78
				s-2.789-3.904-3.333-5.282c-0.189-0.481,0.67-1.394,1.965-1.653c0.481-0.097,1.075-0.1,1.754-0.028
				c2.293,0.239,5.792,4.296,5.792,4.296c0.032-0.001,0.402-0.57,0.858-1.045s0.896-0.863,1.315-1.133
				c1.118-0.719,2.296-1.003,3.453-0.87c1.156,0.133,2.039,0.409,2.647,0.831c0.607,0.421,0.959,0.805,1.053,1.143
				c0.056,0.217,0.084,0.322,0.14,0.539c-1.426,0.976-2.448,2.08-3.067,3.305c-0.62,1.225-0.999,2.904-1.14,5.035
				c4.559,7.666,6.837,11.511,11.392,19.225c0.747-2.172,1.122-6.877,1.122-14.115c0-3.27-0.304-5.807-0.911-7.611
				c-0.607-1.803-2.783-3.944-3.329-5.35c-0.194-0.5,0.662-1.391,1.961-1.613c0.485-0.083,1.062-0.08,1.717,0.002
				c2.288,0.286,5.532,4.394,5.78,4.414c0.02,0.002,0.157-0.199,0.263-0.35c0.104-0.149,0.351-0.417,0.735-0.798
				c0.386-0.382,0.781-0.726,1.175-0.983c1.073-0.702,2.262-0.958,3.429-0.8c1.166,0.158,2.059,0.455,2.676,0.89
				s0.976,0.823,1.068,1.163c0.057,0.218,0.084,0.328,0.141,0.546c-1.609,1.341-2.719,2.836-3.326,4.48
				c-0.607,1.646-0.908,3.906-0.908,6.778s0.127,5.196,0.384,6.971s0.572,3.082,0.945,3.926s0.752,1.519,1.138,2.015
				c0.385,0.497,0.706,0.878,0.962,1.146c0.257,0.269,0.386,0.519,0.386,0.74s-0.129,0.43-0.386,0.628
				c-0.258,0.198-0.577,0.512-0.962,0.938c-0.386,0.426-0.766,1.019-1.139,1.784c-0.885,1.817-1.328,4.703-1.328,8.648
				c0,3.946,0.301,6.86,0.908,8.741c0.607,1.882,2.778,4.074,3.326,5.501c0.193,0.504-0.674,1.403-1.962,1.618
				c-0.48,0.08-1.171,0.052-2.046-0.066s-1.791-0.583-2.748-1.387c-0.957-0.805-1.658-1.56-2.102-2.271
				c-0.252-0.439-0.377-0.659-0.629-1.099c-0.094,0.221-0.375,0.595-0.842,1.117c-0.468,0.523-0.907,0.931-1.328,1.228
				c-1.121,0.79-2.167,1.125-3.136,1.003s-1.701-0.282-2.191-0.483c-0.49-0.2-0.874-0.42-1.12-0.661
				c-0.468-0.459-0.924-1.252-0.841-1.471c0.298-0.782,2.378-2.276,2.996-3.623s1.01-3.166,1.174-5.457
				c-4.904-7.579-7.36-11.354-12.27-18.88c-0.14,2.856-0.209,6.77-0.209,11.743s0.303,8.401,0.911,10.281
				c0.607,1.88,2.785,4.05,3.331,5.449c0.2,0.513-0.663,1.429-1.962,1.661c-0.486,0.087-1.064,0.086-1.719,0.011
				C598.105,644.617,594.649,640.205,594.611,640.204z"/>
			<path fill="#FFFFFF" d="M663.125,622.166c0,1.261-2.44,2.947-2.44,2.947c-0.001,0.045,0.871,0.606,1.289,1.165
				c0.762,1.018,1.151,1.844,1.151,2.475c0,1.145-0.231,1.746-0.696,1.806c-0.098,0.012-0.148,0.017-0.246,0.028
				c-2.092-1.735-5.402-2.987-9.939-3.722c-0.614,6.052-0.921,9.078-1.535,15.131c0,1.541,0.469,2.595,1.397,3.133
				c0.736,0.427,1.656,0.722,2.738,0.899s1.931-0.105,2.547-0.855c0.615-0.75,0.923-1.755,0.923-3.016
				c0-2.078-2.176-4.684-2.476-5.947c-0.114-0.479,0.919-1.25,2.059-1.06c1.976,0.33,3.462,1.087,4.462,2.261
				c0.209,0.246,0.314,0.372,0.523,0.618c1.347-1.122,2.881-1.536,4.6-1.233c0.673,0.118,1.211,0.33,1.618,0.636
				c0.406,0.306,0.887,1.024,0.819,1.197c-0.317,0.816-2.821,3.407-2.821,6.734c0,3.328,2.468,6.498,3.169,8.213
				c0.143,0.35-0.488,0.978-1.463,1.108c-0.372,0.051-0.801,0.031-1.288-0.055c-2.299-0.404-5.525-4.319-5.924-4.355
				c-0.285-0.026-2.14,1.564-3.695,1.864c-1.558,0.3-2.868,0.365-3.926,0.192c-1.06-0.173-1.895-0.386-2.512-0.637
				c-0.617-0.252-1.165-0.53-1.642-0.84s-0.925-0.645-1.344-1.003c-0.42-0.357-0.78-0.702-1.082-1.03
				c-0.605-0.656-1.398-1.763-1.432-1.763c-0.29,0.002-2.407,2.443-4.332,2.907c-0.718,0.173-1.536,0.185-2.445,0.048
				s-1.664-0.425-2.27-0.864s-0.956-0.84-1.049-1.204c-0.057-0.219-0.086-0.327-0.142-0.546c1.119-0.513,1.876-1.026,2.272-1.541
				c0.396-0.513,0.693-0.909,0.891-1.195c0.197-0.285,0.367-0.746,0.507-1.379c0.14-0.632,0.244-1.148,0.314-1.547
				c0.07-0.397,0.245-1.079,0.278-2.043c0.035-0.964,0.176-1.748,0.176-2.355c0-1.177,0-1.766,0-2.942
				c0-5.978-1.264-10.19-3.547-12.454c-0.25-0.248-0.446-0.478-0.446-0.688s0.1-0.416,0.355-0.611
				c0.255-0.194,0.562-0.482,0.946-0.87c0.383-0.387,0.755-0.952,1.127-1.69c0.887-1.757,1.325-4.651,1.325-8.68
				s-0.312-6.982-0.929-8.86c-0.617-1.879-2.766-4.05-3.305-5.447c-0.193-0.503,0.66-1.374,1.957-1.565
				c0.484-0.071,1.197-0.031,2.13,0.109c0.932,0.141,1.939,0.633,3.022,1.476c1.083,0.844,1.869,1.631,2.357,2.36
				c0.293,0.452,0.441,0.678,0.734,1.13c2.188-2.343,4.655-3.294,7.399-2.847c1.466,0.239,2.986,0.774,4.555,1.608
				c1.569,0.834,3.518,3.124,3.713,3.132c0.552,0.022,3.648-2.739,5.925-2.339c0.767,0.135,1.38,0.381,1.845,0.731
				c0.464,0.351,0.99,1.172,0.907,1.369c-0.209,0.497-1.979,1.539-2.455,2.576s-0.715,2.374-0.715,4.008
				c0,2.896,2.484,5.817,2.82,6.979c0.05,0.173-0.355,0.632-0.784,0.823c-0.431,0.192-1.02,0.224-1.773,0.091
				c-0.756-0.133-1.518-0.431-2.285-0.892c-0.767-0.46-1.324-0.882-1.672-1.269c-0.209-0.246-0.313-0.368-0.522-0.614
				c-1.324,1.104-2.849,1.51-4.568,1.222c-0.675-0.113-1.221-0.323-1.64-0.626c-0.418-0.303-0.897-0.971-0.836-1.154
				c0.276-0.829,2.476-2.833,2.476-4.842c0-2.219-1.045-3.539-3.557-3.951c-2.513-0.412-3.561,0.192-3.561,1.804
				c0,0.094,0,0.199,0,0.315c0,6.358,0.691,9.54,1.291,15.9c2.559,0.414,4.472,0.604,5.948,0.56
				c1.475-0.045,2.993-0.805,3.835-0.937c0.158-0.024,0.423,0.245,0.62,0.617S663.125,621.675,663.125,622.166z"/>
			<path fill="#FFFFFF" d="M687.134,654.587c-0.03,0-0.398,0.531-0.85,0.97c-0.452,0.438-0.89,0.795-1.305,1.031
				c-1.107,0.631-2.276,0.821-3.424,0.604c-1.148-0.217-2.021-0.555-2.624-1.018c-0.604-0.462-0.954-0.878-1.046-1.246
				c-0.056-0.221-0.084-0.328-0.14-0.549c1.53-1.116,2.615-2.654,3.253-4.613c0.637-1.958,0.956-4.297,0.956-7.018
				c0-2.72-0.127-4.923-0.382-6.604s-0.569-2.958-0.939-3.821c-0.371-0.864-0.747-1.563-1.13-2.103
				c-0.382-0.538-0.702-0.941-0.957-1.212c-0.255-0.27-0.382-0.514-0.382-0.735s0.127-0.435,0.382-0.632s0.575-0.493,0.957-0.889
				s0.757-0.984,1.13-1.751c0.872-1.793,1.321-4.716,1.321-8.768c0-4.051-0.308-6.979-0.922-8.774
				c-0.614-1.798-2.747-3.95-3.287-5.378c-0.192-0.508,0.658-1.365,1.913-1.499c0.5-0.053,1.131,0.003,1.861,0.141
				s1.479,0.401,2.243,0.793s1.412,0.813,1.946,1.267c1.065,0.905,2.571,2.74,2.571,2.74c0.038-0.005,0.406-0.631,0.87-0.983
				c0.463-0.353,0.985-0.628,1.563-0.815c1.569-0.509,3.346-0.56,5.312-0.161s3.44,0.739,4.423,1.012
				c0.982,0.273,1.96,0.599,2.931,0.977s1.851,0.796,2.635,1.254c0.785,0.458,1.527,0.997,2.22,1.612
				c0.693,0.616,1.28,1.28,1.765,1.992c1.04,1.528,1.645,3.064,1.818,4.597c0.173,1.532,0.409,2.698,0.71,3.499
				c0.299,0.801,0.587,1.406,0.865,1.784c0.739,1.004,1.145,1.575,1.145,1.704c0,0.128-0.117,0.309-0.347,0.537
				c-0.23,0.229-0.503,0.523-0.798,0.877c-0.764,0.918-1.229,2.288-1.402,4.071s-0.755,3.165-1.747,4.141s-3.743,1.193-3.743,1.193
				c-0.018,0.054,4.542,3.843,5.371,7.004c0.47,1.791,0.84,4.26,1.141,7.36s0.591,5.416,0.868,6.947
				c0.621,3.429,4.3,7.61,4.29,8.062c-0.012,0.59-4.58,2.029-7.789,1.336c-1.778-0.385-3.27-1.195-4.471-2.431
				s-2.073-2.688-2.616-4.367s-0.958-3.486-1.247-5.427c-0.289-1.939-0.498-3.871-0.625-5.788c-0.128-1.918-0.289-3.69-0.505-5.29
				c-0.488-3.615-1.472-5.637-3.321-6.014c-1.861-0.379-3.436-0.567-4.436-0.938c0,4.344,0,6.512,0,10.855
				c0,3.433,0.061,6.133,0.617,8.101c0.555,1.968,2.394,4.278,2.913,5.813c0.188,0.557-0.713,1.387-1.965,1.503
				c-0.499,0.047-1.12-0.007-1.78-0.139c-0.659-0.132-1.327-0.389-1.975-0.773c-0.648-0.386-1.2-0.799-1.64-1.232
				C688.413,656.492,687.134,654.587,687.134,654.587z M699.931,611.742c-0.671-0.652-1.611-1.08-2.594-1.28
				c-0.984-0.2-1.817-0.213-2.824-0.042c-1.007,0.172-1.352,0.465-1.352,0.886c0,6.599,0,9.9,0,16.499
				c2,0.545,4.754,0.648,6.049,0.295s1.951-1.217,1.951-2.595c0-4.75,0-7.127,0-11.876
				C701.161,613.022,700.601,612.393,699.931,611.742z"/>
		</g>
	</g>
</g>
</svg>
