<?xml version="1.0" encoding="utf-8"?>
<!-- Generator: Adobe Illustrator 15.0.0, SVG Export Plug-In . SVG Version: 6.00 Build 0)  -->
<!DOCTYPE svg PUBLIC "-//W3C//DTD SVG 1.1//EN" "http://www.w3.org/Graphics/SVG/1.1/DTD/svg11.dtd">
<svg version="1.1" id="Layer_1" xmlns="http://www.w3.org/2000/svg" xmlns:xlink="http://www.w3.org/1999/xlink" x="0px" y="0px"
	 width="729.143px" height="729.143px" viewBox="0 0 729.143 729.143" enable-background="new 0 0 729.143 729.143"
	 xml:space="preserve">
<g>
	<path fill="#4087B2" d="M200.827,432.408c0,0.391-0.101,0.732-0.303,1.025c-0.201,0.293-0.553,0.525-1.056,0.695
		c-0.504,0.172-1.145,0.316-1.924,0.439c-0.779,0.121-1.798,0.184-3.055,0.184c-1.157,0-2.15-0.062-2.979-0.184
		c-0.83-0.123-1.483-0.268-1.962-0.439c-0.479-0.17-0.817-0.402-1.019-0.695s-0.301-0.635-0.301-1.025v-82.543h-0.146
		l-33.398,82.909c-0.146,0.343-0.355,0.636-0.623,0.879c-0.269,0.246-0.659,0.453-1.172,0.623s-1.124,0.293-1.831,0.366
		c-0.708,0.073-1.551,0.11-2.526,0.11c-1.025,0-1.904-0.05-2.637-0.146c-0.732-0.1-1.344-0.232-1.831-0.403
		c-0.489-0.171-0.868-0.378-1.136-0.622c-0.269-0.244-0.452-0.514-0.549-0.807l-31.934-82.909h-0.073v82.543
		c0,0.391-0.101,0.732-0.303,1.025c-0.201,0.293-0.553,0.525-1.056,0.695c-0.504,0.172-1.157,0.316-1.962,0.439
		c-0.805,0.121-1.836,0.184-3.092,0.184c-1.208,0-2.214-0.062-3.018-0.184c-0.805-0.123-1.446-0.268-1.924-0.439
		c-0.479-0.17-0.805-0.402-0.981-0.695c-0.176-0.293-0.263-0.635-0.263-1.025V345.25c0-2.051,0.545-3.516,1.635-4.395
		c1.091-0.879,2.307-1.318,3.646-1.318h7.734c1.587,0,2.975,0.146,4.165,0.439s2.23,0.758,3.123,1.392
		c0.893,0.635,1.637,1.44,2.231,2.417c0.596,0.978,1.116,2.124,1.562,3.442l27.1,68.627h0.366l28.198-68.408
		c0.545-1.465,1.14-2.71,1.785-3.735s1.353-1.843,2.122-2.454c0.769-0.609,1.623-1.049,2.566-1.318
		c0.942-0.268,2.033-0.402,3.274-0.402h8.11c0.744,0,1.451,0.109,2.12,0.329c0.67,0.22,1.241,0.562,1.712,1.025
		c0.472,0.465,0.856,1.051,1.154,1.758c0.297,0.709,0.446,1.575,0.446,2.601V432.408z"/>
</g>
<g>
	<path fill="#4087B2" d="M283.952,376.14c0,5.877-0.693,11.174-2.078,15.891s-3.453,8.731-6.204,12.044
		c-2.752,3.314-6.205,5.859-10.36,7.637c-4.155,1.778-9.004,2.668-14.544,2.668c-5.466,0-10.191-0.814-14.178-2.443
		c-3.987-1.627-7.282-3.994-9.883-7.103c-2.603-3.106-4.54-6.963-5.812-11.567s-1.909-9.901-1.909-15.891
		c0-5.728,0.692-10.931,2.078-15.61c1.384-4.68,3.462-8.656,6.232-11.933c2.771-3.275,6.233-5.802,10.389-7.58
		s9.003-2.668,14.543-2.668c5.354,0,10.014,0.806,13.982,2.415c3.967,1.609,7.271,3.959,9.911,7.047
		c2.639,3.089,4.604,6.907,5.896,11.455C283.307,365.05,283.952,370.263,283.952,376.14z M273.732,376.813
		c0-4.118-0.365-7.945-1.095-11.483c-0.729-3.537-1.944-6.606-3.646-9.209c-1.701-2.602-3.973-4.633-6.813-6.093
		s-6.355-2.189-10.542-2.189c-4.188,0-7.703,0.786-10.544,2.358c-2.842,1.572-5.15,3.669-6.926,6.289
		c-1.776,2.62-3.048,5.681-3.814,9.18c-0.767,3.501-1.149,7.179-1.149,11.034c0,4.268,0.354,8.198,1.065,11.791
		c0.711,3.594,1.906,6.692,3.589,9.293c1.684,2.604,3.936,4.625,6.759,6.064c2.822,1.442,6.364,2.162,10.627,2.162
		c4.225,0,7.776-0.785,10.656-2.357c2.878-1.572,5.196-3.697,6.954-6.373c1.756-2.677,3.009-5.775,3.757-9.294
		C273.357,384.47,273.732,380.744,273.732,376.813z"/>
</g>
<g>
	<path fill="#4087B2" d="M353.806,350.535c0,0.711-0.038,1.339-0.112,1.881c-0.076,0.543-0.188,0.992-0.337,1.348
		c-0.15,0.356-0.337,0.609-0.562,0.758c-0.225,0.15-0.469,0.225-0.73,0.225c-0.449,0-1.198-0.355-2.246-1.066
		s-2.452-1.497-4.211-2.358c-1.761-0.861-3.866-1.647-6.317-2.358c-2.452-0.711-5.362-1.067-8.731-1.067
		c-4.007,0-7.601,0.73-10.781,2.19c-3.183,1.46-5.878,3.481-8.086,6.064c-2.21,2.583-3.902,5.652-5.082,9.209
		c-1.179,3.556-1.769,7.412-1.769,11.567c0,4.642,0.646,8.76,1.938,12.354c1.291,3.594,3.078,6.625,5.362,9.096
		c2.282,2.471,5.006,4.344,8.17,5.615c3.163,1.273,6.635,1.91,10.416,1.91c2.246,0,4.521-0.271,6.823-0.814
		c2.302-0.543,4.444-1.356,6.429-2.443v-21.169h-16.846c-0.637,0-1.114-0.317-1.432-0.954c-0.318-0.637-0.478-1.629-0.478-2.977
		c0-0.71,0.037-1.319,0.112-1.824c0.075-0.506,0.197-0.917,0.365-1.235c0.169-0.318,0.365-0.553,0.59-0.702s0.505-0.225,0.842-0.225
		h23.079c0.411,0,0.822,0.075,1.235,0.225c0.411,0.149,0.786,0.374,1.123,0.674s0.598,0.711,0.786,1.235
		c0.187,0.524,0.28,1.123,0.28,1.797v27.683c0,0.975-0.168,1.816-0.505,2.527s-1.049,1.338-2.134,1.881
		c-1.087,0.543-2.49,1.133-4.212,1.769c-1.722,0.638-3.501,1.179-5.334,1.628c-1.835,0.449-3.688,0.787-5.56,1.012
		s-3.726,0.336-5.559,0.336c-5.615,0-10.633-0.869-15.049-2.611c-4.418-1.74-8.152-4.219-11.202-7.439
		c-3.052-3.219-5.383-7.075-6.991-11.567c-1.61-4.492-2.415-9.508-2.415-15.049c0-5.764,0.871-10.986,2.611-15.666
		c1.741-4.68,4.192-8.666,7.356-11.961c3.162-3.293,6.963-5.849,11.398-7.664c4.437-1.815,9.35-2.724,14.74-2.724
		c2.77,0,5.371,0.244,7.805,0.729c2.434,0.487,4.595,1.059,6.486,1.713c1.89,0.655,3.481,1.367,4.772,2.134
		c1.292,0.768,2.181,1.396,2.667,1.881c0.486,0.487,0.823,1.049,1.011,1.685C353.712,348.42,353.806,349.336,353.806,350.535z"/>
</g>
<g>
	<path fill="#4087B2" d="M420.233,411.852c0,0.301-0.056,0.562-0.169,0.787c-0.111,0.225-0.355,0.412-0.729,0.561
		c-0.374,0.149-0.898,0.262-1.572,0.338c-0.674,0.074-1.572,0.111-2.695,0.111c-0.974,0-1.769-0.037-2.386-0.111
		c-0.619-0.076-1.115-0.197-1.488-0.365c-0.375-0.168-0.666-0.402-0.871-0.702c-0.206-0.3-0.385-0.674-0.533-1.123l-6.682-17.126
		c-0.787-1.946-1.602-3.734-2.443-5.363s-1.844-3.031-3.004-4.211c-1.16-1.179-2.527-2.096-4.1-2.751s-3.463-0.983-5.671-0.983
		h-6.458v30.939c0,0.301-0.084,0.562-0.252,0.787s-0.432,0.402-0.787,0.533s-0.842,0.242-1.459,0.336s-1.396,0.141-2.33,0.141
		c-0.937,0-1.713-0.047-2.33-0.141c-0.619-0.094-1.115-0.205-1.488-0.336c-0.375-0.131-0.638-0.309-0.787-0.533
		s-0.225-0.486-0.225-0.787v-67.269c0-1.46,0.384-2.479,1.152-3.061c0.766-0.58,1.58-0.87,2.441-0.87h15.442
		c1.833,0,3.359,0.047,4.577,0.141c1.215,0.094,2.311,0.196,3.284,0.309c2.808,0.486,5.287,1.255,7.44,2.302
		c2.152,1.049,3.959,2.378,5.418,3.987c1.461,1.609,2.555,3.453,3.285,5.531c0.73,2.077,1.096,4.371,1.096,6.878
		c0,2.435-0.328,4.614-0.982,6.542c-0.656,1.929-1.602,3.632-2.836,5.11c-1.236,1.479-2.715,2.761-4.437,3.846
		c-1.722,1.087-3.649,2.003-5.784,2.752c1.198,0.524,2.283,1.188,3.258,1.993c0.973,0.806,1.881,1.769,2.723,2.892
		s1.637,2.415,2.387,3.875c0.748,1.459,1.496,3.107,2.246,4.941l6.514,16.003c0.523,1.348,0.861,2.294,1.011,2.835
		C420.158,411.132,420.233,411.553,420.233,411.852z M405.689,360.81c0-2.844-0.637-5.25-1.908-7.215
		c-1.273-1.966-3.407-3.378-6.402-4.24c-0.936-0.261-1.992-0.449-3.172-0.562s-2.724-0.168-4.633-0.168h-8.143v24.482h9.434
		c2.546,0,4.746-0.309,6.598-0.927c1.854-0.617,3.398-1.479,4.633-2.583c1.236-1.104,2.143-2.405,2.725-3.902
		C405.399,364.199,405.689,362.571,405.689,360.81z"/>
</g>
<g>
	<path fill="#4087B2" d="M488.627,409.887c0.299,0.824,0.457,1.488,0.477,1.994c0.02,0.504-0.121,0.889-0.42,1.15
		c-0.301,0.262-0.797,0.43-1.488,0.506c-0.693,0.074-1.619,0.111-2.779,0.111c-1.162,0-2.088-0.027-2.779-0.084
		c-0.693-0.057-1.217-0.15-1.572-0.281c-0.357-0.13-0.619-0.309-0.787-0.533s-0.328-0.505-0.477-0.842l-6.234-17.688h-30.209
		l-5.953,17.463c-0.111,0.337-0.262,0.627-0.449,0.871c-0.188,0.243-0.457,0.449-0.812,0.617c-0.357,0.168-0.863,0.289-1.518,0.365
		c-0.654,0.074-1.506,0.111-2.555,0.111c-1.086,0-1.975-0.047-2.666-0.141c-0.693-0.094-1.18-0.271-1.461-0.533
		c-0.281-0.261-0.412-0.645-0.393-1.15c0.018-0.506,0.177-1.17,0.477-1.994l24.371-67.494c0.148-0.412,0.346-0.749,0.59-1.011
		c0.242-0.262,0.598-0.468,1.066-0.618c0.467-0.148,1.066-0.252,1.797-0.309c0.73-0.056,1.656-0.084,2.779-0.084
		c1.197,0,2.189,0.028,2.977,0.084c0.785,0.057,1.422,0.16,1.908,0.309c0.486,0.15,0.861,0.365,1.123,0.646
		c0.262,0.28,0.469,0.627,0.617,1.038L488.627,409.887z M457.35,350.31h-0.057l-12.521,36.217h25.27L457.35,350.31z"/>
</g>
<g>
	<path fill="#4087B2" d="M545.396,361.933c0,3.632-0.6,6.907-1.797,9.827c-1.199,2.92-2.912,5.41-5.139,7.468
		c-2.227,2.06-4.961,3.65-8.197,4.773c-3.238,1.123-7.104,1.685-11.596,1.685h-8.254v26.166c0,0.301-0.084,0.562-0.254,0.787
		c-0.168,0.225-0.43,0.402-0.785,0.533c-0.357,0.131-0.842,0.242-1.461,0.336c-0.617,0.094-1.395,0.141-2.33,0.141
		s-1.713-0.047-2.33-0.141s-1.113-0.205-1.488-0.336s-0.637-0.309-0.785-0.533c-0.15-0.225-0.225-0.486-0.225-0.787v-67.044
		c0-1.497,0.393-2.563,1.18-3.201c0.785-0.636,1.664-0.954,2.639-0.954h15.555c1.572,0,3.078,0.065,4.52,0.196
		c1.439,0.132,3.145,0.412,5.109,0.843s3.967,1.235,6.008,2.414c2.041,1.18,3.771,2.631,5.195,4.352
		c1.422,1.723,2.518,3.716,3.285,5.98C545.012,356.703,545.396,359.202,545.396,361.933z M535.232,362.719
		c0-2.956-0.553-5.427-1.656-7.412c-1.104-1.983-2.471-3.462-4.1-4.436c-1.627-0.974-3.312-1.591-5.053-1.854
		c-1.74-0.261-3.436-0.393-5.082-0.393h-8.928v29.142h8.703c2.92,0,5.344-0.373,7.271-1.123c1.928-0.748,3.547-1.787,4.857-3.116
		c1.311-1.328,2.303-2.92,2.977-4.772C534.896,366.902,535.232,364.891,535.232,362.719z"/>
</g>
<g>
	<path fill="#4087B2" d="M631.367,431.408c0,0.391-0.1,0.732-0.293,1.025c-0.195,0.293-0.539,0.525-1.025,0.695
		c-0.488,0.172-1.135,0.316-1.941,0.439c-0.805,0.121-1.795,0.184-2.967,0.184c-1.27,0-2.295-0.062-3.076-0.184
		c-0.781-0.123-1.416-0.268-1.904-0.439c-0.488-0.17-0.83-0.402-1.025-0.695s-0.293-0.635-0.293-1.025v-42.041h-43.139v42.041
		c0,0.391-0.1,0.732-0.293,1.025c-0.195,0.293-0.539,0.525-1.025,0.695c-0.488,0.172-1.135,0.316-1.941,0.439
		c-0.805,0.121-1.82,0.184-3.039,0.184c-1.172,0-2.174-0.062-3.004-0.184c-0.83-0.123-1.49-0.268-1.977-0.439
		c-0.488-0.17-0.832-0.402-1.025-0.695c-0.195-0.293-0.293-0.635-0.293-1.025v-90.966c0-0.391,0.098-0.732,0.293-1.025
		c0.193-0.293,0.537-0.524,1.025-0.696c0.486-0.17,1.146-0.316,1.977-0.439c0.83-0.121,1.832-0.183,3.004-0.183
		c1.219,0,2.234,0.062,3.039,0.183c0.807,0.123,1.453,0.27,1.941,0.439c0.486,0.172,0.83,0.403,1.025,0.696
		c0.193,0.293,0.293,0.635,0.293,1.025v37.939h43.139v-37.939c0-0.391,0.098-0.732,0.293-1.025s0.537-0.524,1.025-0.696
		c0.488-0.17,1.123-0.316,1.904-0.439c0.781-0.121,1.807-0.183,3.076-0.183c1.172,0,2.162,0.062,2.967,0.183
		c0.807,0.123,1.453,0.27,1.941,0.439c0.486,0.172,0.83,0.403,1.025,0.696c0.193,0.293,0.293,0.635,0.293,1.025V431.408z"/>
</g>
<g>
	<polygon fill="#4087B2" points="541.14,295.571 480.444,234.614 459.362,255.563 401.806,197.939 351.396,248.316 293.08,190.247 
		188.002,295.571 	"/>
</g>
<g>
	<path fill="#4087B2" d="M291.028,156.633l2.572-4.113c3.444,1.728,6.732,2.247,9.864,1.561c2.178-0.477,3.823-1.483,4.938-3.019
		c1.112-1.536,1.456-3.272,1.032-5.213c-0.421-1.907-2.186-3.728-5.299-5.462l-4.016-2.244c-2.977-1.646-4.86-2.849-5.652-3.609
		c-0.791-0.76-1.351-1.887-1.679-3.381c-0.651-2.973,0.042-5.812,2.082-8.517c2.039-2.705,4.8-4.439,8.281-5.203
		c2.21-0.484,4.946-0.393,8.208,0.275l0.12,6.247l-1.502,0.329c-0.077-0.5-0.135-0.846-0.177-1.036
		c-0.332-1.51-1.203-2.593-2.613-3.251c-1.41-0.657-3.108-0.768-5.097-0.332c-2.049,0.449-3.642,1.436-4.774,2.959
		c-1.133,1.522-1.502,3.183-1.107,4.979c0.265,1.209,0.861,2.236,1.788,3.082c0.927,0.848,2.72,1.979,5.38,3.395l3.349,1.815
		c3.721,2,5.837,4.169,6.35,6.506c0.673,3.068-0.222,6.022-2.681,8.86c-2.461,2.84-5.726,4.705-9.795,5.598
		C297.483,157.542,294.293,157.466,291.028,156.633z"/>
	<path fill="#4087B2" d="M307.405,169.388l2.906-3.822c1.737,0.633,3.496,0.854,5.275,0.664c4.128-0.441,6.505-4.152,7.134-11.132
		l1.726-19.226c0.181-2.444,0.229-4.062,0.145-4.856c-0.146-1.359-0.736-1.984-1.772-1.874c-0.745,0.08-2.025,0.504-3.842,1.271
		l0.157-1.515l11.431-5.15l-1.006,8.038l-0.557,6.051l0.413-0.044c1.408-4.275,3.26-7.825,5.552-10.648s4.564-4.355,6.813-4.596
		c3.447-0.368,5.399,1.584,5.856,5.855c0.534,5.001-0.93,9.945-4.393,14.834c-3.464,4.888-7.404,7.568-11.822,8.041
		c-0.453,0.048-1.385,0.058-2.796,0.028c-0.181,0.003-0.459,0-0.836-0.009c-0.72,5.364-2.506,9.602-5.356,12.714
		s-6.606,4.918-11.268,5.416C310.002,169.553,308.747,169.54,307.405,169.388z M328.104,147.803
		c2.118,0.674,4.188,0.902,6.211,0.686c2.931-0.313,5.077-2.425,6.444-6.336c1.617-4.625,2.237-8.693,1.861-12.205
		c-0.271-2.541-1.159-3.731-2.665-3.571c-1.375,0.148-3.21,1.821-5.503,5.021s-4.241,6.792-5.846,10.777L328.104,147.803z"/>
	<path fill="#4087B2" d="M374.479,142.258l-0.347,1.884c-5.139,3.666-9.53,5.518-13.175,5.555c-2.312,0.024-4.195-0.766-5.653-2.369
		c-1.456-1.604-2.197-3.689-2.225-6.259c-0.047-4.585,1.668-8.917,5.143-12.994c3.473-4.076,7.204-6.135,11.19-6.176
		c1.448-0.015,2.625,0.462,3.53,1.427c0.905,0.966,1.366,2.229,1.382,3.789c0.031,3.12-1.536,5.818-4.702,8.094
		c-3.168,2.275-6.964,3.436-11.391,3.48l-0.013,1.099c0.049,4.753,1.813,7.11,5.297,7.075
		C366.525,146.833,370.18,145.297,374.479,142.258z M358.265,137.2c3.643-0.33,6.481-1.3,8.516-2.907
		c2.034-1.608,3.038-3.673,3.013-6.196c-0.025-2.489-0.942-3.726-2.748-3.707c-1.952,0.021-3.827,1.338-5.624,3.952
		C359.626,130.956,358.573,133.909,358.265,137.2z"/>
	<path fill="#4087B2" d="M401.248,144.235l-0.513,1.871c-5.601,3.191-10.104,4.655-13.513,4.393
		c-2.353-0.183-4.182-1.123-5.486-2.824c-1.306-1.7-1.858-3.857-1.656-6.47c0.364-4.723,2.485-8.921,6.36-12.597
		s7.955-5.348,12.24-5.018c1.881,0.146,3.724,0.704,5.526,1.676l-2.114,6.13l-1.509-0.117l0.102-0.359
		c0.221-0.749,0.345-1.303,0.372-1.66c0.173-2.239-1.257-3.477-4.292-3.711c-2.856-0.221-5.352,1.121-7.485,4.025
		c-2.135,2.904-3.38,6.66-3.735,11.27c-0.34,4.397,1.129,6.723,4.407,6.977C393.068,148.06,396.834,146.866,401.248,144.235z"/>
	<path fill="#4087B2" d="M423.666,147.046l-0.777,2.179c-4.1,3.243-7.55,4.652-10.35,4.226c-2.317-0.354-3.29-1.745-2.919-4.175
		c0.125-0.821,0.516-2.145,1.174-3.971l2.946-8.145c0.813-2.312,1.28-3.863,1.399-4.651c0.207-1.352-0.213-2.107-1.26-2.267
		c-0.724-0.11-2.06-0.034-4.01,0.228l0.515-1.428l12.391-2.062l-3.013,7.444l-4.184,11.562c-0.655,1.81-1.021,2.972-1.101,3.486
		c-0.159,1.046,0.236,1.642,1.186,1.786C417.257,151.502,419.924,150.098,423.666,147.046z M418.42,122.019l2.117-3.035l7.483-3.402
		l-2.753,4.123L418.42,122.019z"/>
	<path fill="#4087B2" d="M445.545,146.198l-0.429-0.104c-2.739,3.545-5.666,6.271-8.782,8.177c-3.115,1.906-5.772,2.596-7.971,2.069
		c-3.336-0.8-4.504-3.289-3.502-7.468c1.104-4.605,4.02-8.677,8.751-12.213c4.895-3.663,10.08-4.84,15.557-3.527
		c2.263,0.542,4.606,1.204,7.03,1.986l-3.394,6.618l-5.113,11.176c-0.805,1.749-1.271,2.893-1.399,3.431
		c-0.239,0.997,0.107,1.607,1.043,1.831c1.582,0.38,4.358-0.796,8.326-3.527l-0.956,2.105c-4.364,2.887-7.927,4-10.686,3.339
		c-2.299-0.551-3.162-2.021-2.59-4.411c0.19-0.791,0.703-2.092,1.54-3.898L445.545,146.198z M449.729,137.158
		c-1.78-1.364-3.645-2.279-5.59-2.745c-2.881-0.69-5.619,0.578-8.217,3.806c-3.058,3.819-4.996,7.447-5.818,10.881
		c-0.597,2.485-0.166,3.902,1.289,4.251c1.359,0.326,3.659-0.634,6.898-2.878c3.239-2.245,6.263-4.973,9.073-8.182L449.729,137.158z
		"/>
	<path fill="#4087B2" d="M471.861,160.369l-1.116,1.998c-4.872,2.535-8.625,3.372-11.257,2.512c-2.197-0.719-2.91-2.262-2.137-4.629
		c0.319-0.975,0.908-2.229,1.77-3.762l8.416-14.973c2.944-5.235,6.471-8.907,10.58-11.016c4.107-2.107,8.376-2.438,12.805-0.99
		c1.549,0.506,2.889,1.124,4.022,1.854l-4.269,2.278c-1.528-1.406-2.943-2.323-4.244-2.748c-2.463-0.806-4.606-0.513-6.433,0.877
		s-4.05,4.421-6.675,9.094l-9.639,17.142c-0.938,1.662-1.495,2.765-1.672,3.306c-0.318,0.975-0.021,1.611,0.893,1.91
		c1.037,0.34,3.493-0.382,7.367-2.164C470.576,160.917,471.105,160.687,471.861,160.369z"/>
</g>
<g>
	<path fill="#4087B2" d="M214.258,560c-4.815,8.48-5.06,10.019-0.96,12.766l2.877,1.947c0.205,0.746-0.673,1.924-1.283,1.892
		c-4.824-2.948-7.474-4.558-10.645-6.357c-3.328-1.89-6.227-3.431-10.517-5.657c-0.341-0.508,0.221-1.865,0.966-2.071l2.593,1.157
		c4.866,2.135,5.654,1.115,10.47-7.365l2.295-4.042c2.475-4.358,2.822-5.524,3.043-11.268l0.998-23.538
		c0.275-6.761-0.688-7.832-2.841-9.578l-1.994-1.656c-0.161-0.824,0.548-1.89,1.283-1.895c2.446,1.599,5.254,3.298,9.059,5.457
		c3.646,2.07,6.544,3.611,8.615,4.581c0.578,0.643-0.142,1.91-0.888,2.116l-1.12-0.427c-2.999-1.179-3.778-1.098-4.139-0.463
		c-0.45,0.792-0.954,6.479-1.008,7.497c-0.397,7.53-1.02,15.456-1.034,22.68c4.842-2.806,10.067-5.918,15.055-9.164
		c4.56-2.861,10.552-6.586,11.092-7.537c0.27-0.476-0.842-1.84-2.609-3.158l-1.336-0.968c-0.24-0.87,0.469-1.935,1.283-1.896
		c2.763,1.778,5.017,3.163,7.474,4.558c2.457,1.396,4.721,2.576,7.505,3.951c0.409,0.756-0.142,1.91-0.966,2.071l-2.444-0.864
		c-4.526-1.626-9.738,2.017-17.571,6.583l-9.897,5.804c-6.907,4.043-7.55,4.621-11.015,10.724L214.258,560z"/>
	<path fill="#4087B2" d="M244.92,559.637c5.457-17.392,22.675-26.604,40.589-20.984c20.088,6.303,25.619,23.989,20.817,39.295
		c-5.512,17.565-22.914,26.147-39.697,20.882C247.324,592.771,240.009,575.289,244.92,559.637z M296.784,577.914
		c4.501-14.348,3.01-31.818-13.6-37.029c-9.044-2.838-22.721-0.347-28.695,18.697c-4.038,12.87-3.015,31.531,14.116,36.905
		C279.04,599.762,291.409,595.046,296.784,577.914z"/>
	<path fill="#4087B2" d="M370.45,603.866c-0.216,3.64,0.2,5.854,1.8,6.589c0.257,0.289,0.225,0.835-0.155,1.086
		c-1.092-0.064-2.751,0.202-4.507,0.555c-4.896,0.987-11.512,1.69-16.424,1.398c-10.826-0.643-20.563-4.233-27.147-11.746
		c-5.134-5.782-7.618-13.142-7.144-21.147c0.46-7.732,3.472-15.405,9.468-21.074c6.474-6.006,15.734-9.747,29.471-8.932
		c5.186,0.308,9.947,1.595,11.473,2.051c1.707,0.467,4.489,1.271,5.592,1.153c-0.179,3.002,0.086,7.766,0.581,13.272
		c-0.316,0.711-1.959,0.705-2.473,0.127c-1.964-9.977-8.603-13.475-17.882-14.025c-17.648-1.048-26.127,11.047-26.938,24.693
		c-1.037,17.467,7.153,31.738,25.439,32.824c5.641,0.335,9.076-0.648,10.169-2.136c0.493-0.609,1.045-2.22,1.218-5.131l0.216-3.639
		c0.454-7.643,0.213-8.204-5.39-9.176l-3.976-0.692c-0.706-0.407-0.518-2.04,0.136-2.274c2.627,0.338,7.625,0.727,12.992,1.045
		c3.548,0.211,6.646,0.304,9.659,0.3c0.615,0.401,0.625,1.771-0.044,2.279l-1.466,0.096c-3.849,0.229-4.091,2.771-4.366,7.41
		L370.45,603.866z"/>
	<path fill="#4087B2" d="M391.8,564.855c-1.408-9.374-1.791-10.699-7.204-10.531l-1.469,0.036c-0.595-0.279-0.658-1.929-0.158-2.28
		c3.902-0.402,6.98-0.772,10.677-1.327l16.944-2.544c5.769-0.866,11.087-1.665,12.128-2.098c0.771,1.451,2.286,7.859,3.242,11.771
		c-0.279,0.596-1.694,0.992-2.227,0.519c-1.988-4.033-3.272-7.065-8.136-7.533c-1.961-0.167-4.858,0.176-8.824,0.771l-6.489,0.975
		c-2.704,0.406-2.677,0.586-2.163,4.012l2.707,18.026c0.379,2.523,0.649,2.483,3.354,2.077l5.228-0.785
		c3.786-0.568,6.553-1.168,7.58-1.691c1.027-0.522,1.577-1.158,1.689-3.479l0.166-3.804c0.37-0.608,1.902-0.838,2.357-0.263
		c0.325,2.163,0.492,5.732,1.007,9.158c0.487,3.244,1.361,6.615,1.659,8.6c-0.266,0.685-1.798,0.915-2.33,0.441l-1.339-3.394
		c-0.604-1.567-1.438-2.825-3.309-3.005c-1.315-0.171-3.492,0.063-7.008,0.592l-5.228,0.784c-2.704,0.406-2.961,0.537-2.609,2.881
		l1.909,12.709c0.717,4.776,1.447,7.801,3.12,9.116c1.243,0.919,3.285,1.627,11.217,0.436c6.94-1.042,9.5-1.795,11.334-3.084
		c1.487-1.146,3.447-4.665,5.087-9.704c0.563-0.546,1.866-0.465,2.349,0.292c-0.157,3.25-1.369,10.528-2.175,13.138
		c-8.14,1.038-16.175,2.152-24.197,3.357l-8.111,1.218c-3.876,0.582-6.927,1.133-12.218,2.111c-0.581-0.189-0.979-1.604-0.519-2.227
		l2.934-0.717c5.07-1.223,5.317-2.642,3.896-12.106L391.8,564.855z"/>
	<path fill="#4087B2" d="M466.102,597.689c-7.267,2.41-12.597,1.682-14.557,1.274c-1.669-1.559-4.83-7.327-6.352-11.335
		c0.232-0.749,1.473-1.353,1.99-0.948c2.761,3.981,9.118,11.282,19.152,7.954c7.267-2.409,9.235-8.343,7.515-13.533
		c-1.263-3.806-3.447-7.786-11.109-9.758l-9.997-2.638c-5.271-1.421-11.924-4.688-14.275-11.78
		c-2.726-8.218,1.467-17.001,12.712-20.73c2.682-0.89,5.968-1.403,8.418-1.544c1.239-0.026,2.507-0.255,3.199-0.484
		c1.467,1.817,3.852,6.403,5.057,10.037c-0.174,0.634-1.472,1.352-2.076,0.977c-2.502-3.779-6.702-8.628-15.006-5.874
		c-8.478,2.812-8.43,9.037-7.109,13.016c1.663,5.018,7.021,7.273,10.881,8.201l8.354,2.03c6.568,1.566,13.596,4.806,16.32,13.022
		C482.375,585.092,477.347,593.961,466.102,597.689z"/>
	<path fill="#4087B2" d="M502.352,549.328c-3.782,2.198-3.849,2.447-2.475,4.812l6.457,11.11c4.808,8.273,5.843,9.147,10.53,7.056
		l2.423-1.091c0.655,0.04,1.322,1.55,0.987,2.062c-4.347,2.314-7.072,3.793-10.145,5.579c-3.389,1.969-5.977,3.684-9.004,5.548
		c-0.609,0.038-1.5-1.131-1.302-1.878l1.202-1.016c3.954-3.352,3.654-4.231-1.154-12.505l-16.484-28.367
		c-4.809-8.273-6.139-9.292-10.419-7.227l-2.141,1.033c-0.655-0.04-1.322-1.55-0.987-2.062c3.907-2.165,6.678-3.564,10.066-5.533
		c3.073-1.786,5.706-3.422,9.003-5.548c0.61-0.039,1.592,1.288,1.302,1.878l-1.405,1.027c-4.295,3.129-3.766,4.402,1.042,12.676
		l5.267,9.062c1.419,2.443,1.622,2.431,5.404,0.232l22.536-13.097c3.782-2.198,3.895-2.368,2.475-4.811l-5.266-9.062
		c-4.809-8.274-5.653-9.364-10.577-7.136l-1.588,0.713c-0.656-0.041-1.323-1.551-0.987-2.062c3.716-1.949,6.44-3.427,9.672-5.305
		c3.072-1.786,5.706-3.422,9.16-5.64c0.61-0.038,1.592,1.288,1.303,1.878l-1.563,1.119c-4.296,3.129-3.767,4.402,1.042,12.677
		l16.485,28.366c4.808,8.273,5.561,9.206,10.451,7.103l2.028-0.863c0.656,0.041,1.323,1.551,0.987,2.062
		c-3.873,2.04-6.599,3.519-9.671,5.305c-3.231,1.877-6.022,3.604-9.397,5.777c-0.61,0.038-1.501-1.131-1.303-1.879l1.36-1.106
		c4.349-3.581,3.891-4.369-0.918-12.643l-6.456-11.11c-1.374-2.364-1.623-2.43-5.405-0.231L502.352,549.328z"/>
</g>
<g>
	<path fill="#4087B2" d="M165.128,214.241c-4.212,3.275-4.823,4.031-4.823,4.247s0.288,0.324,1.224,0.324h4.211
		c3.096,0,3.42-0.036,5.004-2.16c0.288-0.107,0.612,0,0.756,0.216c-0.468,1.404-1.439,3.492-2.052,4.212
		c-1.439-0.072-2.916-0.108-5.291-0.108h-5.184c-1.908,0-3.132,0.036-3.779,0.108c-0.145-0.072-0.216-0.252-0.216-0.396
		c0-0.071,0-0.107,0.035-0.18c2.196-1.476,3.852-2.628,7.38-5.579c3.203-2.664,8.675-6.804,8.675-11.123
		c0-2.735-1.656-4.175-3.815-4.175c-2.34,0-4.104,1.548-5.399,3.312c-0.36,0.18-0.792-0.036-0.756-0.54
		c1.619-2.771,4.499-4.464,7.271-4.464c3.744,0,5.831,2.124,5.831,5.363c0,3.492-3.095,6.3-6.011,8.567L165.128,214.241z"/>
	<path fill="#4087B2" d="M192.522,204.845c0,4.176-2.016,9.611-4.823,13.03c-1.691,2.052-3.852,3.6-6.371,3.6
		c-4.5,0-5.363-3.995-5.363-6.947c0-4.463,1.943-9.574,4.751-12.886c1.764-2.088,3.96-3.708,6.659-3.708
		C191.803,197.934,192.522,201.894,192.522,204.845z M182.66,202.902c-2.16,3.743-3.924,9.719-3.924,13.678
		c0,2.269,0.72,3.815,2.735,3.815c3.06,0,5.04-4.967,6.012-7.559c1.08-2.916,2.268-6.731,2.268-9.791
		c0-2.159-0.504-4.031-2.483-4.031C185.684,199.014,183.991,200.598,182.66,202.902z"/>
</g>
<g>
	<path fill="#4087B2" d="M561.727,216.616c-0.863,2.88-0.539,3.24,1.297,3.456l0.936,0.107c0.216,0.181,0.216,0.756-0.036,0.9
		c-1.836-0.072-3.167-0.108-4.644-0.108c-1.332,0-2.771,0.036-4.391,0.108c-0.289-0.18-0.289-0.792,0-0.9l0.899-0.107
		c2.268-0.288,2.628-0.864,3.456-3.708l3.6-12.13c0.827-2.808,0.719-3.312-0.648-3.456l-1.656-0.18
		c-0.216-0.18-0.144-0.612,0.072-0.72c3.203-0.54,5.111-1.26,6.407-1.944c0.252-0.036,0.396,0.036,0.468,0.181
		c-0.468,1.224-1.08,2.915-1.512,4.355L561.727,216.616z"/>
	<path fill="#4087B2" d="M584.406,214.096c-0.899,0-1.08,0.108-1.332,0.864l-0.684,2.195c-0.684,2.196-0.72,2.735,0.684,2.916
		l0.9,0.107c0.216,0.181,0.145,0.792-0.107,0.9c-1.44-0.072-2.771-0.108-3.889-0.108c-1.295,0-2.771,0.036-4.247,0.108
		c-0.288-0.108-0.252-0.756,0.036-0.9l1.439-0.107c1.801-0.145,2.053-0.792,2.664-2.916l0.611-2.088
		c0.289-0.936,0.181-0.972-0.756-0.972h-8.674c-0.324,0-0.36-0.18-0.36-0.54c0-0.359,0.323-0.647,1.044-1.367l16.342-16.162
		c0.288-0.288,0.54-0.468,0.9-0.468h0.684c0.359,0,0.468,0.107,0.468,0.287c0,0.108-0.144,0.252-0.288,0.396l-16.197,15.802
		c-0.612,0.612-0.145,0.684,0.863,0.684h5.651c0.864,0,1.044-0.107,1.296-0.936l1.979-6.695c0.072-0.252,0.181-0.54,0.504-0.72
		c0.468-0.252,1.403-0.612,1.979-0.612c0.469,0,0.36,0.396,0.145,1.116l-2.052,6.911c-0.216,0.684-0.144,0.936,0.468,0.936h2.268
		c0.217,0.433-0.035,1.152-0.432,1.368H584.406z"/>
</g>
<path fill="#4087B2" d="M606.85,129.355L729.142,7.063L722.079,0L599.786,122.292C602.176,124.612,604.53,126.966,606.85,129.355z"
	/>
<path fill="#4087B2" d="M122.292,599.786L0.001,722.076l7.064,7.066l122.292-122.292
	C126.967,604.53,124.612,602.176,122.292,599.786z"/>
<path fill="#4087B2" d="M599.787,606.85l122.292,122.292l7.063-7.062L606.851,599.786C604.53,602.176,602.177,604.53,599.787,606.85
	z"/>
<path fill="#4087B2" d="M129.356,122.292L7.066,0.001L0,7.065l122.292,122.292C124.612,126.967,126.967,124.612,129.356,122.292z"/>
</svg>
