<?xml version="1.0" encoding="utf-8"?>
<!-- Generator: Adobe Illustrator 15.0.0, SVG Export Plug-In . SVG Version: 6.00 Build 0)  -->
<!DOCTYPE svg PUBLIC "-//W3C//DTD SVG 1.1//EN" "http://www.w3.org/Graphics/SVG/1.1/DTD/svg11.dtd">
<svg version="1.1" id="Layer_1" xmlns="http://www.w3.org/2000/svg" xmlns:xlink="http://www.w3.org/1999/xlink" x="0px" y="0px"
	 width="650px" height="572px" viewBox="0 0 650 572" enable-background="new 0 0 650 572" xml:space="preserve">
<g>
	<path d="M390,122c-24.853,0-45-20.147-45-45c0-5.854,1.13-11.442,3.164-16.573c-17.084-6.526-33.08-15.247-47.646-25.823
		C294.418,47.456,291,61.828,291,77c0,54.676,44.324,99,99,99c16.204,0,31.499-3.894,45-10.796v86.161
		C405.906,225.038,367.327,209,325,209c-90.574,0-164,73.426-164,164s73.426,164,164,164c84.146,0,153.479-63.378,162.898-145
		H433.36c-9.002,51.697-54.089,91.001-108.36,91.001c-60.751,0-110.001-49.247-110.001-110.001S264.249,263,325,263
		c58.061,0,105.61,44.981,109.709,102H489V82h-54.283C432.229,104.499,413.162,122,390,122z"/>
</g>
<rect x="0.296" y="-0.2" fill="none" width="649.408" height="572.4"/>
</svg>
