<?xml version="1.0" encoding="utf-8"?>
<!-- Generator: Adobe Illustrator 15.0.0, SVG Export Plug-In . SVG Version: 6.00 Build 0)  -->
<!DOCTYPE svg PUBLIC "-//W3C//DTD SVG 1.1//EN" "http://www.w3.org/Graphics/SVG/1.1/DTD/svg11.dtd">
<svg version="1.1" id="Layer_1" xmlns="http://www.w3.org/2000/svg" xmlns:xlink="http://www.w3.org/1999/xlink" x="0px" y="0px"
	 width="1024.686px" height="1024.684px" viewBox="0 0 1024.686 1024.684" enable-background="new 0 0 1024.686 1024.684"
	 xml:space="preserve">
<circle fill="#8CA1E9" cx="512.343" cy="512.343" r="512.343"/>
<path fill-rule="evenodd" clip-rule="evenodd" fill="#D675B9" d="M223.185,342.979c5.103-18.283,5.844-48.911,29.544-70.674
	c-0.761,44.071-7.772,126.53,60.742,143.294c9.43,2.307,18.707,0.181,27.787,1.745c23.197,3.994,39.617,17.883,66.245,33.449
	c24.975,14.601,55.567,17.149,76.661,45.263c13.362,17.807,5.853,42.393,18.391,62.526c8.03,12.895,32.924,33.926,12.404,46.808
	c-8.233,5.169-19.32,0.833-24.311-12.686c-5.971-1.071-5.816,8.924-13.114,8.941c-5.042-4.966-0.336-9.319-4.686-14.243
	c-4.927,5.071-6.921,15.286-14.939,15.8c-2.837-5.757-5.261-11.487-1.732-16.847c-8.422,3.844-20.026,20.633-27.88,21.962
	c-4.785-4.02,0.534-7.405-2.081-11.289c-6.455,6.554-12.659,9.117-18.846,11.369c-7.739-7.458-5.979-14.324-8.417-21.45
	c-6.319,4.65-22.844,18.841-32.74,10.497c-3.882-3.497-0.274-6.525,2-9.638c-13.044,0.423-26.944,14.452-39.425,5.894
	c0.73-4.602,6.896-8.865,6.429-13.543c-16.053,3.911-32.5,14.094-47.934,8.147c0.246-3.239,3.746-6.273,7.558-9.288
	c-18.904-2.524-38.351,3.6-56.352-13.303c5.218-1.654,10.399-2.724,15.544-3.208c-16.902-4.784-33.783-9.919-50.096-24.067
	c10.086-5.149,19.672-2.318,29.611-5.114c-15.005-5.374-30.072-9.766-44.539-23.721c-3.032-8.253,15.325,0.353,21.102-2.858
	c-11.773-5.627-28.78-19.258-36.029-25.974c5.652-8.101,22.133,2.572,32.042,0.617c-14.395-7.673-28.836-14.637-42.539-33.357
	c16.277-0.09,32.061,7.692,48.364,7.222c-24.386-11.317-37.753-25.732-51.305-49.25c18.736,5.196,37.198,14.741,55.828,21.638
	c-18.113-16.72-45.277-49.884-38.445-76.338c13.182,16.095,17.542,23.018,36.633,38.564c-15.979-31.223-20.824-61.748-9.612-91.265
	C212.427,313.478,216.799,328.165,223.185,342.979z"/>
<path fill-rule="evenodd" clip-rule="evenodd" fill="#D675B9" d="M817.871,333.001c-5.104-18.284-5.845-48.911-29.545-70.675
	c0.761,44.07,7.773,126.53-60.741,143.294c-9.431,2.307-18.707,0.182-27.787,1.746c-23.197,3.995-39.617,17.884-66.245,33.449
	c-24.974,14.6-55.567,17.148-76.661,45.262c-13.361,17.808-5.853,42.394-18.392,62.526c-8.029,12.895-32.923,33.926-12.402,46.809
	c8.232,5.168,19.32,0.832,24.31-12.687c5.972-1.072,5.816,8.923,13.114,8.941c5.043-4.967,0.336-9.319,4.686-14.243
	c4.927,5.071,6.922,15.286,14.939,15.8c2.837-5.757,5.262-11.487,1.731-16.847c8.423,3.843,20.026,20.633,27.881,21.962
	c4.785-4.02-0.535-7.405,2.08-11.289c6.456,6.554,12.659,9.117,18.847,11.37c7.738-7.459,5.979-14.325,8.416-21.451
	c6.319,4.65,22.844,18.842,32.74,10.497c3.882-3.497,0.273-6.525-2-9.638c13.045,0.423,26.943,14.452,39.424,5.893
	c-0.729-4.601-6.896-8.864-6.429-13.543c16.054,3.911,32.499,14.094,47.935,8.148c-0.247-3.239-3.746-6.273-7.558-9.289
	c18.903-2.524,38.35,3.601,56.352-13.302c-5.219-1.654-10.399-2.724-15.544-3.208c16.902-4.784,33.783-9.919,50.096-24.068
	c-10.086-5.148-19.673-2.317-29.611-5.113c15.005-5.374,30.072-9.766,44.539-23.72c3.032-8.253-15.324,0.352-21.102-2.859
	c11.773-5.627,28.779-19.258,36.028-25.974c-5.652-8.101-22.133,2.572-32.042,0.617c14.396-7.674,28.837-14.637,42.539-33.357
	c-16.277-0.091-32.061,7.692-48.363,7.222c24.386-11.317,37.752-25.732,51.304-49.25c-18.735,5.196-37.197,14.74-55.827,21.638
	c18.112-16.72,45.277-49.885,38.445-76.338c-13.182,16.095-17.541,23.018-36.634,38.564c15.979-31.224,20.824-61.749,9.612-91.266
	C828.628,303.5,824.257,318.188,817.871,333.001z"/>
<path fill-rule="evenodd" clip-rule="evenodd" fill="#CC52A8" d="M824.848,456.705c-25.393,35.875-78.407,52.928-128.965,67.022
	c45.474-26.964,94.077-50.798,95.454-121.857c-13.271,61.196-60.052,88.884-108.655,114.749
	c17.137-21.479,65.046-52.232,46.711-95.455c-0.935,47.638-34.989,70.496-63.975,93.424c16.164-17.315,44.436-52.866,24.372-83.269
	c6.659,51.249-28.869,77.236-59.913,97.486c1.256-3.389-1.883-10.486,0-18.279c-13.732,9.048-26.649,22.769-45.697,27.417
	c-18.626,4.546-41.148,0.441-59.913,9.14c-0.265,6.844-5.338,8.879-6.093,15.232c7.48,8.856,30.464-4.45,30.464,10.154
	c0,6.494-23.196,16.505-4.062,26.402c-0.26-8.205,10.158-10.608,15.232-10.155c7.074,6.415-3.031,19.126,7.108,23.356
	c2.442-0.942-0.614-7.384,4.062-6.093c3.343,5.457,6.493,11.108,13.2,13.202c2.971-3.699-6.04-4.077-4.062-10.155
	c12.612,14.751,38.896,9.271,57.882,13.201c7.425-2.878,15.148,0.44,19.294-6.093c5.617,4.654,11.016,0.952,17.264,2.031
	c2.163-2.576,6.888-2.591,7.108-7.108c14.462-2.125,19.994-13.178,33.51-16.248c1.158-2.228,2.621-4.149,2.032-8.124
	c1.684,1.699,5.961,0.809,9.139,1.017c2.329-2.875,3.455-4.696,2.031-9.14c5.183,1.965,16.641-2.378,22.34-6.094
	c-10.163-1.006-17.609-4.73-25.387-8.123c15.306-1.281,27.976-5.197,38.589-11.171c-11.871,1.968-32.397,0.679-44.682-3.047
	c27.512-1.812,56.34-5.992,68.037-26.401c-19.977,6.743-51.41,18.988-79.207,12.186
	C758.418,520.934,806.847,504.035,824.848,456.705z"/>
<path fill-rule="evenodd" clip-rule="evenodd" fill="#CC52A8" d="M211.5,456.705c25.393,35.875,78.408,52.928,128.966,67.022
	c-45.474-26.964-94.078-50.798-95.455-121.857c13.271,61.196,60.052,88.884,108.656,114.749
	c-17.137-21.479-65.045-52.232-46.712-95.455c0.935,47.638,34.989,70.496,63.975,93.424c-16.165-17.315-44.437-52.866-24.372-83.269
	c-6.66,51.249,28.868,77.236,59.914,97.486c-1.257-3.389,1.882-10.486,0-18.279c13.731,9.048,26.648,22.769,45.696,27.417
	c18.626,4.546,41.148,0.441,59.913,9.14c0.265,6.844,5.338,8.879,6.093,15.232c-7.48,8.856-30.464-4.45-30.464,10.154
	c0,6.494,23.197,16.505,4.062,26.402c0.26-8.205-10.158-10.608-15.232-10.155c-7.074,6.415,3.032,19.126-7.108,23.356
	c-2.442-0.942,0.614-7.384-4.062-6.093c-3.344,5.457-6.494,11.108-13.201,13.202c-2.969-3.699,6.04-4.077,4.062-10.155
	c-12.613,14.751-38.896,9.271-57.882,13.201c-7.425-2.878-15.149,0.44-19.294-6.093c-5.618,4.654-11.016,0.952-17.263,2.031
	c-2.164-2.576-6.888-2.591-7.109-7.108c-14.462-2.125-19.995-13.178-33.51-16.248c-1.157-2.228-2.62-4.149-2.031-8.124
	c-1.685,1.699-5.962,0.809-9.14,1.017c-2.329-2.875-3.454-4.696-2.031-9.14c-5.182,1.965-16.641-2.378-22.34-6.094
	c10.164-1.006,17.61-4.73,25.387-8.123c-15.305-1.281-27.975-5.197-38.588-11.171c11.871,1.968,32.397,0.679,44.681-3.047
	c-27.511-1.812-56.34-5.992-68.036-26.401c19.976,6.743,51.41,18.988,79.207,12.186C277.929,520.934,229.501,504.035,211.5,456.705z
	"/>
<path fill-rule="evenodd" clip-rule="evenodd" fill="#6C3A5B" d="M411.005,295.951c-1.932,8.261-4.524,20.737-7.331,30.084
	c-0.929,3.092-3.04,6.083-3.54,8.849c-0.792,4.379,0.195,9.81,0.758,14.41c1.431,11.703,5.07,19.892,7.584,30.084
	c0.504,2.045,0.392,4.391,1.011,6.32c0.829,2.585,5.467,7.174,7.584,9.101c3.085,2.81,6.759,5.113,10.113,6.573
	c-0.88-9.896-2.719-19.384-6.573-27.051c-2.09-4.158-4.394-7.069-5.562-11.376c-1.168-4.312-1.904-8.922-2.021-14.916
	c-0.415-20.968,0.61-42.408,14.662-51.826c-1.08,6.624-5.177,11.738-6.32,18.961c-1.135,7.172-0.252,15.295-0.252,23.764
	c0,15.48,4.574,29.586,10.618,39.186c2.811-2.656,3.009-7.815,4.298-12.135c1.183-3.962,1.962-9.206,6.572-9.606
	c2.49,3.493,0.504,7.731-0.252,11.124c-2.416,10.847-7.519,22.35-3.034,34.129c2.669,7.012,6.982,11.775,11.882,15.675
	c5.545,4.413,11.086,6.144,19.213,8.09c1.373,0.329,2.94,2.256,5.309,2.022c4.991-0.491,3.314-6.405,3.54-10.871
	c0.228-4.517,2.276-9.212,4.045-13.146c1.872-4.161,3.309-8.446,5.562-11.629c2.932,1.957,1.083,5.67,0.505,8.343
	c-0.634,2.933-0.942,6.061-1.011,9.102c-0.143,6.244-0.305,13.672,1.77,18.96c1.164,2.967,4.922,5.902,7.332,8.09
	c1.424,1.294,2.76,2.458,4.044,3.792c1.24,1.286,2.393,3.188,3.539,4.045c3.511,2.625,10.465,4.125,14.917,2.022
	c3.725-1.759,6.42-5.87,10.112-8.09c3.766-2.263,9.564-4.095,11.124-8.849c1.291-3.934,1.501-11.235,1.77-17.949
	c0.466-11.638-0.692-20.405-6.32-25.534c1.454-1.418,2.763-3.827,5.057-3.792c5.362,0.081,8.018,12.92,8.849,17.949
	c1.492,9.042,1.234,16.765,1.517,24.775c7.646,2.634,15.198-1.736,20.73-4.803c4.14-2.294,7.566-5.582,11.629-7.837
	c0.918-0.51,2.129-0.683,3.034-1.264c4.526-2.906,8.612-12.688,10.87-18.456c1.379-3.521,2.604-7.235,3.793-10.87
	c1.172-3.586,3.107-7.909,3.286-11.125c0.136-2.424-0.933-5.764-1.264-8.848c-0.657-6.123-1.477-11.213-0.759-17.949
	c0.212-1.989,0.851-6.864,2.78-7.079c2.766-0.308,4.11,6.937,4.552,8.848c0.98,4.25,1.226,8.31,1.77,11.376
	c2.319-2.516,3.714-6.54,5.309-10.618c1.537-3.931,3.602-8.497,3.287-12.893c-0.223-3.109-2.639-6.519-4.045-9.607
	c-4.21-9.246-8.935-19.232-11.377-29.326c8.802,6.199,14.461,15.539,18.708,26.292c2.045-3.947,1.428-11.005,2.781-14.916
	c2.479,1.402,3.169,4.622,3.792,7.079c1.408,5.557,1.921,12.988,1.264,19.213c-0.322,3.055-1.86,6.141-1.77,8.848
	c0.122,3.631,3.709,8.389,4.298,12.135c0.888-12.477,1.517-26.332,1.517-39.438c0-10.751-0.221-20.29-3.286-28.821
	c-0.845-2.35-2.683-5.277,0-7.332c2.894,1.182,4.491,4.89,5.814,7.837c4.073,9.074,4.8,22.448,5.562,33.625
	c2.332-3.836,2.828-9.88,2.781-14.664c-0.138-14.228-4.543-29.371-7.584-41.714c13.4,7.51,15.953,23.762,16.938,43.231
	c0.312,6.176,0.671,13.016-1.012,18.202c-0.994,3.064-2.958,5.734-4.045,8.849c-2.133,6.114-3.741,13.092-4.804,20.478
	c-0.517,3.602-0.247,7.549-1.011,11.124c-0.583,2.724-2.249,5.651-3.286,8.596c-1.982,5.621-3.783,11.476-5.815,17.444
	c-0.995,2.924-2.558,5.621-3.286,8.343c-0.386,1.441-0.058,2.789-0.506,4.045c-2.281,6.392-14.85,9.357-21.236,12.135
	c-12.146,5.283-22.905,10.13-34.129,15.927c-3.699,1.911-7.663,3.896-10.365,6.32c-6.078,5.453-8.581,12.784-12.894,20.478
	c2.78,0.904,7.194,0.324,9.606-0.758c6.199-2.782,11.893-7.889,20.984-10.618c5.38-1.616,13.105-2.963,19.971-3.034
	c4.033-0.041,8.274-0.052,9.354,3.286c1.115,3.447-2.131,8.173-3.539,11.63c-4.602,11.296-10.757,20.977-20.226,26.545
	c-8.705,5.119-24.02,5.197-36.658,4.297c1.657,11.123,0.573,27.119-1.769,38.175c-0.704,3.325-1.985,6.722-2.022,9.859
	c-0.078,6.61,3.192,13.414,5.31,19.72c0.968,2.884,2.039,6.177,3.285,9.354c1.216,3.097,3.049,6.119,3.287,9.101
	c0.229,2.866-0.719,6.567-1.264,9.606c-2.828,15.772-12.202,22.436-25.534,28.063c-4.779,2.017-10.875,5.086-15.675,5.562
	c-6.157,0.609-13.913-2.024-19.719-4.299c-14.591-5.713-24.894-14.665-30.59-29.578c-1.115-2.916-2.887-6.582-2.781-9.101
	c0.113-2.706,2.882-7.114,4.297-10.113c3.29-6.974,5.861-12.382,9.102-19.467c1.392-3.044,4.137-6.646,4.551-9.606
	c0.482-3.454-0.972-8.178-1.518-11.882c-1.853-12.587-2.95-22.569-1.517-34.635c-9.695,3.403-24.632,3.65-33.876-1.012
	c-6.502-3.278-11.455-11.057-15.422-17.95c-4.264-7.409-7.341-15.845-10.366-23.005c19.018,2.472,42.371,2.798,55.872,11.629
	c-1.042-3.698-3.471-5.788-4.803-8.596c-0.566-1.19-0.565-2.521-1.265-3.792c-1.915-3.479-7.887-6.627-11.882-8.848
	c-13.537-7.525-25.734-15.348-38.68-23.512c-4.189-2.641-8.607-5.069-12.641-8.09c-3.898-2.919-8.056-5.528-11.882-8.848
	c-6.726-5.835-14.822-14.729-16.18-25.028c-1.521-11.542,2.838-23.92,7.08-31.854c0.691-1.296,1.829-2.322,2.021-3.539
	c0.219-1.38-0.421-2.933-0.506-4.298c-0.853-13.731,1.534-30.742,5.056-42.472c1.28-4.261,2.163-8.494,4.298-11.629
	c2.732-4.013,7.302-6.439,12.641-8.596c-0.672,1.803-2.658,2.774-3.792,4.55c-6.194,9.7-7.219,26.062-8.09,40.45
	C402.676,309.701,405.063,300.375,411.005,295.951z M609.209,399.351c12.817-5.258,22.912-26.147,14.916-44.495
	c-0.014-0.154-0.038-0.3-0.252-0.253C615.963,366.496,612.358,382.697,609.209,399.351z M396.341,377.356
	c-0.871-6.461-1.4-13.263-3.539-18.456C390.54,364.747,390.892,375.427,396.341,377.356z"/>
<path fill-rule="evenodd" clip-rule="evenodd" fill="none" stroke="#6C3A5B" stroke-width="4" stroke-miterlimit="10" d="
	M411.005,295.951c-1.932,8.261-4.524,20.737-7.331,30.084c-0.929,3.092-3.04,6.083-3.54,8.849c-0.792,4.379,0.195,9.81,0.758,14.41
	c1.431,11.703,5.07,19.892,7.584,30.084c0.504,2.045,0.392,4.391,1.011,6.32c0.829,2.585,5.467,7.174,7.584,9.101
	c3.085,2.81,6.759,5.113,10.113,6.573c-0.88-9.896-2.719-19.384-6.573-27.051c-2.09-4.158-4.394-7.069-5.562-11.376
	c-1.168-4.312-1.904-8.922-2.021-14.916c-0.415-20.968,0.61-42.408,14.662-51.826c-1.08,6.624-5.177,11.738-6.32,18.961
	c-1.135,7.172-0.252,15.295-0.252,23.764c0,15.48,4.574,29.586,10.618,39.186c2.811-2.656,3.009-7.815,4.298-12.135
	c1.183-3.962,1.962-9.206,6.572-9.606c2.49,3.493,0.504,7.731-0.252,11.124c-2.416,10.847-7.519,22.35-3.034,34.129
	c2.669,7.012,6.982,11.775,11.882,15.675c5.545,4.413,11.086,6.144,19.213,8.09c1.373,0.329,2.94,2.256,5.309,2.022
	c4.991-0.491,3.314-6.405,3.54-10.871c0.228-4.517,2.276-9.212,4.045-13.146c1.872-4.161,3.309-8.446,5.562-11.629
	c2.932,1.957,1.083,5.67,0.505,8.343c-0.634,2.933-0.942,6.061-1.011,9.102c-0.143,6.244-0.305,13.672,1.77,18.96
	c1.164,2.967,4.922,5.902,7.332,8.09c1.424,1.294,2.76,2.458,4.044,3.792c1.24,1.286,2.393,3.188,3.539,4.045
	c3.511,2.625,10.465,4.125,14.917,2.022c3.725-1.759,6.42-5.87,10.112-8.09c3.766-2.263,9.564-4.095,11.124-8.849
	c1.291-3.934,1.501-11.235,1.77-17.949c0.466-11.638-0.692-20.405-6.32-25.534c1.454-1.418,2.763-3.827,5.057-3.792
	c5.362,0.081,8.018,12.92,8.849,17.949c1.492,9.042,1.234,16.765,1.517,24.775c7.646,2.634,15.198-1.736,20.73-4.803
	c4.14-2.294,7.566-5.582,11.629-7.837c0.918-0.51,2.129-0.683,3.034-1.264c4.526-2.906,8.612-12.688,10.87-18.456
	c1.379-3.521,2.604-7.235,3.793-10.87c1.172-3.586,3.107-7.909,3.286-11.125c0.136-2.424-0.933-5.764-1.264-8.848
	c-0.657-6.123-1.477-11.213-0.759-17.949c0.212-1.989,0.851-6.864,2.78-7.079c2.766-0.308,4.11,6.937,4.552,8.848
	c0.98,4.25,1.226,8.31,1.77,11.376c2.319-2.516,3.714-6.54,5.309-10.618c1.537-3.931,3.602-8.497,3.287-12.893
	c-0.223-3.109-2.639-6.519-4.045-9.607c-4.21-9.246-8.935-19.232-11.377-29.326c8.802,6.199,14.461,15.539,18.708,26.292
	c2.045-3.947,1.428-11.005,2.781-14.916c2.479,1.402,3.169,4.622,3.792,7.079c1.408,5.557,1.921,12.988,1.264,19.213
	c-0.322,3.055-1.86,6.141-1.77,8.848c0.122,3.631,3.709,8.389,4.298,12.135c0.888-12.477,1.517-26.332,1.517-39.438
	c0-10.751-0.221-20.29-3.286-28.821c-0.845-2.35-2.683-5.277,0-7.332c2.894,1.182,4.491,4.89,5.814,7.837
	c4.073,9.074,4.8,22.448,5.562,33.625c2.332-3.836,2.828-9.88,2.781-14.664c-0.138-14.228-4.543-29.371-7.584-41.714
	c13.4,7.51,15.953,23.762,16.938,43.231c0.312,6.176,0.671,13.016-1.012,18.202c-0.994,3.064-2.958,5.734-4.045,8.849
	c-2.133,6.114-3.741,13.092-4.804,20.478c-0.517,3.602-0.247,7.549-1.011,11.124c-0.583,2.724-2.249,5.651-3.286,8.596
	c-1.982,5.621-3.783,11.476-5.815,17.444c-0.995,2.924-2.558,5.621-3.286,8.343c-0.386,1.441-0.058,2.789-0.506,4.045
	c-2.281,6.392-14.85,9.357-21.236,12.135c-12.146,5.283-22.905,10.13-34.129,15.927c-3.699,1.911-7.663,3.896-10.365,6.32
	c-6.078,5.453-8.581,12.784-12.894,20.478c2.78,0.904,7.194,0.324,9.606-0.758c6.199-2.782,11.893-7.889,20.984-10.618
	c5.38-1.616,13.105-2.963,19.971-3.034c4.033-0.041,8.274-0.052,9.354,3.286c1.115,3.447-2.131,8.173-3.539,11.63
	c-4.602,11.296-10.757,20.977-20.226,26.545c-8.705,5.119-24.02,5.197-36.658,4.297c1.657,11.123,0.573,27.119-1.769,38.175
	c-0.704,3.325-1.985,6.722-2.022,9.859c-0.078,6.61,3.192,13.414,5.31,19.72c0.968,2.884,2.039,6.177,3.285,9.354
	c1.216,3.097,3.049,6.119,3.287,9.101c0.229,2.866-0.719,6.567-1.264,9.606c-2.828,15.772-12.202,22.436-25.534,28.063
	c-4.779,2.017-10.875,5.086-15.675,5.562c-6.157,0.609-13.913-2.024-19.719-4.299c-14.591-5.713-24.894-14.665-30.59-29.578
	c-1.115-2.916-2.887-6.582-2.781-9.101c0.113-2.706,2.882-7.114,4.297-10.113c3.29-6.974,5.861-12.382,9.102-19.467
	c1.392-3.044,4.137-6.646,4.551-9.606c0.482-3.454-0.972-8.178-1.518-11.882c-1.853-12.587-2.95-22.569-1.517-34.635
	c-9.695,3.403-24.632,3.65-33.876-1.012c-6.502-3.278-11.455-11.057-15.422-17.95c-4.264-7.409-7.341-15.845-10.366-23.005
	c19.018,2.472,42.371,2.798,55.872,11.629c-1.042-3.698-3.471-5.788-4.803-8.596c-0.566-1.19-0.565-2.521-1.265-3.792
	c-1.915-3.479-7.887-6.627-11.882-8.848c-13.537-7.525-25.734-15.348-38.68-23.512c-4.189-2.641-8.607-5.069-12.641-8.09
	c-3.898-2.919-8.056-5.528-11.882-8.848c-6.726-5.835-14.822-14.729-16.18-25.028c-1.521-11.542,2.838-23.92,7.08-31.854
	c0.691-1.296,1.829-2.322,2.021-3.539c0.219-1.38-0.421-2.933-0.506-4.298c-0.853-13.731,1.534-30.742,5.056-42.472
	c1.28-4.261,2.163-8.494,4.298-11.629c2.732-4.013,7.302-6.439,12.641-8.596c-0.672,1.803-2.658,2.774-3.792,4.55
	c-6.194,9.7-7.219,26.062-8.09,40.45C402.676,309.701,405.063,300.375,411.005,295.951z M609.209,399.351
	c12.817-5.258,22.912-26.147,14.916-44.495c-0.014-0.154-0.038-0.3-0.252-0.253C615.963,366.496,612.358,382.697,609.209,399.351z
	 M396.341,377.356c-0.871-6.461-1.4-13.263-3.539-18.456C390.54,364.747,390.892,375.427,396.341,377.356z"/>
<path fill-rule="evenodd" clip-rule="evenodd" fill="#CC52A8" d="M969.837,636.859c-36.542,15.307-78.734,8.674-112.616,15.148
	c-9.557,1.828-19.124,7.27-29.341,8.917c-13.222,2.132-29.257,3.309-41.391,1.919c-11.216-1.284-18.858-6.234-34.823-3.219
	c-35.016,6.612-72.326,11.909-106.916,23.828c-33.126,11.42-64.636,27.817-99.594,34.344
	c-12.875-38.32-19.574-78.072-31.428-118.483c58.797-13.844,111.226-12.117,168.658-13.033c18.82-0.303,38.853,3.276,54.929-2.112
	c15.604-5.234,30.054-19.35,49.529-26.728c17.37-6.581,39.828-9.782,53.604-19.881c8.377-6.136,17.763-16.062,28.869-23.512
	c6.542-4.382,27.835-22.218,34.354-11.375c6.951,11.574-16.883,24.161-21.898,28.454c-11.971,10.26-19.905,16.239-24.569,26.9
	c13.609-3.963,26.946,9.523,19.709,23.081c24.846-4.995,24.671,29.686,6.089,35.753c7.707,3.647,23.05,3.358,41.454,2.595
	C947.719,618.486,982.33,608.68,969.837,636.859z"/>
<path fill-rule="evenodd" clip-rule="evenodd" fill="#CC52A8" d="M57.621,637.456c36.542,15.307,78.735,8.673,112.616,15.148
	c9.556,1.828,19.124,7.27,29.341,8.916c13.222,2.133,29.257,3.309,41.391,1.92c11.215-1.285,18.859-6.234,34.823-3.22
	c35.017,6.612,72.326,11.909,106.916,23.828c33.126,11.421,64.637,27.818,99.594,34.344c12.874-38.319,19.573-78.071,31.428-118.483
	c-58.796-13.843-111.225-12.116-168.658-13.032c-18.82-0.303-38.853,3.275-54.929-2.112c-15.604-5.234-30.054-19.35-49.53-26.728
	c-17.371-6.582-39.828-9.782-53.604-19.881c-8.377-6.136-17.763-16.062-28.869-23.512c-6.542-4.382-27.835-22.218-34.354-11.375
	c-6.952,11.574,16.883,24.161,21.898,28.454c11.97,10.26,19.905,16.239,24.569,26.9c-13.609-3.963-26.946,9.523-19.709,23.081
	c-24.845-4.996-24.671,29.685-6.089,35.753c-7.708,3.647-23.05,3.357-41.453,2.594C79.739,619.083,45.127,609.276,57.621,637.456z"
	/>
<path fill-rule="evenodd" clip-rule="evenodd" fill="#CC52A8" d="M549.774,472.902c0,0-14.148,12.52-31.601,12.52
	s-31.6-12.52-31.6-12.52s14.148-12.52,31.6-12.52S549.774,472.902,549.774,472.902z"/>
<circle fill-rule="evenodd" clip-rule="evenodd" fill="#662954" cx="518.36" cy="473.045" r="11.331"/>
<circle fill-rule="evenodd" clip-rule="evenodd" fill="#CC52A8" cx="518.361" cy="473.045" r="8.916"/>
<circle fill-rule="evenodd" clip-rule="evenodd" fill="#662954" cx="518.361" cy="473.045" r="4.632"/>
<g>
	<polygon fill-rule="evenodd" clip-rule="evenodd" fill="#FFFFFF" points="661.729,757.342 661.729,634.342 807.588,634.342 
		752.992,695.842 807.588,757.342 	"/>
	<path fill="#FF66D2" d="M796.462,639.342l-44.261,49.868l-5.896,6.649l5.896,6.637l44.261,49.846H666.729v-113h130
		 M818.714,629.342H656.729v133h161.985l-59.035-66.5L818.714,629.342L818.714,629.342z"/>
</g>
<g>
	<polygon fill-rule="evenodd" clip-rule="evenodd" fill="#FFFFFF" points="661.729,632.549 715.729,606.86 715.729,728.778 
		661.729,754.467 	"/>
	<path fill="#FF66D2" d="M710.729,614.342v111.267l-44,20.968V635.718l44-20.968 M720.729,598.969l-64,30.412v132.977l64-30.412
		V598.969L720.729,598.969z"/>
</g>
<g>
	<polygon fill-rule="evenodd" clip-rule="evenodd" fill="#FFFFFF" points="237.705,757.342 292.3,695.842 237.705,634.342 
		383.729,634.342 383.729,757.342 	"/>
	<path fill="#FF66D2" d="M378.729,639.342v113H248.831l44.26-49.841l5.896-6.636l-5.896-6.657l-44.26-49.866H378.729
		 M388.729,629.342h-162.15l59.035,66.5l-59.035,66.5h162.15V629.342L388.729,629.342z"/>
</g>
<g>
	<polygon fill-rule="evenodd" clip-rule="evenodd" fill="#FFFFFF" points="329.729,728.778 329.729,606.86 383.729,632.549 
		383.729,754.467 	"/>
	<path fill="#FF66D2" d="M334.729,614.75l44,20.968v110.858l-44-20.968V614.342 M324.729,598.969v132.977l64,30.412V629.381
		L324.729,598.969L324.729,598.969z"/>
</g>
<g>
	<rect x="328.729" y="604.342" fill-rule="evenodd" clip-rule="evenodd" fill="#FFFFFF" width="387" height="123"/>
	<path fill="#FF66D2" d="M710.729,609.342v113h-377v-113H710.729 M720.729,599.342h-397v133h397V599.342L720.729,599.342z"/>
</g>
<g>
	<path fill="#D674BA" d="M426.968,644.847c-0.366,0.021-0.948,0.166-1.743,0.436c-0.796,0.269-1.367,0.533-1.711,0.79
		c-0.839,0.517-1.409,0.915-1.711,1.195c-0.301,0.279-0.882,1.011-1.743,2.195c-1.679,2.366-3.228,4.766-4.648,7.198
		c-1.421,2.432-3.196,5.52-5.327,9.264c-0.796,1.378-1.323,2.485-1.582,3.324c-0.258,0.84-0.388,2.056-0.388,3.648v8.748
		c0,0.774,0.156,1.447,0.469,2.018c0.311,0.57,0.844,1.027,1.597,1.371c0.452,0.173,1.259,0.383,2.421,0.63
		c1.162,0.247,2.098,0.382,2.809,0.403v2.292h-21.434v-2.292c0.602-0.043,1.505-0.124,2.711-0.241
		c1.206-0.119,2.044-0.275,2.518-0.469c0.775-0.323,1.307-0.765,1.598-1.323c0.291-0.56,0.436-1.248,0.436-2.066v-11.137
		c0-0.344-0.21-0.974-0.63-1.888c-0.419-0.915-0.92-1.932-1.5-3.051c-1.291-2.496-2.723-5.197-4.293-8.102
		c-1.571-2.905-2.937-5.392-4.099-7.457c-0.71-1.227-1.34-2.151-1.89-2.776c-0.548-0.624-1.177-1.173-1.888-1.646
		c-0.516-0.323-1.135-0.57-1.856-0.743c-0.721-0.172-1.372-0.279-1.953-0.322v-2.292h19.547v2.292
		c-2.195,0.043-3.745,0.193-4.649,0.45s-1.355,0.621-1.355,1.094c0,0.129,0.064,0.354,0.194,0.676
		c0.128,0.321,0.312,0.73,0.548,1.226c0.279,0.558,0.612,1.198,0.999,1.919s0.752,1.414,1.095,2.081
		c1.009,1.915,2.04,3.824,3.092,5.729c1.052,1.904,2.426,4.383,4.122,7.438c3.376-5.442,5.951-9.685,7.726-12.729
		c1.774-3.043,2.662-4.865,2.662-5.467c0-0.494-0.184-0.893-0.55-1.192s-0.85-0.537-1.452-0.709
		c-0.624-0.171-1.302-0.283-2.033-0.337c-0.732-0.055-1.409-0.113-2.034-0.178v-2.292h15.926V644.847z"/>
	<path fill="#D674BA" d="M465.38,647.978c2.022,2.108,3.605,4.653,4.746,7.634c1.14,2.981,1.71,6.278,1.71,9.894
		c0,3.638-0.581,6.94-1.743,9.911c-1.162,2.969-2.775,5.497-4.841,7.585c-2.001,2.065-4.326,3.659-6.973,4.777
		c-2.646,1.119-5.466,1.679-8.457,1.679c-3.186,0-6.128-0.598-8.829-1.791c-2.7-1.195-5.02-2.857-6.957-4.987
		c-1.937-2.089-3.459-4.622-4.567-7.603c-1.109-2.98-1.663-6.171-1.663-9.571c0-3.722,0.581-7.042,1.743-9.958
		s2.765-5.439,4.81-7.569c2.022-2.109,4.374-3.724,7.053-4.842c2.68-1.12,5.482-1.679,8.41-1.679c3.034,0,5.896,0.57,8.586,1.711
		C461.098,644.309,463.422,645.913,465.38,647.978z M460.571,680.452c1.205-1.959,2.082-4.175,2.63-6.65
		c0.549-2.475,0.823-5.239,0.823-8.296c0-3.142-0.307-6.024-0.92-8.65c-0.614-2.626-1.512-4.863-2.695-6.715
		c-1.184-1.829-2.668-3.254-4.455-4.276c-1.786-1.022-3.831-1.533-6.132-1.533c-2.583,0-4.778,0.592-6.585,1.775
		s-3.282,2.765-4.422,4.745c-1.077,1.894-1.878,4.11-2.405,6.649c-0.528,2.539-0.791,5.208-0.791,8.005c0,3.1,0.28,5.896,0.84,8.393
		c0.559,2.497,1.441,4.714,2.646,6.649c1.162,1.895,2.625,3.374,4.39,4.439c1.764,1.065,3.874,1.598,6.327,1.598
		c2.302,0,4.378-0.538,6.23-1.614C457.902,683.895,459.409,682.388,460.571,680.452z"/>
	<path fill="#D674BA" d="M521.902,670.089c-0.517,0.064-1.21,0.167-2.082,0.307s-1.576,0.339-2.114,0.597
		c-0.646,0.324-1.104,0.781-1.372,1.372c-0.27,0.593-0.403,1.286-0.403,2.083v3.55c0,2.583,0.017,4.325,0.048,5.229
		c0.032,0.904,0.07,1.646,0.113,2.228c-2.862,1.291-5.714,2.281-8.555,2.97c-2.84,0.688-5.626,1.033-8.36,1.033
		c-2.926,0-5.746-0.549-8.458-1.646c-2.711-1.1-5.079-2.659-7.102-4.684c-2.044-2.047-3.669-4.534-4.874-7.463
		c-1.206-2.928-1.808-6.201-1.808-9.819c0-3.488,0.576-6.724,1.728-9.707c1.151-2.981,2.78-5.571,4.89-7.769
		c2.044-2.152,4.481-3.826,7.312-5.022c2.83-1.196,5.858-1.793,9.087-1.793c2.582,0,4.831,0.312,6.746,0.936
		c1.916,0.625,3.604,1.377,5.068,2.26l1.323-2.194h2.582l0.291,16.011h-2.647c-0.453-1.765-1.013-3.503-1.68-5.214
		c-0.668-1.711-1.53-3.244-2.586-4.6c-1.055-1.355-2.342-2.437-3.861-3.244c-1.519-0.807-3.333-1.211-5.445-1.211
		c-2.306,0-4.363,0.468-6.173,1.405c-1.81,0.938-3.383,2.332-4.718,4.184c-1.314,1.788-2.327,4.018-3.038,6.688
		c-0.711,2.671-1.066,5.653-1.066,8.948c0,2.907,0.35,5.648,1.05,8.223c0.701,2.572,1.718,4.796,3.055,6.67
		c1.335,1.916,3.006,3.425,5.009,4.523c2.004,1.098,4.278,1.646,6.82,1.646c1.897,0,3.625-0.29,5.188-0.871
		c1.562-0.581,2.666-1.195,3.313-1.84c0.173-1.12,0.265-2.249,0.275-3.39s0.016-2.109,0.016-2.905v-2.519
		c0-0.903-0.124-1.705-0.372-2.404c-0.248-0.7-0.758-1.211-1.533-1.533c-0.71-0.322-1.673-0.565-2.889-0.727
		c-1.216-0.161-2.168-0.264-2.857-0.307v-2.356h20.078V670.089z"/>
	<path fill="#D674BA" d="M564.027,674.867l-0.872,13.493h-38.024v-2.292c0.646-0.043,1.506-0.135,2.582-0.274
		s1.775-0.285,2.098-0.436c0.688-0.323,1.168-0.742,1.438-1.259c0.269-0.517,0.403-1.173,0.403-1.97v-32.925
		c0-0.71-0.118-1.34-0.355-1.889s-0.732-0.995-1.485-1.339c-0.581-0.281-1.36-0.527-2.34-0.743c-0.979-0.215-1.76-0.344-2.34-0.387
		v-2.292h35.443v11.04h-2.422c-0.431-1.637-1.361-3.374-2.792-5.215c-1.431-1.839-2.792-2.845-4.083-3.017
		c-0.667-0.087-1.464-0.151-2.389-0.194c-0.926-0.043-1.98-0.064-3.164-0.064h-7.197v18.206h5.164c1.657,0,2.867-0.156,3.631-0.469
		c0.765-0.312,1.438-0.834,2.018-1.564c0.474-0.625,0.877-1.459,1.211-2.502c0.333-1.044,0.555-2.028,0.661-2.953h2.421v17.946
		h-2.421c-0.085-1.032-0.317-2.125-0.693-3.276c-0.377-1.151-0.769-1.985-1.179-2.502c-0.667-0.839-1.426-1.388-2.275-1.646
		c-0.85-0.259-1.975-0.388-3.373-0.388h-5.164v13.729c0,1.375,0.096,2.46,0.29,3.255c0.193,0.796,0.57,1.396,1.13,1.806
		c0.559,0.408,1.323,0.671,2.291,0.789c0.969,0.118,2.346,0.178,4.132,0.178c0.711,0,1.647,0,2.809,0
		c1.162,0,2.142-0.043,2.938-0.13c0.818-0.086,1.662-0.241,2.534-0.468c0.872-0.226,1.49-0.533,1.855-0.92
		c0.99-1.033,2.029-2.599,3.115-4.696c1.088-2.099,1.78-3.643,2.082-4.633H564.027z"/>
	<path fill="#D674BA" d="M597.211,667.345c0.969,1.076,1.684,2.255,2.146,3.535s0.694,2.771,0.694,4.471
		c0,4.046-1.496,7.382-4.486,10.007c-2.992,2.625-6.704,3.938-11.137,3.938c-2.045,0-4.089-0.316-6.133-0.952
		c-2.046-0.635-3.81-1.403-5.294-2.308l-1.389,2.356h-2.583l-0.451-15.688h2.614c0.538,1.936,1.168,3.685,1.889,5.245
		c0.722,1.561,1.674,3.018,2.856,4.373c1.12,1.271,2.427,2.281,3.923,3.035c1.494,0.753,3.232,1.13,5.213,1.13
		c1.484,0,2.781-0.193,3.89-0.581c1.108-0.389,2.007-0.938,2.694-1.65c0.689-0.71,1.201-1.545,1.534-2.505
		c0.333-0.958,0.5-2.062,0.5-3.312c0-1.832-0.517-3.539-1.55-5.124c-1.032-1.583-2.571-2.785-4.615-3.604
		c-1.398-0.556-3.003-1.173-4.81-1.848c-1.808-0.675-3.368-1.312-4.681-1.913c-2.583-1.162-4.589-2.684-6.021-4.565
		c-1.431-1.883-2.146-4.342-2.146-7.375c0-1.743,0.355-3.365,1.064-4.872c0.711-1.506,1.723-2.852,3.035-4.033
		c1.248-1.12,2.722-1.996,4.423-2.632c1.699-0.634,3.475-0.951,5.325-0.951c2.109,0,3.998,0.323,5.665,0.968
		c1.668,0.646,3.19,1.398,4.568,2.26l1.323-2.194h2.582l0.259,15.203h-2.614c-0.474-1.743-1.007-3.411-1.599-5.003
		c-0.592-1.593-1.361-3.034-2.308-4.325c-0.925-1.249-2.056-2.244-3.39-2.986s-2.969-1.113-4.906-1.113
		c-2.045,0-3.788,0.656-5.229,1.969s-2.163,2.916-2.163,4.809c0,1.98,0.463,3.621,1.388,4.924c0.926,1.302,2.271,2.372,4.035,3.211
		c1.571,0.754,3.115,1.405,4.633,1.954c1.517,0.549,2.985,1.135,4.405,1.759c1.291,0.56,2.535,1.194,3.729,1.904
		S596.329,666.399,597.211,667.345z"/>
	<path fill="#D674BA" d="M653.217,688.36h-19.013v-2.292c0.517-0.043,1.265-0.108,2.243-0.193c0.979-0.086,1.651-0.216,2.018-0.388
		c0.646-0.258,1.119-0.65,1.421-1.178c0.3-0.527,0.451-1.211,0.451-2.05v-16.302h-21.53v15.945c0,0.755,0.123,1.389,0.371,1.905
		c0.247,0.517,0.737,0.969,1.469,1.355c0.365,0.194,1.017,0.388,1.952,0.582c0.937,0.193,1.673,0.301,2.212,0.322v2.292h-19.013
		v-2.292c0.516-0.043,1.264-0.108,2.243-0.193c0.979-0.086,1.651-0.216,2.018-0.388c0.645-0.258,1.119-0.65,1.42-1.178
		c0.302-0.527,0.453-1.211,0.453-2.05v-33.055c0-0.688-0.141-1.318-0.42-1.889c-0.28-0.57-0.765-1.017-1.453-1.339
		c-0.581-0.281-1.285-0.527-2.114-0.743c-0.829-0.215-1.545-0.344-2.146-0.387v-2.292h19.013v2.292
		c-0.603,0.021-1.34,0.118-2.212,0.29c-0.871,0.172-1.522,0.334-1.952,0.484c-0.731,0.259-1.222,0.688-1.469,1.291
		c-0.248,0.603-0.371,1.259-0.371,1.969v14.204h21.53v-13.881c0-0.688-0.14-1.318-0.42-1.889c-0.279-0.57-0.764-1.017-1.452-1.339
		c-0.581-0.281-1.286-0.527-2.114-0.743c-0.829-0.215-1.545-0.344-2.146-0.387v-2.292h19.013v2.292
		c-0.603,0.021-1.34,0.118-2.211,0.29c-0.873,0.172-1.523,0.334-1.953,0.484c-0.732,0.259-1.222,0.688-1.469,1.291
		c-0.248,0.603-0.371,1.259-0.371,1.969v33.021c0,0.755,0.123,1.389,0.371,1.905c0.247,0.517,0.736,0.969,1.469,1.355
		c0.365,0.194,1.017,0.388,1.953,0.582c0.936,0.193,1.673,0.301,2.211,0.322V688.36z"/>
</g>
<rect x="354.729" y="623.342" fill="#D674BA" width="327" height="4"/>
<rect x="354.729" y="702.342" fill="#D674BA" width="327" height="4"/>
<circle fill="#D674BA" cx="359.224" cy="665.458" r="4.691"/>
<circle fill="#D674BA" cx="671.69" cy="665.458" r="4.691"/>
<g>
	<path fill="#D674BA" d="M476.731,746.93c-2.322,3.896-4.782,6.963-7.382,9.202c-2.6,2.24-5.013,3.36-7.238,3.36
		c-1.851,0-3.353-0.634-4.504-1.899c-1.151-1.267-1.727-2.912-1.727-4.936c0-2.667,0.993-4.991,2.979-6.972
		c1.986-1.981,4.317-2.972,6.993-2.972c1.084,0,1.974,0.209,2.669,0.625c0.695,0.418,1.043,0.948,1.043,1.591
		c0,1.056-0.897,1.847-2.691,2.374c0.096-0.23,0.145-0.45,0.145-0.662c0-1.554-0.826-2.331-2.475-2.331
		c-1.43,0-2.746,0.799-3.95,2.396c-1.204,1.597-1.806,3.346-1.806,5.245c0,1.545,0.401,2.804,1.202,3.777
		c0.801,0.974,1.844,1.46,3.13,1.46c3.53,0,7.665-3.659,12.404-10.979L476.731,746.93z"/>
	<path fill="#D674BA" d="M476.156,752.37c2.858-6.437,5.775-9.655,8.75-9.655c1.189,0,2.048,0.496,2.576,1.489
		c0.527,0.993,0.791,2.603,0.791,4.827l0.015,1.728c0,2.993,0.441,4.514,1.324,4.562c0.71,0.028,1.829-0.825,3.36-2.562
		c1.53-1.736,3.087-3.919,4.67-6.548l1.194,0.663c-1.554,3.078-3.307,5.683-5.259,7.813c-1.952,2.129-3.562,3.193-4.828,3.193
		c-1.18,0-2.029-0.552-2.547-1.654c-0.518-1.104-0.777-2.907-0.777-5.411v-1.28c0-2.896-0.499-4.346-1.497-4.346
		c-1.41,0-3.208,1.943-5.396,5.827c-2.207,3.915-3.31,6.236-3.31,6.966c0,0.239,0.091,0.475,0.273,0.705
		c-0.432,0.239-0.993,0.359-1.684,0.359c-0.854,0-1.281-0.379-1.281-1.137c0-0.527,0.302-2.125,0.906-4.792
		c0.02-0.086,0.145-0.705,0.375-1.856l2.95-14.85c-0.643,0.239-1.291,0.359-1.943,0.359c-1.86,0-2.791-1.099-2.791-3.295
		c0.92,0.69,1.991,1.036,3.209,1.036c1.717,0,3.367-0.346,4.95-1.036l-2.36,11.899c-0.029,0.135-0.471,1.92-1.324,5.354
		C476.434,751.016,476.319,751.564,476.156,752.37z"/>
	<path fill="#D674BA" d="M497.74,752.695c0,2.806,1.189,4.207,3.569,4.207c2.062,0,4.336-0.98,6.821-2.942
		c2.485-1.963,4.725-4.547,6.72-7.754l1.223,0.676c-1.879,3.509-4.324,6.412-7.331,8.714c-3.007,2.301-5.858,3.451-8.555,3.451
		c-1.727,0-3.092-0.557-4.094-1.669s-1.503-2.634-1.503-4.562c0-2.781,0.909-5.16,2.727-7.137c1.818-1.977,4.007-2.964,6.569-2.964
		c1.238,0,2.229,0.312,2.972,0.935s1.115,1.457,1.115,2.502c0,1.717-1.034,3.237-3.101,4.56
		C502.803,752.035,500.426,752.695,497.74,752.695z M497.856,751.314c2.004-0.105,3.724-0.68,5.158-1.722
		c1.435-1.043,2.151-2.248,2.151-3.617c0-1.224-0.547-1.837-1.641-1.837c-1.305,0-2.508,0.699-3.611,2.096
		S498.125,749.325,497.856,751.314z"/>
	<path fill="#D674BA" d="M522.979,752.989c0.26,0.47,0.389,0.883,0.389,1.237c0,0.939-0.794,1.978-2.381,3.115
		c-1.588,1.137-3.035,1.705-4.339,1.705c-1.15,0-2.09-0.513-2.813-1.54c-0.725-1.026-1.086-2.35-1.086-3.972
		c0-1.803,0.475-4.369,1.425-7.698l0.661-2.418h-2.432c-1.016,0-1.827,0.145-2.431,0.433c0.556-1.011,1.017-1.645,1.381-1.902
		c0.364-0.257,0.983-0.386,1.856-0.386h2.173l0.288-0.995c0.441-1.482,0.969-2.5,1.583-3.054c0.614-0.553,1.535-0.829,2.763-0.829
		c0.144,0,0.374,0.01,0.69,0.028c-0.748,0.963-1.525,2.579-2.331,4.85h7.598c1.334,0,2.35-0.174,3.051-0.52
		c-0.24,0.983-0.559,1.624-0.957,1.925s-1.14,0.45-2.223,0.45h-8.087c-0.097,0.317-0.168,0.553-0.216,0.706
		c-1.161,3.952-1.741,6.937-1.741,8.95c0,2.226,0.8,3.338,2.402,3.338c0.825,0,1.725-0.35,2.698-1.05
		S522.567,753.872,522.979,752.989z"/>
	<path fill="#D674BA" d="M535.931,752.989c0.259,0.47,0.388,0.883,0.388,1.237c0,0.939-0.794,1.978-2.381,3.115
		c-1.588,1.137-3.034,1.705-4.339,1.705c-1.15,0-2.089-0.513-2.813-1.54c-0.724-1.026-1.086-2.35-1.086-3.972
		c0-1.803,0.475-4.369,1.425-7.698l0.662-2.418h-2.432c-1.018,0-1.828,0.145-2.432,0.433c0.556-1.011,1.016-1.645,1.381-1.902
		c0.364-0.257,0.983-0.386,1.855-0.386h2.174l0.287-0.995c0.441-1.482,0.969-2.5,1.583-3.054c0.614-0.553,1.534-0.829,2.763-0.829
		c0.144,0,0.374,0.01,0.691,0.028c-0.749,0.963-1.526,2.579-2.331,4.85h7.597c1.334,0,2.351-0.174,3.051-0.52
		c-0.239,0.983-0.559,1.624-0.957,1.925c-0.397,0.301-1.14,0.45-2.223,0.45h-8.087c-0.096,0.317-0.168,0.553-0.216,0.706
		c-1.16,3.952-1.741,6.937-1.741,8.95c0,2.226,0.8,3.338,2.403,3.338c0.825,0,1.724-0.35,2.697-1.05
		C534.825,754.663,535.518,753.872,535.931,752.989z"/>
	<path fill="#D674BA" d="M555.04,746.911c-2.168,3.801-4.36,6.773-6.576,8.918s-4.206,3.218-5.972,3.218
		c-1.074,0-1.94-0.351-2.597-1.051c-0.657-0.7-0.986-1.621-0.986-2.763c0-0.433,0.097-1.118,0.288-2.059l0.316-1.584
		c0.471-2.283,0.705-3.885,0.705-4.807c0-0.547-0.163-0.993-0.488-1.339c1.246-0.287,2.028-0.431,2.345-0.431
		c0.71,0,1.064,0.498,1.064,1.495c0,0.737-0.139,1.797-0.417,3.177l-0.562,2.803c-0.278,1.352-0.417,2.229-0.417,2.631
		c0,1.188,0.504,1.782,1.511,1.782c1.199,0,2.797-1.009,4.792-3.025c1.995-2.018,3.928-4.574,5.8-7.669L555.04,746.911z
		 M542.233,739.666l0.201,0.015c0.644-0.028,1.566-0.353,2.77-0.972c1.204-0.619,2.147-1.251,2.829-1.895
		c-0.423,1.324-1.171,2.433-2.246,3.324c-1.631,1.363-2.733,2.043-3.309,2.043c-0.385,0-0.576-0.234-0.576-0.704
		C541.902,740.806,542.013,740.203,542.233,739.666z"/>
	<path fill="#D674BA" d="M563.387,749.895c-1.23,2.542-2.745,4.702-4.545,6.482c-1.802,1.779-3.369,2.669-4.704,2.669
		c-1.019,0-1.833-0.453-2.442-1.359c-0.609-0.907-0.915-2.113-0.915-3.62c0-3.002,0.911-5.646,2.73-7.928
		c1.82-2.283,3.925-3.425,6.316-3.425c1.45,0,3.021,0.45,4.71,1.352c0.25-0.892,1.267-1.337,3.051-1.337
		c0.115,0,0.303,0.005,0.562,0.014c-0.547,0.835-0.964,1.977-1.252,3.425l-0.244,1.223c-0.278,1.363-0.418,2.956-0.418,4.778
		c0,2.101,0.489,3.151,1.468,3.151c1.036,0,2.453-0.866,4.253-2.598c1.797-1.731,3.565-3.936,5.302-6.612l1.122,0.777
		c-1.774,3.166-3.804,5.806-6.087,7.922c-2.283,2.114-4.244,3.173-5.885,3.173c-2.072,0-3.108-1.728-3.108-5.181
		C563.3,752.082,563.329,751.113,563.387,749.895z M564.062,746.456c-2.017-1.314-3.693-1.972-5.029-1.972
		c-1.45,0-2.703,0.881-3.761,2.641c-1.057,1.76-1.585,3.849-1.585,6.267c0,1.938,0.635,2.906,1.902,2.906
		c1.373,0,4.001-3.012,7.881-9.036C563.52,747.184,563.717,746.917,564.062,746.456z"/>
	<path fill="#D674BA" d="M577.877,758.586c-0.656,0.307-1.182,0.46-1.577,0.46c-0.982,0-1.475-0.432-1.475-1.295
		c0-0.441,0.173-1.54,0.519-3.296l0.72-3.583c0.441-2.13,0.662-3.707,0.662-4.733c0-0.557-0.159-1.022-0.476-1.396
		c1.008-0.345,1.827-0.518,2.461-0.518c0.672,0,1.007,0.427,1.007,1.28c0,0.528-0.237,1.914-0.713,4.159l-0.814,4.187
		c1.812-3.521,3.635-6.256,5.47-8.209c1.836-1.951,3.5-2.928,4.996-2.928c0.526,0,0.981,0.15,1.365,0.453
		c0.383,0.302,0.575,0.669,0.575,1.101c0,0.672-0.729,1.564-2.188,2.677c-0.363-0.759-0.881-1.137-1.552-1.137
		c-1.217,0-2.769,1.295-4.656,3.885c-1.169,1.611-2.184,3.274-3.046,4.986s-1.293,2.934-1.293,3.662L577.877,758.586z"/>
</g>
<rect x="393.729" y="740.342" fill="#D674BA" width="56" height="5"/>
<rect x="597.729" y="740.342" fill="#D674BA" width="55" height="5"/>
</svg>
